<?xml version="1.0" encoding="utf-8" standalone="no"?>
<!DOCTYPE svg PUBLIC "-//W3C//DTD SVG 1.1//EN"
  "http://www.w3.org/Graphics/SVG/1.1/DTD/svg11.dtd">
<svg xmlns:xlink="http://www.w3.org/1999/xlink" width="576pt" height="313.2pt" viewBox="0 0 576 313.2" xmlns="http://www.w3.org/2000/svg" version="1.1">
 <metadata>
  <rdf:RDF xmlns:dc="http://purl.org/dc/elements/1.1/" xmlns:cc="http://creativecommons.org/ns#" xmlns:rdf="http://www.w3.org/1999/02/22-rdf-syntax-ns#">
   <cc:Work>
    <dc:type rdf:resource="http://purl.org/dc/dcmitype/StillImage"/>
    <dc:date>2025-07-30T18:28:06.327777</dc:date>
    <dc:format>image/svg+xml</dc:format>
    <dc:creator>
     <cc:Agent>
      <dc:title>Matplotlib v3.9.1, https://matplotlib.org/</dc:title>
     </cc:Agent>
    </dc:creator>
   </cc:Work>
  </rdf:RDF>
 </metadata>
 <defs>
  <style type="text/css">*{stroke-linejoin: round; stroke-linecap: butt}</style>
 </defs>
 <g id="figure_1">
  <g id="patch_1">
   <path d="M 0 313.2 
L 576 313.2 
L 576 0 
L 0 0 
z
" style="fill: #ffffff"/>
  </g>
  <g id="axes_1">
   <g id="patch_2">
    <path d="M 55.478 265.877 
L 304.939 265.877 
L 304.939 47.323 
L 55.478 47.323 
z
" style="fill: #ffffff"/>
   </g>
   <g id="PathCollection_1">
    <defs>
     <path id="m3ee316daf6" d="M 0 3 
C 0.795609 3 1.55874 2.683901 2.12132 2.12132 
C 2.683901 1.55874 3 0.795609 3 0 
C 3 -0.795609 2.683901 -1.55874 2.12132 -2.12132 
C 1.55874 -2.683901 0.795609 -3 0 -3 
C -0.795609 -3 -1.55874 -2.683901 -2.12132 -2.12132 
C -2.683901 -1.55874 -3 -0.795609 -3 0 
C -3 0.795609 -2.683901 1.55874 -2.12132 2.12132 
C -1.55874 2.683901 -0.795609 3 0 3 
z
" style="stroke: #3f90da"/>
    </defs>
    <g clip-path="url(#p7ca5ea7c3b)">
     <use xlink:href="#m3ee316daf6" x="114.035262" y="139.837097" style="fill: #3f90da; stroke: #3f90da"/>
     <use xlink:href="#m3ee316daf6" x="100.775339" y="149.772588" style="fill: #3f90da; stroke: #3f90da"/>
     <use xlink:href="#m3ee316daf6" x="155.637111" y="135.180891" style="fill: #3f90da; stroke: #3f90da"/>
     <use xlink:href="#m3ee316daf6" x="116.551344" y="134.229964" style="fill: #3f90da; stroke: #3f90da"/>
     <use xlink:href="#m3ee316daf6" x="121.962423" y="150.745013" style="fill: #3f90da; stroke: #3f90da"/>
    </g>
   </g>
   <g id="PathCollection_2">
    <defs>
     <path id="m9ec6578e1a" d="M 0 3 
C 0.795609 3 1.55874 2.683901 2.12132 2.12132 
C 2.683901 1.55874 3 0.795609 3 0 
C 3 -0.795609 2.683901 -1.55874 2.12132 -2.12132 
C 1.55874 -2.683901 0.795609 -3 0 -3 
C -0.795609 -3 -1.55874 -2.683901 -2.12132 -2.12132 
C -2.683901 -1.55874 -3 -0.795609 -3 0 
C -3 0.795609 -2.683901 1.55874 -2.12132 2.12132 
C -1.55874 2.683901 -0.795609 3 0 3 
z
" style="stroke: #ffa90e"/>
    </defs>
    <g clip-path="url(#p7ca5ea7c3b)">
     <use xlink:href="#m9ec6578e1a" x="170.097201" y="170.288143" style="fill: #ffa90e; stroke: #ffa90e"/>
     <use xlink:href="#m9ec6578e1a" x="150.469339" y="167.510206" style="fill: #ffa90e; stroke: #ffa90e"/>
     <use xlink:href="#m9ec6578e1a" x="164.229508" y="163.214538" style="fill: #ffa90e; stroke: #ffa90e"/>
     <use xlink:href="#m9ec6578e1a" x="134.332838" y="175.140949" style="fill: #ffa90e; stroke: #ffa90e"/>
    </g>
   </g>
   <g id="PathCollection_3">
    <defs>
     <path id="me6c9409f64" d="M 0 3 
C 0.795609 3 1.55874 2.683901 2.12132 2.12132 
C 2.683901 1.55874 3 0.795609 3 0 
C 3 -0.795609 2.683901 -1.55874 2.12132 -2.12132 
C 1.55874 -2.683901 0.795609 -3 0 -3 
C -0.795609 -3 -1.55874 -2.683901 -2.12132 -2.12132 
C -2.683901 -1.55874 -3 -0.795609 -3 0 
C -3 0.795609 -2.683901 1.55874 -2.12132 2.12132 
C -1.55874 2.683901 -0.795609 3 0 3 
z
" style="stroke: #bd1f01"/>
    </defs>
    <g clip-path="url(#p7ca5ea7c3b)">
     <use xlink:href="#me6c9409f64" x="178.907135" y="135.180892" style="fill: #bd1f01; stroke: #bd1f01"/>
     <use xlink:href="#me6c9409f64" x="227.575532" y="152.270938" style="fill: #bd1f01; stroke: #bd1f01"/>
     <use xlink:href="#me6c9409f64" x="137.841598" y="161.657517" style="fill: #bd1f01; stroke: #bd1f01"/>
     <use xlink:href="#me6c9409f64" x="188.544453" y="161.593267" style="fill: #bd1f01; stroke: #bd1f01"/>
     <use xlink:href="#me6c9409f64" x="150.863435" y="161.657517" style="fill: #bd1f01; stroke: #bd1f01"/>
     <use xlink:href="#me6c9409f64" x="182.191656" y="162.121836" style="fill: #bd1f01; stroke: #bd1f01"/>
     <use xlink:href="#me6c9409f64" x="136.469815" y="167.913021" style="fill: #bd1f01; stroke: #bd1f01"/>
    </g>
   </g>
   <g id="PathCollection_4">
    <defs>
     <path id="mc2aa3484e2" d="M 0 3 
C 0.795609 3 1.55874 2.683901 2.12132 2.12132 
C 2.683901 1.55874 3 0.795609 3 0 
C 3 -0.795609 2.683901 -1.55874 2.12132 -2.12132 
C 1.55874 -2.683901 0.795609 -3 0 -3 
C -0.795609 -3 -1.55874 -2.683901 -2.12132 -2.12132 
C -2.683901 -1.55874 -3 -0.795609 -3 0 
C -3 0.795609 -2.683901 1.55874 -2.12132 2.12132 
C -1.55874 2.683901 -0.795609 3 0 3 
z
" style="stroke: #94a4a2"/>
    </defs>
    <g clip-path="url(#p7ca5ea7c3b)">
     <use xlink:href="#mc2aa3484e2" x="289.232991" y="131.397688" style="fill: #94a4a2; stroke: #94a4a2"/>
     <use xlink:href="#mc2aa3484e2" x="255.186021" y="163.69561" style="fill: #94a4a2; stroke: #94a4a2"/>
     <use xlink:href="#mc2aa3484e2" x="222.494421" y="150.407984" style="fill: #94a4a2; stroke: #94a4a2"/>
     <use xlink:href="#mc2aa3484e2" x="219.482594" y="131.397688" style="fill: #94a4a2; stroke: #94a4a2"/>
     <use xlink:href="#mc2aa3484e2" x="179.914965" y="169.41828" style="fill: #94a4a2; stroke: #94a4a2"/>
     <use xlink:href="#mc2aa3484e2" x="261.841577" y="169.41828" style="fill: #94a4a2; stroke: #94a4a2"/>
    </g>
   </g>
   <g id="PathCollection_5">
    <defs>
     <path id="me3622f54ca" d="M 0 3 
C 0.795609 3 1.55874 2.683901 2.12132 2.12132 
C 2.683901 1.55874 3 0.795609 3 0 
C 3 -0.795609 2.683901 -1.55874 2.12132 -2.12132 
C 1.55874 -2.683901 0.795609 -3 0 -3 
C -0.795609 -3 -1.55874 -2.683901 -2.12132 -2.12132 
C -2.683901 -1.55874 -3 -0.795609 -3 0 
C -3 0.795609 -2.683901 1.55874 -2.12132 2.12132 
C -1.55874 2.683901 -0.795609 3 0 3 
z
" style="stroke: #832db6"/>
    </defs>
    <g clip-path="url(#p7ca5ea7c3b)">
     <use xlink:href="#me3622f54ca" x="224.917482" y="125.675019" style="fill: #832db6; stroke: #832db6"/>
     <use xlink:href="#me3622f54ca" x="200.400191" y="150.407984" style="fill: #832db6; stroke: #832db6"/>
     <use xlink:href="#me3622f54ca" x="216.125506" y="112.387392" style="fill: #832db6; stroke: #832db6"/>
     <use xlink:href="#me3622f54ca" x="185.477771" y="169.41828" style="fill: #832db6; stroke: #832db6"/>
     <use xlink:href="#me3622f54ca" x="217.917939" y="112.387392" style="fill: #832db6; stroke: #832db6"/>
    </g>
   </g>
   <g id="PathCollection_6">
    <defs>
     <path id="m5f293298b3" d="M 0 3 
C 0.795609 3 1.55874 2.683901 2.12132 2.12132 
C 2.683901 1.55874 3 0.795609 3 0 
C 3 -0.795609 2.683901 -1.55874 2.12132 -2.12132 
C 1.55874 -2.683901 0.795609 -3 0 -3 
C -0.795609 -3 -1.55874 -2.683901 -2.12132 -2.12132 
C -2.683901 -1.55874 -3 -0.795609 -3 0 
C -3 0.795609 -2.683901 1.55874 -2.12132 2.12132 
C -1.55874 2.683901 -0.795609 3 0 3 
z
" style="stroke: #a96b59"/>
    </defs>
    <g clip-path="url(#p7ca5ea7c3b)">
     <use xlink:href="#m5f293298b3" x="230.093631" y="142.519218" style="fill: #a96b59; stroke: #a96b59"/>
     <use xlink:href="#m5f293298b3" x="241.926613" y="147.630047" style="fill: #a96b59; stroke: #a96b59"/>
     <use xlink:href="#m5f293298b3" x="211.49069" y="133.239976" style="fill: #a96b59; stroke: #a96b59"/>
     <use xlink:href="#m5f293298b3" x="216.759752" y="148.902725" style="fill: #a96b59; stroke: #a96b59"/>
     <use xlink:href="#m5f293298b3" x="211.216089" y="126.0985" style="fill: #a96b59; stroke: #a96b59"/>
     <use xlink:href="#m5f293298b3" x="202.252048" y="144.685315" style="fill: #a96b59; stroke: #a96b59"/>
     <use xlink:href="#m5f293298b3" x="209.706417" y="147.630047" style="fill: #a96b59; stroke: #a96b59"/>
     <use xlink:href="#m5f293298b3" x="216.083203" y="148.902725" style="fill: #a96b59; stroke: #a96b59"/>
     <use xlink:href="#m5f293298b3" x="198.014528" y="152.250272" style="fill: #a96b59; stroke: #a96b59"/>
     <use xlink:href="#m5f293298b3" x="207.193806" y="144.685315" style="fill: #a96b59; stroke: #a96b59"/>
    </g>
   </g>
   <g id="PathCollection_7">
    <defs>
     <path id="mbdf7de566b" d="M 0 3 
C 0.795609 3 1.55874 2.683901 2.12132 2.12132 
C 2.683901 1.55874 3 0.795609 3 0 
C 3 -0.795609 2.683901 -1.55874 2.12132 -2.12132 
C 1.55874 -2.683901 0.795609 -3 0 -3 
C -0.795609 -3 -1.55874 -2.683901 -2.12132 -2.12132 
C -2.683901 -1.55874 -3 -0.795609 -3 0 
C -3 0.795609 -2.683901 1.55874 -2.12132 2.12132 
C -1.55874 2.683901 -0.795609 3 0 3 
z
" style="stroke: #e76300"/>
    </defs>
    <g clip-path="url(#p7ca5ea7c3b)">
     <use xlink:href="#mbdf7de566b" x="78.114038" y="136.676756" style="fill: #e76300; stroke: #e76300"/>
     <use xlink:href="#mbdf7de566b" x="71.184009" y="118.447091" style="fill: #e76300; stroke: #e76300"/>
     <use xlink:href="#mbdf7de566b" x="86.909995" y="146.843159" style="fill: #e76300; stroke: #e76300"/>
     <use xlink:href="#mbdf7de566b" x="82.675013" y="118.447091" style="fill: #e76300; stroke: #e76300"/>
     <use xlink:href="#mbdf7de566b" x="84.915215" y="118.447091" style="fill: #e76300; stroke: #e76300"/>
    </g>
   </g>
   <g id="PathCollection_8">
    <defs>
     <path id="ma225b99a6b" d="M 0 3 
C 0.795609 3 1.55874 2.683901 2.12132 2.12132 
C 2.683901 1.55874 3 0.795609 3 0 
C 3 -0.795609 2.683901 -1.55874 2.12132 -2.12132 
C 1.55874 -2.683901 0.795609 -3 0 -3 
C -0.795609 -3 -1.55874 -2.683901 -2.12132 -2.12132 
C -2.683901 -1.55874 -3 -0.795609 -3 0 
C -3 0.795609 -2.683901 1.55874 -2.12132 2.12132 
C -1.55874 2.683901 -0.795609 3 0 3 
z
" style="stroke: #b9ac70"/>
    </defs>
    <g clip-path="url(#p7ca5ea7c3b)">
     <use xlink:href="#ma225b99a6b" x="120.350799" y="135.267508" style="fill: #b9ac70; stroke: #b9ac70"/>
     <use xlink:href="#ma225b99a6b" x="123.03055" y="156.03217" style="fill: #b9ac70; stroke: #b9ac70"/>
     <use xlink:href="#ma225b99a6b" x="152.02678" y="147.748841" style="fill: #b9ac70; stroke: #b9ac70"/>
     <use xlink:href="#ma225b99a6b" x="131.038356" y="137.631205" style="fill: #b9ac70; stroke: #b9ac70"/>
     <use xlink:href="#ma225b99a6b" x="160.781937" y="118.447091" style="fill: #b9ac70; stroke: #b9ac70"/>
     <use xlink:href="#ma225b99a6b" x="154.992001" y="142.393168" style="fill: #b9ac70; stroke: #b9ac70"/>
     <use xlink:href="#ma225b99a6b" x="163.211421" y="131.979101" style="fill: #b9ac70; stroke: #b9ac70"/>
     <use xlink:href="#ma225b99a6b" x="184.103372" y="168.051781" style="fill: #b9ac70; stroke: #b9ac70"/>
     <use xlink:href="#ma225b99a6b" x="172.634821" y="118.447091" style="fill: #b9ac70; stroke: #b9ac70"/>
    </g>
   </g>
   <g id="PathCollection_9">
    <defs>
     <path id="me2a84324c2" d="M 0 3 
C 0.795609 3 1.55874 2.683901 2.12132 2.12132 
C 2.683901 1.55874 3 0.795609 3 0 
C 3 -0.795609 2.683901 -1.55874 2.12132 -2.12132 
C 1.55874 -2.683901 0.795609 -3 0 -3 
C -0.795609 -3 -1.55874 -2.683901 -2.12132 -2.12132 
C -2.683901 -1.55874 -3 -0.795609 -3 0 
C -3 0.795609 -2.683901 1.55874 -2.12132 2.12132 
C -1.55874 2.683901 -0.795609 3 0 3 
z
" style="stroke: #717581"/>
    </defs>
    <g clip-path="url(#p7ca5ea7c3b)">
     <use xlink:href="#me2a84324c2" x="120.046057" y="156.747576" style="fill: #717581; stroke: #717581"/>
     <use xlink:href="#me2a84324c2" x="124.006894" y="165.961379" style="fill: #717581; stroke: #717581"/>
     <use xlink:href="#me2a84324c2" x="126.615324" y="173.63569" style="fill: #717581; stroke: #717581"/>
     <use xlink:href="#me2a84324c2" x="129.726383" y="171.260568" style="fill: #717581; stroke: #717581"/>
     <use xlink:href="#me2a84324c2" x="173.152459" y="157.649132" style="fill: #717581; stroke: #717581"/>
     <use xlink:href="#me2a84324c2" x="145.369614" y="150.727831" style="fill: #717581; stroke: #717581"/>
    </g>
   </g>
   <g id="PathCollection_10">
    <defs>
     <path id="m6d3b5b2371" d="M 0 3 
C 0.795609 3 1.55874 2.683901 2.12132 2.12132 
C 2.683901 1.55874 3 0.795609 3 0 
C 3 -0.795609 2.683901 -1.55874 2.12132 -2.12132 
C 1.55874 -2.683901 0.795609 -3 0 -3 
C -0.795609 -3 -1.55874 -2.683901 -2.12132 -2.12132 
C -2.683901 -1.55874 -3 -0.795609 -3 0 
C -3 0.795609 -2.683901 1.55874 -2.12132 2.12132 
C -1.55874 2.683901 -0.795609 3 0 3 
z
" style="stroke: #92dadd"/>
    </defs>
    <g clip-path="url(#p7ca5ea7c3b)">
     <use xlink:href="#m6d3b5b2371" x="114.09491" y="142.783796" style="fill: #92dadd; stroke: #92dadd"/>
     <use xlink:href="#m6d3b5b2371" x="107.117986" y="157.972941" style="fill: #92dadd; stroke: #92dadd"/>
     <use xlink:href="#m6d3b5b2371" x="124.097114" y="140.882699" style="fill: #92dadd; stroke: #92dadd"/>
     <use xlink:href="#m6d3b5b2371" x="133.414185" y="154.196411" style="fill: #92dadd; stroke: #92dadd"/>
     <use xlink:href="#m6d3b5b2371" x="95.630406" y="152.291656" style="fill: #92dadd; stroke: #92dadd"/>
     <use xlink:href="#m6d3b5b2371" x="167.356987" y="171.260568" style="fill: #92dadd; stroke: #92dadd"/>
    </g>
   </g>
   <g id="PathCollection_11">
    <defs>
     <path id="m78d1eb7983" d="M 0 -3 
L -3 3 
L 3 3 
z
" style="stroke: #3f90da"/>
    </defs>
    <g clip-path="url(#p7ca5ea7c3b)">
     <use xlink:href="#m78d1eb7983" x="180.948631" y="128.596196" style="fill: #3f90da; stroke: #3f90da"/>
     <use xlink:href="#m78d1eb7983" x="276.648308" y="149.926912" style="fill: #3f90da; stroke: #3f90da"/>
     <use xlink:href="#m78d1eb7983" x="230.270311" y="143.249144" style="fill: #3f90da; stroke: #3f90da"/>
     <use xlink:href="#m78d1eb7983" x="218.531958" y="160.917673" style="fill: #3f90da; stroke: #3f90da"/>
     <use xlink:href="#m78d1eb7983" x="226.929125" y="177.8531" style="fill: #3f90da; stroke: #3f90da"/>
    </g>
   </g>
   <g id="PathCollection_12">
    <defs>
     <path id="m7a5f08b751" d="M 0 -3 
L -3 3 
L 3 3 
z
" style="stroke: #ffa90e"/>
    </defs>
    <g clip-path="url(#p7ca5ea7c3b)">
     <use xlink:href="#m7a5f08b751" x="238.767169" y="171.260568" style="fill: #ffa90e; stroke: #ffa90e"/>
     <use xlink:href="#m7a5f08b751" x="223.155464" y="176.983237" style="fill: #ffa90e; stroke: #ffa90e"/>
     <use xlink:href="#m7a5f08b751" x="216.377075" y="176.983237" style="fill: #ffa90e; stroke: #ffa90e"/>
     <use xlink:href="#m7a5f08b751" x="227.064904" y="173.63569" style="fill: #ffa90e; stroke: #ffa90e"/>
     <use xlink:href="#m7a5f08b751" x="231.079008" y="173.63569" style="fill: #ffa90e; stroke: #ffa90e"/>
     <use xlink:href="#m7a5f08b751" x="211.404304" y="173.63569" style="fill: #ffa90e; stroke: #ffa90e"/>
    </g>
   </g>
   <g id="PathCollection_13">
    <defs>
     <path id="m2f7971c826" d="M 0 -3 
L -3 3 
L 3 3 
z
" style="stroke: #bd1f01"/>
    </defs>
    <g clip-path="url(#p7ca5ea7c3b)">
     <use xlink:href="#m2f7971c826" x="216.473373" y="132.267551" style="fill: #bd1f01; stroke: #bd1f01"/>
     <use xlink:href="#m2f7971c826" x="212.677941" y="147.991684" style="fill: #bd1f01; stroke: #bd1f01"/>
     <use xlink:href="#m2f7971c826" x="236.674891" y="112.387392" style="fill: #bd1f01; stroke: #bd1f01"/>
     <use xlink:href="#m2f7971c826" x="237.687342" y="125.675019" style="fill: #bd1f01; stroke: #bd1f01"/>
     <use xlink:href="#m2f7971c826" x="239.330692" y="117.969264" style="fill: #bd1f01; stroke: #bd1f01"/>
     <use xlink:href="#m2f7971c826" x="213.676714" y="140.207849" style="fill: #bd1f01; stroke: #bd1f01"/>
     <use xlink:href="#m2f7971c826" x="208.885947" y="162.190352" style="fill: #bd1f01; stroke: #bd1f01"/>
     <use xlink:href="#m2f7971c826" x="244.378679" y="149.472335" style="fill: #bd1f01; stroke: #bd1f01"/>
     <use xlink:href="#m2f7971c826" x="199.643457" y="137.596147" style="fill: #bd1f01; stroke: #bd1f01"/>
     <use xlink:href="#m2f7971c826" x="213.944089" y="152.046408" style="fill: #bd1f01; stroke: #bd1f01"/>
     <use xlink:href="#m2f7971c826" x="208.741194" y="155.806844" style="fill: #bd1f01; stroke: #bd1f01"/>
     <use xlink:href="#m2f7971c826" x="226.773988" y="125.675019" style="fill: #bd1f01; stroke: #bd1f01"/>
     <use xlink:href="#m2f7971c826" x="229.22392" y="139.429694" style="fill: #bd1f01; stroke: #bd1f01"/>
     <use xlink:href="#m2f7971c826" x="203.759095" y="149.182618" style="fill: #bd1f01; stroke: #bd1f01"/>
     <use xlink:href="#m2f7971c826" x="215.771635" y="146.124788" style="fill: #bd1f01; stroke: #bd1f01"/>
     <use xlink:href="#m2f7971c826" x="198.368923" y="149.621097" style="fill: #bd1f01; stroke: #bd1f01"/>
     <use xlink:href="#m2f7971c826" x="222.779661" y="143.318816" style="fill: #bd1f01; stroke: #bd1f01"/>
     <use xlink:href="#m2f7971c826" x="209.946608" y="130.994873" style="fill: #bd1f01; stroke: #bd1f01"/>
    </g>
   </g>
   <g id="PathCollection_14">
    <defs>
     <path id="m4fe48d8f13" d="M 0 -3 
L -3 3 
L 3 3 
z
" style="stroke: #94a4a2"/>
    </defs>
    <g clip-path="url(#p7ca5ea7c3b)">
     <use xlink:href="#m4fe48d8f13" x="220.210201" y="123.865821" style="fill: #94a4a2; stroke: #94a4a2"/>
     <use xlink:href="#m4fe48d8f13" x="214.916594" y="143.389081" style="fill: #94a4a2; stroke: #94a4a2"/>
     <use xlink:href="#m4fe48d8f13" x="247.315295" y="119.772685" style="fill: #94a4a2; stroke: #94a4a2"/>
     <use xlink:href="#m4fe48d8f13" x="233.595609" y="128.216936" style="fill: #94a4a2; stroke: #94a4a2"/>
     <use xlink:href="#m4fe48d8f13" x="227.705674" y="120.259333" style="fill: #94a4a2; stroke: #94a4a2"/>
     <use xlink:href="#m4fe48d8f13" x="218.028848" y="138.213371" style="fill: #94a4a2; stroke: #94a4a2"/>
     <use xlink:href="#m4fe48d8f13" x="217.877934" y="159.815229" style="fill: #94a4a2; stroke: #94a4a2"/>
     <use xlink:href="#m4fe48d8f13" x="227.491103" y="140.402118" style="fill: #94a4a2; stroke: #94a4a2"/>
     <use xlink:href="#m4fe48d8f13" x="198.223132" y="140.304412" style="fill: #94a4a2; stroke: #94a4a2"/>
     <use xlink:href="#m4fe48d8f13" x="213.317883" y="155.806844" style="fill: #94a4a2; stroke: #94a4a2"/>
     <use xlink:href="#m4fe48d8f13" x="210.519849" y="159.815229" style="fill: #94a4a2; stroke: #94a4a2"/>
     <use xlink:href="#m4fe48d8f13" x="220.72058" y="112.387392" style="fill: #94a4a2; stroke: #94a4a2"/>
     <use xlink:href="#m4fe48d8f13" x="208.839211" y="129.43736" style="fill: #94a4a2; stroke: #94a4a2"/>
     <use xlink:href="#m4fe48d8f13" x="208.251507" y="156.130653" style="fill: #94a4a2; stroke: #94a4a2"/>
     <use xlink:href="#m4fe48d8f13" x="224.784563" y="140.402118" style="fill: #94a4a2; stroke: #94a4a2"/>
     <use xlink:href="#m4fe48d8f13" x="172.235888" y="153.838507" style="fill: #94a4a2; stroke: #94a4a2"/>
     <use xlink:href="#m4fe48d8f13" x="213.787438" y="146.736628" style="fill: #94a4a2; stroke: #94a4a2"/>
     <use xlink:href="#m4fe48d8f13" x="188.672338" y="143.318816" style="fill: #94a4a2; stroke: #94a4a2"/>
    </g>
   </g>
   <g id="PathCollection_15">
    <defs>
     <path id="m2efe8db4b8" d="M 0 -3 
L -3 3 
L 3 3 
z
" style="stroke: #832db6"/>
    </defs>
    <g clip-path="url(#p7ca5ea7c3b)">
     <use xlink:href="#m2efe8db4b8" x="179.873939" y="129.5554" style="fill: #832db6; stroke: #832db6"/>
     <use xlink:href="#m2efe8db4b8" x="157.692481" y="143.459949" style="fill: #832db6; stroke: #832db6"/>
     <use xlink:href="#m2efe8db4b8" x="177.320868" y="149.926912" style="fill: #832db6; stroke: #832db6"/>
     <use xlink:href="#m2efe8db4b8" x="173.699532" y="126.363423" style="fill: #832db6; stroke: #832db6"/>
     <use xlink:href="#m2efe8db4b8" x="169.206619" y="126.408415" style="fill: #832db6; stroke: #832db6"/>
     <use xlink:href="#m2efe8db4b8" x="145.631509" y="123.899045" style="fill: #832db6; stroke: #832db6"/>
    </g>
   </g>
   <g id="PolyCollection_1">
    <defs>
     <path id="m23dda8f446" d="M 55.478 -61.083111 
L 55.478 -33.562889 
L 63.331004 -40.442945 
L 71.184009 -47.323 
L 79.037013 -54.203055 
L 86.890018 -61.083111 
L 94.743022 -67.963166 
L 102.596026 -74.843222 
L 110.449031 -81.723277 
L 118.302035 -88.603333 
L 126.15504 -95.483388 
L 134.008044 -102.363444 
L 141.861048 -109.243499 
L 149.714053 -116.123555 
L 157.567057 -123.00361 
L 165.420062 -129.883666 
L 173.273066 -136.763721 
L 181.12607 -143.643777 
L 188.979075 -150.523832 
L 196.832079 -157.403888 
L 204.685084 -164.283943 
L 212.538088 -171.163999 
L 220.391092 -178.044054 
L 228.244097 -184.92411 
L 236.097101 -191.804165 
L 243.950106 -198.684221 
L 251.80311 -205.564276 
L 259.656114 -212.444332 
L 267.509119 -219.324387 
L 275.362123 -226.204443 
L 283.215128 -233.084498 
L 291.068132 -239.964554 
L 298.921136 -246.844609 
L 306.774141 -253.724665 
L 306.774141 -281.244887 
L 306.774141 -281.244887 
L 298.921136 -274.364831 
L 291.068132 -267.484776 
L 283.215128 -260.60472 
L 275.362123 -253.724665 
L 267.509119 -246.844609 
L 259.656114 -239.964554 
L 251.80311 -233.084498 
L 243.950106 -226.204443 
L 236.097101 -219.324387 
L 228.244097 -212.444332 
L 220.391092 -205.564276 
L 212.538088 -198.684221 
L 204.685084 -191.804165 
L 196.832079 -184.92411 
L 188.979075 -178.044054 
L 181.12607 -171.163999 
L 173.273066 -164.283943 
L 165.420062 -157.403888 
L 157.567057 -150.523832 
L 149.714053 -143.643777 
L 141.861048 -136.763721 
L 134.008044 -129.883666 
L 126.15504 -123.00361 
L 118.302035 -116.123555 
L 110.449031 -109.243499 
L 102.596026 -102.363444 
L 94.743022 -95.483388 
L 86.890018 -88.603333 
L 79.037013 -81.723277 
L 71.184009 -74.843222 
L 63.331004 -67.963166 
L 55.478 -61.083111 
z
" style="stroke: #808080; stroke-opacity: 0.2"/>
    </defs>
    <g clip-path="url(#p7ca5ea7c3b)">
     <use xlink:href="#m23dda8f446" x="0" y="313.2" style="fill: #808080; fill-opacity: 0.2; stroke: #808080; stroke-opacity: 0.2"/>
    </g>
   </g>
   <g id="matplotlib.axis_1">
    <g id="xtick_1">
     <g id="line2d_1">
      <path d="M 62.990524 265.877 
L 62.990524 47.323 
" clip-path="url(#p7ca5ea7c3b)" style="fill: none; stroke: #b0b0b0; stroke-width: 0.8; stroke-linecap: square"/>
     </g>
     <g id="line2d_2">
      <defs>
       <path id="mcdc0848c38" d="M 0 0 
L 0 3.5 
" style="stroke: #000000; stroke-width: 0.8"/>
      </defs>
      <g>
       <use xlink:href="#mcdc0848c38" x="62.990524" y="265.877" style="stroke: #000000; stroke-width: 0.8"/>
      </g>
     </g>
     <g id="text_1">
      <!-- −18 -->
      <g transform="translate(52.43818 280.475437) scale(0.1 -0.1)">
       <defs>
        <path id="DejaVuSans-2212" d="M 678 2272 
L 4684 2272 
L 4684 1741 
L 678 1741 
L 678 2272 
z
" transform="scale(0.015625)"/>
        <path id="DejaVuSans-31" d="M 794 531 
L 1825 531 
L 1825 4091 
L 703 3866 
L 703 4441 
L 1819 4666 
L 2450 4666 
L 2450 531 
L 3481 531 
L 3481 0 
L 794 0 
L 794 531 
z
" transform="scale(0.015625)"/>
        <path id="DejaVuSans-38" d="M 2034 2216 
Q 1584 2216 1326 1975 
Q 1069 1734 1069 1313 
Q 1069 891 1326 650 
Q 1584 409 2034 409 
Q 2484 409 2743 651 
Q 3003 894 3003 1313 
Q 3003 1734 2745 1975 
Q 2488 2216 2034 2216 
z
M 1403 2484 
Q 997 2584 770 2862 
Q 544 3141 544 3541 
Q 544 4100 942 4425 
Q 1341 4750 2034 4750 
Q 2731 4750 3128 4425 
Q 3525 4100 3525 3541 
Q 3525 3141 3298 2862 
Q 3072 2584 2669 2484 
Q 3125 2378 3379 2068 
Q 3634 1759 3634 1313 
Q 3634 634 3220 271 
Q 2806 -91 2034 -91 
Q 1263 -91 848 271 
Q 434 634 434 1313 
Q 434 1759 690 2068 
Q 947 2378 1403 2484 
z
M 1172 3481 
Q 1172 3119 1398 2916 
Q 1625 2713 2034 2713 
Q 2441 2713 2670 2916 
Q 2900 3119 2900 3481 
Q 2900 3844 2670 4047 
Q 2441 4250 2034 4250 
Q 1625 4250 1398 4047 
Q 1172 3844 1172 3481 
z
" transform="scale(0.015625)"/>
       </defs>
       <use xlink:href="#DejaVuSans-2212"/>
       <use xlink:href="#DejaVuSans-31" x="83.789062"/>
       <use xlink:href="#DejaVuSans-38" x="147.412109"/>
      </g>
     </g>
    </g>
    <g id="xtick_2">
     <g id="line2d_3">
      <path d="M 94.402541 265.877 
L 94.402541 47.323 
" clip-path="url(#p7ca5ea7c3b)" style="fill: none; stroke: #b0b0b0; stroke-width: 0.8; stroke-linecap: square"/>
     </g>
     <g id="line2d_4">
      <g>
       <use xlink:href="#mcdc0848c38" x="94.402541" y="265.877" style="stroke: #000000; stroke-width: 0.8"/>
      </g>
     </g>
     <g id="text_2">
      <!-- −16 -->
      <g transform="translate(83.850198 280.475437) scale(0.1 -0.1)">
       <defs>
        <path id="DejaVuSans-36" d="M 2113 2584 
Q 1688 2584 1439 2293 
Q 1191 2003 1191 1497 
Q 1191 994 1439 701 
Q 1688 409 2113 409 
Q 2538 409 2786 701 
Q 3034 994 3034 1497 
Q 3034 2003 2786 2293 
Q 2538 2584 2113 2584 
z
M 3366 4563 
L 3366 3988 
Q 3128 4100 2886 4159 
Q 2644 4219 2406 4219 
Q 1781 4219 1451 3797 
Q 1122 3375 1075 2522 
Q 1259 2794 1537 2939 
Q 1816 3084 2150 3084 
Q 2853 3084 3261 2657 
Q 3669 2231 3669 1497 
Q 3669 778 3244 343 
Q 2819 -91 2113 -91 
Q 1303 -91 875 529 
Q 447 1150 447 2328 
Q 447 3434 972 4092 
Q 1497 4750 2381 4750 
Q 2619 4750 2861 4703 
Q 3103 4656 3366 4563 
z
" transform="scale(0.015625)"/>
       </defs>
       <use xlink:href="#DejaVuSans-2212"/>
       <use xlink:href="#DejaVuSans-31" x="83.789062"/>
       <use xlink:href="#DejaVuSans-36" x="147.412109"/>
      </g>
     </g>
    </g>
    <g id="xtick_3">
     <g id="line2d_5">
      <path d="M 125.814559 265.877 
L 125.814559 47.323 
" clip-path="url(#p7ca5ea7c3b)" style="fill: none; stroke: #b0b0b0; stroke-width: 0.8; stroke-linecap: square"/>
     </g>
     <g id="line2d_6">
      <g>
       <use xlink:href="#mcdc0848c38" x="125.814559" y="265.877" style="stroke: #000000; stroke-width: 0.8"/>
      </g>
     </g>
     <g id="text_3">
      <!-- −14 -->
      <g transform="translate(115.262215 280.475437) scale(0.1 -0.1)">
       <defs>
        <path id="DejaVuSans-34" d="M 2419 4116 
L 825 1625 
L 2419 1625 
L 2419 4116 
z
M 2253 4666 
L 3047 4666 
L 3047 1625 
L 3713 1625 
L 3713 1100 
L 3047 1100 
L 3047 0 
L 2419 0 
L 2419 1100 
L 313 1100 
L 313 1709 
L 2253 4666 
z
" transform="scale(0.015625)"/>
       </defs>
       <use xlink:href="#DejaVuSans-2212"/>
       <use xlink:href="#DejaVuSans-31" x="83.789062"/>
       <use xlink:href="#DejaVuSans-34" x="147.412109"/>
      </g>
     </g>
    </g>
    <g id="xtick_4">
     <g id="line2d_7">
      <path d="M 157.226576 265.877 
L 157.226576 47.323 
" clip-path="url(#p7ca5ea7c3b)" style="fill: none; stroke: #b0b0b0; stroke-width: 0.8; stroke-linecap: square"/>
     </g>
     <g id="line2d_8">
      <g>
       <use xlink:href="#mcdc0848c38" x="157.226576" y="265.877" style="stroke: #000000; stroke-width: 0.8"/>
      </g>
     </g>
     <g id="text_4">
      <!-- −12 -->
      <g transform="translate(146.674233 280.475437) scale(0.1 -0.1)">
       <defs>
        <path id="DejaVuSans-32" d="M 1228 531 
L 3431 531 
L 3431 0 
L 469 0 
L 469 531 
Q 828 903 1448 1529 
Q 2069 2156 2228 2338 
Q 2531 2678 2651 2914 
Q 2772 3150 2772 3378 
Q 2772 3750 2511 3984 
Q 2250 4219 1831 4219 
Q 1534 4219 1204 4116 
Q 875 4013 500 3803 
L 500 4441 
Q 881 4594 1212 4672 
Q 1544 4750 1819 4750 
Q 2544 4750 2975 4387 
Q 3406 4025 3406 3419 
Q 3406 3131 3298 2873 
Q 3191 2616 2906 2266 
Q 2828 2175 2409 1742 
Q 1991 1309 1228 531 
z
" transform="scale(0.015625)"/>
       </defs>
       <use xlink:href="#DejaVuSans-2212"/>
       <use xlink:href="#DejaVuSans-31" x="83.789062"/>
       <use xlink:href="#DejaVuSans-32" x="147.412109"/>
      </g>
     </g>
    </g>
    <g id="xtick_5">
     <g id="line2d_9">
      <path d="M 188.638594 265.877 
L 188.638594 47.323 
" clip-path="url(#p7ca5ea7c3b)" style="fill: none; stroke: #b0b0b0; stroke-width: 0.8; stroke-linecap: square"/>
     </g>
     <g id="line2d_10">
      <g>
       <use xlink:href="#mcdc0848c38" x="188.638594" y="265.877" style="stroke: #000000; stroke-width: 0.8"/>
      </g>
     </g>
     <g id="text_5">
      <!-- −10 -->
      <g transform="translate(178.08625 280.475437) scale(0.1 -0.1)">
       <defs>
        <path id="DejaVuSans-30" d="M 2034 4250 
Q 1547 4250 1301 3770 
Q 1056 3291 1056 2328 
Q 1056 1369 1301 889 
Q 1547 409 2034 409 
Q 2525 409 2770 889 
Q 3016 1369 3016 2328 
Q 3016 3291 2770 3770 
Q 2525 4250 2034 4250 
z
M 2034 4750 
Q 2819 4750 3233 4129 
Q 3647 3509 3647 2328 
Q 3647 1150 3233 529 
Q 2819 -91 2034 -91 
Q 1250 -91 836 529 
Q 422 1150 422 2328 
Q 422 3509 836 4129 
Q 1250 4750 2034 4750 
z
" transform="scale(0.015625)"/>
       </defs>
       <use xlink:href="#DejaVuSans-2212"/>
       <use xlink:href="#DejaVuSans-31" x="83.789062"/>
       <use xlink:href="#DejaVuSans-30" x="147.412109"/>
      </g>
     </g>
    </g>
    <g id="xtick_6">
     <g id="line2d_11">
      <path d="M 220.050612 265.877 
L 220.050612 47.323 
" clip-path="url(#p7ca5ea7c3b)" style="fill: none; stroke: #b0b0b0; stroke-width: 0.8; stroke-linecap: square"/>
     </g>
     <g id="line2d_12">
      <g>
       <use xlink:href="#mcdc0848c38" x="220.050612" y="265.877" style="stroke: #000000; stroke-width: 0.8"/>
      </g>
     </g>
     <g id="text_6">
      <!-- −8 -->
      <g transform="translate(212.679518 280.475437) scale(0.1 -0.1)">
       <use xlink:href="#DejaVuSans-2212"/>
       <use xlink:href="#DejaVuSans-38" x="83.789062"/>
      </g>
     </g>
    </g>
    <g id="xtick_7">
     <g id="line2d_13">
      <path d="M 251.462629 265.877 
L 251.462629 47.323 
" clip-path="url(#p7ca5ea7c3b)" style="fill: none; stroke: #b0b0b0; stroke-width: 0.8; stroke-linecap: square"/>
     </g>
     <g id="line2d_14">
      <g>
       <use xlink:href="#mcdc0848c38" x="251.462629" y="265.877" style="stroke: #000000; stroke-width: 0.8"/>
      </g>
     </g>
     <g id="text_7">
      <!-- −6 -->
      <g transform="translate(244.091536 280.475437) scale(0.1 -0.1)">
       <use xlink:href="#DejaVuSans-2212"/>
       <use xlink:href="#DejaVuSans-36" x="83.789062"/>
      </g>
     </g>
    </g>
    <g id="xtick_8">
     <g id="line2d_15">
      <path d="M 282.874647 265.877 
L 282.874647 47.323 
" clip-path="url(#p7ca5ea7c3b)" style="fill: none; stroke: #b0b0b0; stroke-width: 0.8; stroke-linecap: square"/>
     </g>
     <g id="line2d_16">
      <g>
       <use xlink:href="#mcdc0848c38" x="282.874647" y="265.877" style="stroke: #000000; stroke-width: 0.8"/>
      </g>
     </g>
     <g id="text_8">
      <!-- −4 -->
      <g transform="translate(275.503553 280.475437) scale(0.1 -0.1)">
       <use xlink:href="#DejaVuSans-2212"/>
       <use xlink:href="#DejaVuSans-34" x="83.789062"/>
      </g>
     </g>
    </g>
    <g id="text_9">
     <!-- Predicted (kcal/mol) -->
     <g transform="translate(123.195219 294.153562) scale(0.1 -0.1)">
      <defs>
       <path id="DejaVuSans-Bold-50" d="M 588 4666 
L 2584 4666 
Q 3475 4666 3951 4270 
Q 4428 3875 4428 3144 
Q 4428 2409 3951 2014 
Q 3475 1619 2584 1619 
L 1791 1619 
L 1791 0 
L 588 0 
L 588 4666 
z
M 1791 3794 
L 1791 2491 
L 2456 2491 
Q 2806 2491 2997 2661 
Q 3188 2831 3188 3144 
Q 3188 3456 2997 3625 
Q 2806 3794 2456 3794 
L 1791 3794 
z
" transform="scale(0.015625)"/>
       <path id="DejaVuSans-Bold-72" d="M 3138 2547 
Q 2991 2616 2845 2648 
Q 2700 2681 2553 2681 
Q 2122 2681 1889 2404 
Q 1656 2128 1656 1613 
L 1656 0 
L 538 0 
L 538 3500 
L 1656 3500 
L 1656 2925 
Q 1872 3269 2151 3426 
Q 2431 3584 2822 3584 
Q 2878 3584 2943 3579 
Q 3009 3575 3134 3559 
L 3138 2547 
z
" transform="scale(0.015625)"/>
       <path id="DejaVuSans-Bold-65" d="M 4031 1759 
L 4031 1441 
L 1416 1441 
Q 1456 1047 1700 850 
Q 1944 653 2381 653 
Q 2734 653 3104 758 
Q 3475 863 3866 1075 
L 3866 213 
Q 3469 63 3072 -14 
Q 2675 -91 2278 -91 
Q 1328 -91 801 392 
Q 275 875 275 1747 
Q 275 2603 792 3093 
Q 1309 3584 2216 3584 
Q 3041 3584 3536 3087 
Q 4031 2591 4031 1759 
z
M 2881 2131 
Q 2881 2450 2695 2645 
Q 2509 2841 2209 2841 
Q 1884 2841 1681 2658 
Q 1478 2475 1428 2131 
L 2881 2131 
z
" transform="scale(0.015625)"/>
       <path id="DejaVuSans-Bold-64" d="M 2919 2988 
L 2919 4863 
L 4044 4863 
L 4044 0 
L 2919 0 
L 2919 506 
Q 2688 197 2409 53 
Q 2131 -91 1766 -91 
Q 1119 -91 703 423 
Q 288 938 288 1747 
Q 288 2556 703 3070 
Q 1119 3584 1766 3584 
Q 2128 3584 2408 3439 
Q 2688 3294 2919 2988 
z
M 2181 722 
Q 2541 722 2730 984 
Q 2919 1247 2919 1747 
Q 2919 2247 2730 2509 
Q 2541 2772 2181 2772 
Q 1825 2772 1636 2509 
Q 1447 2247 1447 1747 
Q 1447 1247 1636 984 
Q 1825 722 2181 722 
z
" transform="scale(0.015625)"/>
       <path id="DejaVuSans-Bold-69" d="M 538 3500 
L 1656 3500 
L 1656 0 
L 538 0 
L 538 3500 
z
M 538 4863 
L 1656 4863 
L 1656 3950 
L 538 3950 
L 538 4863 
z
" transform="scale(0.015625)"/>
       <path id="DejaVuSans-Bold-63" d="M 3366 3391 
L 3366 2478 
Q 3138 2634 2908 2709 
Q 2678 2784 2431 2784 
Q 1963 2784 1702 2511 
Q 1441 2238 1441 1747 
Q 1441 1256 1702 982 
Q 1963 709 2431 709 
Q 2694 709 2930 787 
Q 3166 866 3366 1019 
L 3366 103 
Q 3103 6 2833 -42 
Q 2563 -91 2291 -91 
Q 1344 -91 809 395 
Q 275 881 275 1747 
Q 275 2613 809 3098 
Q 1344 3584 2291 3584 
Q 2566 3584 2833 3536 
Q 3100 3488 3366 3391 
z
" transform="scale(0.015625)"/>
       <path id="DejaVuSans-Bold-74" d="M 1759 4494 
L 1759 3500 
L 2913 3500 
L 2913 2700 
L 1759 2700 
L 1759 1216 
Q 1759 972 1856 886 
Q 1953 800 2241 800 
L 2816 800 
L 2816 0 
L 1856 0 
Q 1194 0 917 276 
Q 641 553 641 1216 
L 641 2700 
L 84 2700 
L 84 3500 
L 641 3500 
L 641 4494 
L 1759 4494 
z
" transform="scale(0.015625)"/>
       <path id="DejaVuSans-Bold-20" transform="scale(0.015625)"/>
       <path id="DejaVuSans-Bold-28" d="M 2413 -844 
L 1484 -844 
Q 1006 -72 778 623 
Q 550 1319 550 2003 
Q 550 2688 779 3389 
Q 1009 4091 1484 4856 
L 2413 4856 
Q 2013 4116 1813 3408 
Q 1613 2700 1613 2009 
Q 1613 1319 1811 609 
Q 2009 -100 2413 -844 
z
" transform="scale(0.015625)"/>
       <path id="DejaVuSans-Bold-6b" d="M 538 4863 
L 1656 4863 
L 1656 2216 
L 2944 3500 
L 4244 3500 
L 2534 1894 
L 4378 0 
L 3022 0 
L 1656 1459 
L 1656 0 
L 538 0 
L 538 4863 
z
" transform="scale(0.015625)"/>
       <path id="DejaVuSans-Bold-61" d="M 2106 1575 
Q 1756 1575 1579 1456 
Q 1403 1338 1403 1106 
Q 1403 894 1545 773 
Q 1688 653 1941 653 
Q 2256 653 2472 879 
Q 2688 1106 2688 1447 
L 2688 1575 
L 2106 1575 
z
M 3816 1997 
L 3816 0 
L 2688 0 
L 2688 519 
Q 2463 200 2181 54 
Q 1900 -91 1497 -91 
Q 953 -91 614 226 
Q 275 544 275 1050 
Q 275 1666 698 1953 
Q 1122 2241 2028 2241 
L 2688 2241 
L 2688 2328 
Q 2688 2594 2478 2717 
Q 2269 2841 1825 2841 
Q 1466 2841 1156 2769 
Q 847 2697 581 2553 
L 581 3406 
Q 941 3494 1303 3539 
Q 1666 3584 2028 3584 
Q 2975 3584 3395 3211 
Q 3816 2838 3816 1997 
z
" transform="scale(0.015625)"/>
       <path id="DejaVuSans-Bold-6c" d="M 538 4863 
L 1656 4863 
L 1656 0 
L 538 0 
L 538 4863 
z
" transform="scale(0.015625)"/>
       <path id="DejaVuSans-Bold-2f" d="M 1644 4666 
L 2338 4666 
L 691 -594 
L 0 -594 
L 1644 4666 
z
" transform="scale(0.015625)"/>
       <path id="DejaVuSans-Bold-6d" d="M 3781 2919 
Q 3994 3244 4286 3414 
Q 4578 3584 4928 3584 
Q 5531 3584 5847 3212 
Q 6163 2841 6163 2131 
L 6163 0 
L 5038 0 
L 5038 1825 
Q 5041 1866 5042 1909 
Q 5044 1953 5044 2034 
Q 5044 2406 4934 2573 
Q 4825 2741 4581 2741 
Q 4263 2741 4089 2478 
Q 3916 2216 3909 1719 
L 3909 0 
L 2784 0 
L 2784 1825 
Q 2784 2406 2684 2573 
Q 2584 2741 2328 2741 
Q 2006 2741 1831 2477 
Q 1656 2213 1656 1722 
L 1656 0 
L 531 0 
L 531 3500 
L 1656 3500 
L 1656 2988 
Q 1863 3284 2130 3434 
Q 2397 3584 2719 3584 
Q 3081 3584 3359 3409 
Q 3638 3234 3781 2919 
z
" transform="scale(0.015625)"/>
       <path id="DejaVuSans-Bold-6f" d="M 2203 2784 
Q 1831 2784 1636 2517 
Q 1441 2250 1441 1747 
Q 1441 1244 1636 976 
Q 1831 709 2203 709 
Q 2569 709 2762 976 
Q 2956 1244 2956 1747 
Q 2956 2250 2762 2517 
Q 2569 2784 2203 2784 
z
M 2203 3584 
Q 3106 3584 3614 3096 
Q 4122 2609 4122 1747 
Q 4122 884 3614 396 
Q 3106 -91 2203 -91 
Q 1297 -91 786 396 
Q 275 884 275 1747 
Q 275 2609 786 3096 
Q 1297 3584 2203 3584 
z
" transform="scale(0.015625)"/>
       <path id="DejaVuSans-Bold-29" d="M 513 -844 
Q 913 -100 1113 609 
Q 1313 1319 1313 2009 
Q 1313 2700 1113 3408 
Q 913 4116 513 4856 
L 1441 4856 
Q 1916 4091 2145 3389 
Q 2375 2688 2375 2003 
Q 2375 1319 2147 623 
Q 1919 -72 1441 -844 
L 513 -844 
z
" transform="scale(0.015625)"/>
      </defs>
      <use xlink:href="#DejaVuSans-Bold-50"/>
      <use xlink:href="#DejaVuSans-Bold-72" x="73.291016"/>
      <use xlink:href="#DejaVuSans-Bold-65" x="122.607422"/>
      <use xlink:href="#DejaVuSans-Bold-64" x="190.429688"/>
      <use xlink:href="#DejaVuSans-Bold-69" x="262.011719"/>
      <use xlink:href="#DejaVuSans-Bold-63" x="296.289062"/>
      <use xlink:href="#DejaVuSans-Bold-74" x="355.566406"/>
      <use xlink:href="#DejaVuSans-Bold-65" x="403.369141"/>
      <use xlink:href="#DejaVuSans-Bold-64" x="471.191406"/>
      <use xlink:href="#DejaVuSans-Bold-20" x="542.773438"/>
      <use xlink:href="#DejaVuSans-Bold-28" x="577.587891"/>
      <use xlink:href="#DejaVuSans-Bold-6b" x="623.291016"/>
      <use xlink:href="#DejaVuSans-Bold-63" x="689.794922"/>
      <use xlink:href="#DejaVuSans-Bold-61" x="749.072266"/>
      <use xlink:href="#DejaVuSans-Bold-6c" x="816.552734"/>
      <use xlink:href="#DejaVuSans-Bold-2f" x="850.830078"/>
      <use xlink:href="#DejaVuSans-Bold-6d" x="887.353516"/>
      <use xlink:href="#DejaVuSans-Bold-6f" x="991.552734"/>
      <use xlink:href="#DejaVuSans-Bold-6c" x="1060.253906"/>
      <use xlink:href="#DejaVuSans-Bold-29" x="1094.53125"/>
     </g>
    </g>
   </g>
   <g id="matplotlib.axis_2">
    <g id="ytick_1">
     <g id="line2d_17">
      <path d="M 55.478 259.295241 
L 304.939 259.295241 
" clip-path="url(#p7ca5ea7c3b)" style="fill: none; stroke: #b0b0b0; stroke-width: 0.8; stroke-linecap: square"/>
     </g>
     <g id="line2d_18">
      <defs>
       <path id="m4dafe9b97b" d="M 0 0 
L -3.5 0 
" style="stroke: #000000; stroke-width: 0.8"/>
      </defs>
      <g>
       <use xlink:href="#m4dafe9b97b" x="55.478" y="259.295241" style="stroke: #000000; stroke-width: 0.8"/>
      </g>
     </g>
     <g id="text_10">
      <!-- −18 -->
      <g transform="translate(27.373313 263.09446) scale(0.1 -0.1)">
       <use xlink:href="#DejaVuSans-2212"/>
       <use xlink:href="#DejaVuSans-31" x="83.789062"/>
       <use xlink:href="#DejaVuSans-38" x="147.412109"/>
      </g>
     </g>
    </g>
    <g id="ytick_2">
     <g id="line2d_19">
      <path d="M 55.478 231.775019 
L 304.939 231.775019 
" clip-path="url(#p7ca5ea7c3b)" style="fill: none; stroke: #b0b0b0; stroke-width: 0.8; stroke-linecap: square"/>
     </g>
     <g id="line2d_20">
      <g>
       <use xlink:href="#m4dafe9b97b" x="55.478" y="231.775019" style="stroke: #000000; stroke-width: 0.8"/>
      </g>
     </g>
     <g id="text_11">
      <!-- −16 -->
      <g transform="translate(27.373313 235.574238) scale(0.1 -0.1)">
       <use xlink:href="#DejaVuSans-2212"/>
       <use xlink:href="#DejaVuSans-31" x="83.789062"/>
       <use xlink:href="#DejaVuSans-36" x="147.412109"/>
      </g>
     </g>
    </g>
    <g id="ytick_3">
     <g id="line2d_21">
      <path d="M 55.478 204.254797 
L 304.939 204.254797 
" clip-path="url(#p7ca5ea7c3b)" style="fill: none; stroke: #b0b0b0; stroke-width: 0.8; stroke-linecap: square"/>
     </g>
     <g id="line2d_22">
      <g>
       <use xlink:href="#m4dafe9b97b" x="55.478" y="204.254797" style="stroke: #000000; stroke-width: 0.8"/>
      </g>
     </g>
     <g id="text_12">
      <!-- −14 -->
      <g transform="translate(27.373313 208.054016) scale(0.1 -0.1)">
       <use xlink:href="#DejaVuSans-2212"/>
       <use xlink:href="#DejaVuSans-31" x="83.789062"/>
       <use xlink:href="#DejaVuSans-34" x="147.412109"/>
      </g>
     </g>
    </g>
    <g id="ytick_4">
     <g id="line2d_23">
      <path d="M 55.478 176.734575 
L 304.939 176.734575 
" clip-path="url(#p7ca5ea7c3b)" style="fill: none; stroke: #b0b0b0; stroke-width: 0.8; stroke-linecap: square"/>
     </g>
     <g id="line2d_24">
      <g>
       <use xlink:href="#m4dafe9b97b" x="55.478" y="176.734575" style="stroke: #000000; stroke-width: 0.8"/>
      </g>
     </g>
     <g id="text_13">
      <!-- −12 -->
      <g transform="translate(27.373313 180.533794) scale(0.1 -0.1)">
       <use xlink:href="#DejaVuSans-2212"/>
       <use xlink:href="#DejaVuSans-31" x="83.789062"/>
       <use xlink:href="#DejaVuSans-32" x="147.412109"/>
      </g>
     </g>
    </g>
    <g id="ytick_5">
     <g id="line2d_25">
      <path d="M 55.478 149.214353 
L 304.939 149.214353 
" clip-path="url(#p7ca5ea7c3b)" style="fill: none; stroke: #b0b0b0; stroke-width: 0.8; stroke-linecap: square"/>
     </g>
     <g id="line2d_26">
      <g>
       <use xlink:href="#m4dafe9b97b" x="55.478" y="149.214353" style="stroke: #000000; stroke-width: 0.8"/>
      </g>
     </g>
     <g id="text_14">
      <!-- −10 -->
      <g transform="translate(27.373313 153.013572) scale(0.1 -0.1)">
       <use xlink:href="#DejaVuSans-2212"/>
       <use xlink:href="#DejaVuSans-31" x="83.789062"/>
       <use xlink:href="#DejaVuSans-30" x="147.412109"/>
      </g>
     </g>
    </g>
    <g id="ytick_6">
     <g id="line2d_27">
      <path d="M 55.478 121.694131 
L 304.939 121.694131 
" clip-path="url(#p7ca5ea7c3b)" style="fill: none; stroke: #b0b0b0; stroke-width: 0.8; stroke-linecap: square"/>
     </g>
     <g id="line2d_28">
      <g>
       <use xlink:href="#m4dafe9b97b" x="55.478" y="121.694131" style="stroke: #000000; stroke-width: 0.8"/>
      </g>
     </g>
     <g id="text_15">
      <!-- −8 -->
      <g transform="translate(33.735813 125.49335) scale(0.1 -0.1)">
       <use xlink:href="#DejaVuSans-2212"/>
       <use xlink:href="#DejaVuSans-38" x="83.789062"/>
      </g>
     </g>
    </g>
    <g id="ytick_7">
     <g id="line2d_29">
      <path d="M 55.478 94.173909 
L 304.939 94.173909 
" clip-path="url(#p7ca5ea7c3b)" style="fill: none; stroke: #b0b0b0; stroke-width: 0.8; stroke-linecap: square"/>
     </g>
     <g id="line2d_30">
      <g>
       <use xlink:href="#m4dafe9b97b" x="55.478" y="94.173909" style="stroke: #000000; stroke-width: 0.8"/>
      </g>
     </g>
     <g id="text_16">
      <!-- −6 -->
      <g transform="translate(33.735813 97.973128) scale(0.1 -0.1)">
       <use xlink:href="#DejaVuSans-2212"/>
       <use xlink:href="#DejaVuSans-36" x="83.789062"/>
      </g>
     </g>
    </g>
    <g id="ytick_8">
     <g id="line2d_31">
      <path d="M 55.478 66.653688 
L 304.939 66.653688 
" clip-path="url(#p7ca5ea7c3b)" style="fill: none; stroke: #b0b0b0; stroke-width: 0.8; stroke-linecap: square"/>
     </g>
     <g id="line2d_32">
      <g>
       <use xlink:href="#m4dafe9b97b" x="55.478" y="66.653688" style="stroke: #000000; stroke-width: 0.8"/>
      </g>
     </g>
     <g id="text_17">
      <!-- −4 -->
      <g transform="translate(33.735813 70.452906) scale(0.1 -0.1)">
       <use xlink:href="#DejaVuSans-2212"/>
       <use xlink:href="#DejaVuSans-34" x="83.789062"/>
      </g>
     </g>
    </g>
    <g id="text_18">
     <!-- RT$\bf{\cdot}$lnDC$\bf{_{50}}$ (kcal/mol) -->
     <g transform="translate(21.293625 213.8) rotate(-90) scale(0.1 -0.1)">
      <defs>
       <path id="DejaVuSans-Bold-52" d="M 2297 2597 
Q 2675 2597 2839 2737 
Q 3003 2878 3003 3200 
Q 3003 3519 2839 3656 
Q 2675 3794 2297 3794 
L 1791 3794 
L 1791 2597 
L 2297 2597 
z
M 1791 1766 
L 1791 0 
L 588 0 
L 588 4666 
L 2425 4666 
Q 3347 4666 3776 4356 
Q 4206 4047 4206 3378 
Q 4206 2916 3982 2619 
Q 3759 2322 3309 2181 
Q 3556 2125 3751 1926 
Q 3947 1728 4147 1325 
L 4800 0 
L 3519 0 
L 2950 1159 
Q 2778 1509 2601 1637 
Q 2425 1766 2131 1766 
L 1791 1766 
z
" transform="scale(0.015625)"/>
       <path id="DejaVuSans-Bold-54" d="M 31 4666 
L 4331 4666 
L 4331 3756 
L 2784 3756 
L 2784 0 
L 1581 0 
L 1581 3756 
L 31 3756 
L 31 4666 
z
" transform="scale(0.015625)"/>
       <path id="DejaVuSans-Bold-22c5" d="M 653 2828 
L 1778 2828 
L 1778 1619 
L 653 1619 
L 653 2828 
z
" transform="scale(0.015625)"/>
       <path id="DejaVuSans-Bold-6e" d="M 4056 2131 
L 4056 0 
L 2931 0 
L 2931 347 
L 2931 1631 
Q 2931 2084 2911 2256 
Q 2891 2428 2841 2509 
Q 2775 2619 2662 2680 
Q 2550 2741 2406 2741 
Q 2056 2741 1856 2470 
Q 1656 2200 1656 1722 
L 1656 0 
L 538 0 
L 538 3500 
L 1656 3500 
L 1656 2988 
Q 1909 3294 2193 3439 
Q 2478 3584 2822 3584 
Q 3428 3584 3742 3212 
Q 4056 2841 4056 2131 
z
" transform="scale(0.015625)"/>
       <path id="DejaVuSans-Bold-44" d="M 1791 3756 
L 1791 909 
L 2222 909 
Q 2959 909 3348 1275 
Q 3738 1641 3738 2338 
Q 3738 3031 3350 3393 
Q 2963 3756 2222 3756 
L 1791 3756 
z
M 588 4666 
L 1856 4666 
Q 2919 4666 3439 4514 
Q 3959 4363 4331 4000 
Q 4659 3684 4818 3271 
Q 4978 2859 4978 2338 
Q 4978 1809 4818 1395 
Q 4659 981 4331 666 
Q 3956 303 3431 151 
Q 2906 0 1856 0 
L 588 0 
L 588 4666 
z
" transform="scale(0.015625)"/>
       <path id="DejaVuSans-Bold-43" d="M 4288 256 
Q 3956 84 3597 -3 
Q 3238 -91 2847 -91 
Q 1681 -91 1000 561 
Q 319 1213 319 2328 
Q 319 3447 1000 4098 
Q 1681 4750 2847 4750 
Q 3238 4750 3597 4662 
Q 3956 4575 4288 4403 
L 4288 3438 
Q 3953 3666 3628 3772 
Q 3303 3878 2944 3878 
Q 2300 3878 1931 3465 
Q 1563 3053 1563 2328 
Q 1563 1606 1931 1193 
Q 2300 781 2944 781 
Q 3303 781 3628 887 
Q 3953 994 4288 1222 
L 4288 256 
z
" transform="scale(0.015625)"/>
       <path id="DejaVuSans-Bold-35" d="M 678 4666 
L 3669 4666 
L 3669 3781 
L 1638 3781 
L 1638 3059 
Q 1775 3097 1914 3117 
Q 2053 3138 2203 3138 
Q 3056 3138 3531 2711 
Q 4006 2284 4006 1522 
Q 4006 766 3489 337 
Q 2972 -91 2053 -91 
Q 1656 -91 1267 -14 
Q 878 63 494 219 
L 494 1166 
Q 875 947 1217 837 
Q 1559 728 1863 728 
Q 2300 728 2551 942 
Q 2803 1156 2803 1522 
Q 2803 1891 2551 2103 
Q 2300 2316 1863 2316 
Q 1603 2316 1309 2248 
Q 1016 2181 678 2041 
L 678 4666 
z
" transform="scale(0.015625)"/>
       <path id="DejaVuSans-Bold-30" d="M 2944 2338 
Q 2944 3213 2780 3570 
Q 2616 3928 2228 3928 
Q 1841 3928 1675 3570 
Q 1509 3213 1509 2338 
Q 1509 1453 1675 1090 
Q 1841 728 2228 728 
Q 2613 728 2778 1090 
Q 2944 1453 2944 2338 
z
M 4147 2328 
Q 4147 1169 3647 539 
Q 3147 -91 2228 -91 
Q 1306 -91 806 539 
Q 306 1169 306 2328 
Q 306 3491 806 4120 
Q 1306 4750 2228 4750 
Q 3147 4750 3647 4120 
Q 4147 3491 4147 2328 
z
" transform="scale(0.015625)"/>
      </defs>
      <use xlink:href="#DejaVuSans-Bold-52" transform="translate(0 0.015625)"/>
      <use xlink:href="#DejaVuSans-Bold-54" transform="translate(77.001953 0.015625)"/>
      <use xlink:href="#DejaVuSans-Bold-22c5" transform="translate(145.214844 0.015625)"/>
      <use xlink:href="#DejaVuSans-Bold-6c" transform="translate(183.203125 0.015625)"/>
      <use xlink:href="#DejaVuSans-Bold-6e" transform="translate(217.480469 0.015625)"/>
      <use xlink:href="#DejaVuSans-Bold-44" transform="translate(288.671875 0.015625)"/>
      <use xlink:href="#DejaVuSans-Bold-43" transform="translate(371.679688 0.015625)"/>
      <use xlink:href="#DejaVuSans-Bold-35" transform="translate(446.025391 -16.390625) scale(0.7)"/>
      <use xlink:href="#DejaVuSans-Bold-30" transform="translate(494.731445 -16.390625) scale(0.7)"/>
      <use xlink:href="#DejaVuSans-Bold-20" transform="translate(546.171875 0.015625)"/>
      <use xlink:href="#DejaVuSans-Bold-28" transform="translate(580.986328 0.015625)"/>
      <use xlink:href="#DejaVuSans-Bold-6b" transform="translate(626.689453 0.015625)"/>
      <use xlink:href="#DejaVuSans-Bold-63" transform="translate(693.193359 0.015625)"/>
      <use xlink:href="#DejaVuSans-Bold-61" transform="translate(752.470703 0.015625)"/>
      <use xlink:href="#DejaVuSans-Bold-6c" transform="translate(819.951172 0.015625)"/>
      <use xlink:href="#DejaVuSans-Bold-2f" transform="translate(854.228516 0.015625)"/>
      <use xlink:href="#DejaVuSans-Bold-6d" transform="translate(890.751953 0.015625)"/>
      <use xlink:href="#DejaVuSans-Bold-6f" transform="translate(994.951172 0.015625)"/>
      <use xlink:href="#DejaVuSans-Bold-6c" transform="translate(1063.652344 0.015625)"/>
      <use xlink:href="#DejaVuSans-Bold-29" transform="translate(1097.929688 0.015625)"/>
     </g>
    </g>
   </g>
   <g id="line2d_33">
    <path d="M 55.478 265.877 
L 63.331004 258.996945 
L 71.184009 252.116889 
L 79.037013 245.236834 
L 86.890018 238.356778 
L 94.743022 231.476723 
L 102.596026 224.596667 
L 110.449031 217.716612 
L 118.302035 210.836556 
L 126.15504 203.956501 
L 134.008044 197.076445 
L 141.861048 190.19639 
L 149.714053 183.316334 
L 157.567057 176.436279 
L 165.420062 169.556223 
L 173.273066 162.676168 
L 181.12607 155.796112 
L 188.979075 148.916057 
L 196.832079 142.036001 
L 204.685084 135.155946 
L 212.538088 128.27589 
L 220.391092 121.395835 
L 228.244097 114.515779 
L 236.097101 107.635724 
L 243.950106 100.755668 
L 251.80311 93.875613 
L 259.656114 86.995557 
L 267.509119 80.115502 
L 275.362123 73.235446 
L 283.215128 66.355391 
L 291.068132 59.475335 
L 298.921136 52.59528 
L 306.774141 45.715224 
" clip-path="url(#p7ca5ea7c3b)" style="fill: none; stroke-dasharray: 3.7,1.6; stroke-dashoffset: 0; stroke: #000000"/>
   </g>
   <g id="patch_3">
    <path d="M 55.478 265.877 
L 55.478 47.323 
" style="fill: none; stroke: #000000; stroke-width: 0.8; stroke-linejoin: miter; stroke-linecap: square"/>
   </g>
   <g id="patch_4">
    <path d="M 304.939 265.877 
L 304.939 47.323 
" style="fill: none; stroke: #000000; stroke-width: 0.8; stroke-linejoin: miter; stroke-linecap: square"/>
   </g>
   <g id="patch_5">
    <path d="M 55.478 265.877 
L 304.939 265.877 
" style="fill: none; stroke: #000000; stroke-width: 0.8; stroke-linejoin: miter; stroke-linecap: square"/>
   </g>
   <g id="patch_6">
    <path d="M 55.478 47.323 
L 304.939 47.323 
" style="fill: none; stroke: #000000; stroke-width: 0.8; stroke-linejoin: miter; stroke-linecap: square"/>
   </g>
  </g>
  <g id="axes_2">
   <g id="legend_1">
    <g id="patch_7">
     <path d="M 324.839 302.860156 
L 538.593531 302.860156 
Q 541.193531 302.860156 541.193531 300.260156 
L 541.193531 12.939844 
Q 541.193531 10.339844 538.593531 10.339844 
L 324.839 10.339844 
Q 322.239 10.339844 322.239 12.939844 
L 322.239 300.260156 
Q 322.239 302.860156 324.839 302.860156 
z
" style="fill: #ffffff; opacity: 0.8; stroke: #cccccc; stroke-linejoin: miter"/>
    </g>
    <g id="PathCollection_16">
     <g>
      <use xlink:href="#m3ee316daf6" x="340.439" y="22.005312" style="fill: #3f90da; stroke: #3f90da"/>
     </g>
    </g>
    <g id="text_19">
     <!-- VHL-BCL2 (r = 0.52) -->
     <g transform="translate(363.839 25.417812) scale(0.13 -0.13)">
      <defs>
       <path id="DejaVuSans-56" d="M 1831 0 
L 50 4666 
L 709 4666 
L 2188 738 
L 3669 4666 
L 4325 4666 
L 2547 0 
L 1831 0 
z
" transform="scale(0.015625)"/>
       <path id="DejaVuSans-48" d="M 628 4666 
L 1259 4666 
L 1259 2753 
L 3553 2753 
L 3553 4666 
L 4184 4666 
L 4184 0 
L 3553 0 
L 3553 2222 
L 1259 2222 
L 1259 0 
L 628 0 
L 628 4666 
z
" transform="scale(0.015625)"/>
       <path id="DejaVuSans-4c" d="M 628 4666 
L 1259 4666 
L 1259 531 
L 3531 531 
L 3531 0 
L 628 0 
L 628 4666 
z
" transform="scale(0.015625)"/>
       <path id="DejaVuSans-2d" d="M 313 2009 
L 1997 2009 
L 1997 1497 
L 313 1497 
L 313 2009 
z
" transform="scale(0.015625)"/>
       <path id="DejaVuSans-42" d="M 1259 2228 
L 1259 519 
L 2272 519 
Q 2781 519 3026 730 
Q 3272 941 3272 1375 
Q 3272 1813 3026 2020 
Q 2781 2228 2272 2228 
L 1259 2228 
z
M 1259 4147 
L 1259 2741 
L 2194 2741 
Q 2656 2741 2882 2914 
Q 3109 3088 3109 3444 
Q 3109 3797 2882 3972 
Q 2656 4147 2194 4147 
L 1259 4147 
z
M 628 4666 
L 2241 4666 
Q 2963 4666 3353 4366 
Q 3744 4066 3744 3513 
Q 3744 3084 3544 2831 
Q 3344 2578 2956 2516 
Q 3422 2416 3680 2098 
Q 3938 1781 3938 1306 
Q 3938 681 3513 340 
Q 3088 0 2303 0 
L 628 0 
L 628 4666 
z
" transform="scale(0.015625)"/>
       <path id="DejaVuSans-43" d="M 4122 4306 
L 4122 3641 
Q 3803 3938 3442 4084 
Q 3081 4231 2675 4231 
Q 1875 4231 1450 3742 
Q 1025 3253 1025 2328 
Q 1025 1406 1450 917 
Q 1875 428 2675 428 
Q 3081 428 3442 575 
Q 3803 722 4122 1019 
L 4122 359 
Q 3791 134 3420 21 
Q 3050 -91 2638 -91 
Q 1578 -91 968 557 
Q 359 1206 359 2328 
Q 359 3453 968 4101 
Q 1578 4750 2638 4750 
Q 3056 4750 3426 4639 
Q 3797 4528 4122 4306 
z
" transform="scale(0.015625)"/>
       <path id="DejaVuSans-20" transform="scale(0.015625)"/>
       <path id="DejaVuSans-28" d="M 1984 4856 
Q 1566 4138 1362 3434 
Q 1159 2731 1159 2009 
Q 1159 1288 1364 580 
Q 1569 -128 1984 -844 
L 1484 -844 
Q 1016 -109 783 600 
Q 550 1309 550 2009 
Q 550 2706 781 3412 
Q 1013 4119 1484 4856 
L 1984 4856 
z
" transform="scale(0.015625)"/>
       <path id="DejaVuSans-72" d="M 2631 2963 
Q 2534 3019 2420 3045 
Q 2306 3072 2169 3072 
Q 1681 3072 1420 2755 
Q 1159 2438 1159 1844 
L 1159 0 
L 581 0 
L 581 3500 
L 1159 3500 
L 1159 2956 
Q 1341 3275 1631 3429 
Q 1922 3584 2338 3584 
Q 2397 3584 2469 3576 
Q 2541 3569 2628 3553 
L 2631 2963 
z
" transform="scale(0.015625)"/>
       <path id="DejaVuSans-3d" d="M 678 2906 
L 4684 2906 
L 4684 2381 
L 678 2381 
L 678 2906 
z
M 678 1631 
L 4684 1631 
L 4684 1100 
L 678 1100 
L 678 1631 
z
" transform="scale(0.015625)"/>
       <path id="DejaVuSans-2e" d="M 684 794 
L 1344 794 
L 1344 0 
L 684 0 
L 684 794 
z
" transform="scale(0.015625)"/>
       <path id="DejaVuSans-35" d="M 691 4666 
L 3169 4666 
L 3169 4134 
L 1269 4134 
L 1269 2991 
Q 1406 3038 1543 3061 
Q 1681 3084 1819 3084 
Q 2600 3084 3056 2656 
Q 3513 2228 3513 1497 
Q 3513 744 3044 326 
Q 2575 -91 1722 -91 
Q 1428 -91 1123 -41 
Q 819 9 494 109 
L 494 744 
Q 775 591 1075 516 
Q 1375 441 1709 441 
Q 2250 441 2565 725 
Q 2881 1009 2881 1497 
Q 2881 1984 2565 2268 
Q 2250 2553 1709 2553 
Q 1456 2553 1204 2497 
Q 953 2441 691 2322 
L 691 4666 
z
" transform="scale(0.015625)"/>
       <path id="DejaVuSans-29" d="M 513 4856 
L 1013 4856 
Q 1481 4119 1714 3412 
Q 1947 2706 1947 2009 
Q 1947 1309 1714 600 
Q 1481 -109 1013 -844 
L 513 -844 
Q 928 -128 1133 580 
Q 1338 1288 1338 2009 
Q 1338 2731 1133 3434 
Q 928 4138 513 4856 
z
" transform="scale(0.015625)"/>
      </defs>
      <use xlink:href="#DejaVuSans-56"/>
      <use xlink:href="#DejaVuSans-48" x="68.408203"/>
      <use xlink:href="#DejaVuSans-4c" x="143.603516"/>
      <use xlink:href="#DejaVuSans-2d" x="197.566406"/>
      <use xlink:href="#DejaVuSans-42" x="230.025391"/>
      <use xlink:href="#DejaVuSans-43" x="296.878906"/>
      <use xlink:href="#DejaVuSans-4c" x="366.703125"/>
      <use xlink:href="#DejaVuSans-32" x="422.416016"/>
      <use xlink:href="#DejaVuSans-20" x="486.039062"/>
      <use xlink:href="#DejaVuSans-28" x="517.826172"/>
      <use xlink:href="#DejaVuSans-72" x="556.839844"/>
      <use xlink:href="#DejaVuSans-20" x="597.953125"/>
      <use xlink:href="#DejaVuSans-3d" x="629.740234"/>
      <use xlink:href="#DejaVuSans-20" x="713.529297"/>
      <use xlink:href="#DejaVuSans-30" x="745.316406"/>
      <use xlink:href="#DejaVuSans-2e" x="808.939453"/>
      <use xlink:href="#DejaVuSans-35" x="840.726562"/>
      <use xlink:href="#DejaVuSans-32" x="904.349609"/>
      <use xlink:href="#DejaVuSans-29" x="967.972656"/>
     </g>
    </g>
    <g id="PathCollection_17">
     <g>
      <use xlink:href="#m9ec6578e1a" x="340.439" y="41.086875" style="fill: #ffa90e; stroke: #ffa90e"/>
     </g>
    </g>
    <g id="text_20">
     <!-- CRBN-BCL-xL (r = 0.64) -->
     <g transform="translate(363.839 44.499375) scale(0.13 -0.13)">
      <defs>
       <path id="DejaVuSans-52" d="M 2841 2188 
Q 3044 2119 3236 1894 
Q 3428 1669 3622 1275 
L 4263 0 
L 3584 0 
L 2988 1197 
Q 2756 1666 2539 1819 
Q 2322 1972 1947 1972 
L 1259 1972 
L 1259 0 
L 628 0 
L 628 4666 
L 2053 4666 
Q 2853 4666 3247 4331 
Q 3641 3997 3641 3322 
Q 3641 2881 3436 2590 
Q 3231 2300 2841 2188 
z
M 1259 4147 
L 1259 2491 
L 2053 2491 
Q 2509 2491 2742 2702 
Q 2975 2913 2975 3322 
Q 2975 3731 2742 3939 
Q 2509 4147 2053 4147 
L 1259 4147 
z
" transform="scale(0.015625)"/>
       <path id="DejaVuSans-4e" d="M 628 4666 
L 1478 4666 
L 3547 763 
L 3547 4666 
L 4159 4666 
L 4159 0 
L 3309 0 
L 1241 3903 
L 1241 0 
L 628 0 
L 628 4666 
z
" transform="scale(0.015625)"/>
       <path id="DejaVuSans-78" d="M 3513 3500 
L 2247 1797 
L 3578 0 
L 2900 0 
L 1881 1375 
L 863 0 
L 184 0 
L 1544 1831 
L 300 3500 
L 978 3500 
L 1906 2253 
L 2834 3500 
L 3513 3500 
z
" transform="scale(0.015625)"/>
      </defs>
      <use xlink:href="#DejaVuSans-43"/>
      <use xlink:href="#DejaVuSans-52" x="69.824219"/>
      <use xlink:href="#DejaVuSans-42" x="139.306641"/>
      <use xlink:href="#DejaVuSans-4e" x="207.910156"/>
      <use xlink:href="#DejaVuSans-2d" x="282.714844"/>
      <use xlink:href="#DejaVuSans-42" x="315.173828"/>
      <use xlink:href="#DejaVuSans-43" x="382.027344"/>
      <use xlink:href="#DejaVuSans-4c" x="451.851562"/>
      <use xlink:href="#DejaVuSans-2d" x="505.814453"/>
      <use xlink:href="#DejaVuSans-78" x="541.898438"/>
      <use xlink:href="#DejaVuSans-4c" x="601.078125"/>
      <use xlink:href="#DejaVuSans-20" x="656.791016"/>
      <use xlink:href="#DejaVuSans-28" x="688.578125"/>
      <use xlink:href="#DejaVuSans-72" x="727.591797"/>
      <use xlink:href="#DejaVuSans-20" x="768.705078"/>
      <use xlink:href="#DejaVuSans-3d" x="800.492188"/>
      <use xlink:href="#DejaVuSans-20" x="884.28125"/>
      <use xlink:href="#DejaVuSans-30" x="916.068359"/>
      <use xlink:href="#DejaVuSans-2e" x="979.691406"/>
      <use xlink:href="#DejaVuSans-36" x="1011.478516"/>
      <use xlink:href="#DejaVuSans-34" x="1075.101562"/>
      <use xlink:href="#DejaVuSans-29" x="1138.724609"/>
     </g>
    </g>
    <g id="PathCollection_18">
     <g>
      <use xlink:href="#me6c9409f64" x="340.439" y="60.168438" style="fill: #bd1f01; stroke: #bd1f01"/>
     </g>
    </g>
    <g id="text_21">
     <!-- VHL-BCL-xL (r = 0.44) -->
     <g transform="translate(363.839 63.580938) scale(0.13 -0.13)">
      <use xlink:href="#DejaVuSans-56"/>
      <use xlink:href="#DejaVuSans-48" x="68.408203"/>
      <use xlink:href="#DejaVuSans-4c" x="143.603516"/>
      <use xlink:href="#DejaVuSans-2d" x="197.566406"/>
      <use xlink:href="#DejaVuSans-42" x="230.025391"/>
      <use xlink:href="#DejaVuSans-43" x="296.878906"/>
      <use xlink:href="#DejaVuSans-4c" x="366.703125"/>
      <use xlink:href="#DejaVuSans-2d" x="420.666016"/>
      <use xlink:href="#DejaVuSans-78" x="456.75"/>
      <use xlink:href="#DejaVuSans-4c" x="515.929688"/>
      <use xlink:href="#DejaVuSans-20" x="571.642578"/>
      <use xlink:href="#DejaVuSans-28" x="603.429688"/>
      <use xlink:href="#DejaVuSans-72" x="642.443359"/>
      <use xlink:href="#DejaVuSans-20" x="683.556641"/>
      <use xlink:href="#DejaVuSans-3d" x="715.34375"/>
      <use xlink:href="#DejaVuSans-20" x="799.132812"/>
      <use xlink:href="#DejaVuSans-30" x="830.919922"/>
      <use xlink:href="#DejaVuSans-2e" x="894.542969"/>
      <use xlink:href="#DejaVuSans-34" x="926.330078"/>
      <use xlink:href="#DejaVuSans-34" x="989.953125"/>
      <use xlink:href="#DejaVuSans-29" x="1053.576172"/>
     </g>
    </g>
    <g id="PathCollection_19">
     <g>
      <use xlink:href="#mc2aa3484e2" x="340.439" y="79.25" style="fill: #94a4a2; stroke: #94a4a2"/>
     </g>
    </g>
    <g id="text_22">
     <!-- CRBN-BRD4BD1 (r = 0.30) -->
     <g transform="translate(363.839 82.6625) scale(0.13 -0.13)">
      <defs>
       <path id="DejaVuSans-44" d="M 1259 4147 
L 1259 519 
L 2022 519 
Q 2988 519 3436 956 
Q 3884 1394 3884 2338 
Q 3884 3275 3436 3711 
Q 2988 4147 2022 4147 
L 1259 4147 
z
M 628 4666 
L 1925 4666 
Q 3281 4666 3915 4102 
Q 4550 3538 4550 2338 
Q 4550 1131 3912 565 
Q 3275 0 1925 0 
L 628 0 
L 628 4666 
z
" transform="scale(0.015625)"/>
       <path id="DejaVuSans-33" d="M 2597 2516 
Q 3050 2419 3304 2112 
Q 3559 1806 3559 1356 
Q 3559 666 3084 287 
Q 2609 -91 1734 -91 
Q 1441 -91 1130 -33 
Q 819 25 488 141 
L 488 750 
Q 750 597 1062 519 
Q 1375 441 1716 441 
Q 2309 441 2620 675 
Q 2931 909 2931 1356 
Q 2931 1769 2642 2001 
Q 2353 2234 1838 2234 
L 1294 2234 
L 1294 2753 
L 1863 2753 
Q 2328 2753 2575 2939 
Q 2822 3125 2822 3475 
Q 2822 3834 2567 4026 
Q 2313 4219 1838 4219 
Q 1578 4219 1281 4162 
Q 984 4106 628 3988 
L 628 4550 
Q 988 4650 1302 4700 
Q 1616 4750 1894 4750 
Q 2613 4750 3031 4423 
Q 3450 4097 3450 3541 
Q 3450 3153 3228 2886 
Q 3006 2619 2597 2516 
z
" transform="scale(0.015625)"/>
      </defs>
      <use xlink:href="#DejaVuSans-43"/>
      <use xlink:href="#DejaVuSans-52" x="69.824219"/>
      <use xlink:href="#DejaVuSans-42" x="139.306641"/>
      <use xlink:href="#DejaVuSans-4e" x="207.910156"/>
      <use xlink:href="#DejaVuSans-2d" x="282.714844"/>
      <use xlink:href="#DejaVuSans-42" x="315.173828"/>
      <use xlink:href="#DejaVuSans-52" x="383.777344"/>
      <use xlink:href="#DejaVuSans-44" x="453.259766"/>
      <use xlink:href="#DejaVuSans-34" x="530.261719"/>
      <use xlink:href="#DejaVuSans-42" x="593.884766"/>
      <use xlink:href="#DejaVuSans-44" x="662.488281"/>
      <use xlink:href="#DejaVuSans-31" x="739.490234"/>
      <use xlink:href="#DejaVuSans-20" x="803.113281"/>
      <use xlink:href="#DejaVuSans-28" x="834.900391"/>
      <use xlink:href="#DejaVuSans-72" x="873.914062"/>
      <use xlink:href="#DejaVuSans-20" x="915.027344"/>
      <use xlink:href="#DejaVuSans-3d" x="946.814453"/>
      <use xlink:href="#DejaVuSans-20" x="1030.603516"/>
      <use xlink:href="#DejaVuSans-30" x="1062.390625"/>
      <use xlink:href="#DejaVuSans-2e" x="1126.013672"/>
      <use xlink:href="#DejaVuSans-33" x="1157.800781"/>
      <use xlink:href="#DejaVuSans-30" x="1221.423828"/>
      <use xlink:href="#DejaVuSans-29" x="1285.046875"/>
     </g>
    </g>
    <g id="PathCollection_20">
     <g>
      <use xlink:href="#me3622f54ca" x="340.439" y="98.331562" style="fill: #832db6; stroke: #832db6"/>
     </g>
    </g>
    <g id="text_23">
     <!-- CRBN-BRD4BD2 (r = 0.91) -->
     <g transform="translate(363.839 101.744062) scale(0.13 -0.13)">
      <defs>
       <path id="DejaVuSans-39" d="M 703 97 
L 703 672 
Q 941 559 1184 500 
Q 1428 441 1663 441 
Q 2288 441 2617 861 
Q 2947 1281 2994 2138 
Q 2813 1869 2534 1725 
Q 2256 1581 1919 1581 
Q 1219 1581 811 2004 
Q 403 2428 403 3163 
Q 403 3881 828 4315 
Q 1253 4750 1959 4750 
Q 2769 4750 3195 4129 
Q 3622 3509 3622 2328 
Q 3622 1225 3098 567 
Q 2575 -91 1691 -91 
Q 1453 -91 1209 -44 
Q 966 3 703 97 
z
M 1959 2075 
Q 2384 2075 2632 2365 
Q 2881 2656 2881 3163 
Q 2881 3666 2632 3958 
Q 2384 4250 1959 4250 
Q 1534 4250 1286 3958 
Q 1038 3666 1038 3163 
Q 1038 2656 1286 2365 
Q 1534 2075 1959 2075 
z
" transform="scale(0.015625)"/>
      </defs>
      <use xlink:href="#DejaVuSans-43"/>
      <use xlink:href="#DejaVuSans-52" x="69.824219"/>
      <use xlink:href="#DejaVuSans-42" x="139.306641"/>
      <use xlink:href="#DejaVuSans-4e" x="207.910156"/>
      <use xlink:href="#DejaVuSans-2d" x="282.714844"/>
      <use xlink:href="#DejaVuSans-42" x="315.173828"/>
      <use xlink:href="#DejaVuSans-52" x="383.777344"/>
      <use xlink:href="#DejaVuSans-44" x="453.259766"/>
      <use xlink:href="#DejaVuSans-34" x="530.261719"/>
      <use xlink:href="#DejaVuSans-42" x="593.884766"/>
      <use xlink:href="#DejaVuSans-44" x="662.488281"/>
      <use xlink:href="#DejaVuSans-32" x="739.490234"/>
      <use xlink:href="#DejaVuSans-20" x="803.113281"/>
      <use xlink:href="#DejaVuSans-28" x="834.900391"/>
      <use xlink:href="#DejaVuSans-72" x="873.914062"/>
      <use xlink:href="#DejaVuSans-20" x="915.027344"/>
      <use xlink:href="#DejaVuSans-3d" x="946.814453"/>
      <use xlink:href="#DejaVuSans-20" x="1030.603516"/>
      <use xlink:href="#DejaVuSans-30" x="1062.390625"/>
      <use xlink:href="#DejaVuSans-2e" x="1126.013672"/>
      <use xlink:href="#DejaVuSans-39" x="1157.800781"/>
      <use xlink:href="#DejaVuSans-31" x="1221.423828"/>
      <use xlink:href="#DejaVuSans-29" x="1285.046875"/>
     </g>
    </g>
    <g id="PathCollection_21">
     <g>
      <use xlink:href="#m5f293298b3" x="340.439" y="117.413125" style="fill: #a96b59; stroke: #a96b59"/>
     </g>
    </g>
    <g id="text_24">
     <!-- CRBN-CDK9 (r = -0.02) -->
     <g transform="translate(363.839 120.825625) scale(0.13 -0.13)">
      <defs>
       <path id="DejaVuSans-4b" d="M 628 4666 
L 1259 4666 
L 1259 2694 
L 3353 4666 
L 4166 4666 
L 1850 2491 
L 4331 0 
L 3500 0 
L 1259 2247 
L 1259 0 
L 628 0 
L 628 4666 
z
" transform="scale(0.015625)"/>
      </defs>
      <use xlink:href="#DejaVuSans-43"/>
      <use xlink:href="#DejaVuSans-52" x="69.824219"/>
      <use xlink:href="#DejaVuSans-42" x="139.306641"/>
      <use xlink:href="#DejaVuSans-4e" x="207.910156"/>
      <use xlink:href="#DejaVuSans-2d" x="282.714844"/>
      <use xlink:href="#DejaVuSans-43" x="318.798828"/>
      <use xlink:href="#DejaVuSans-44" x="388.623047"/>
      <use xlink:href="#DejaVuSans-4b" x="465.625"/>
      <use xlink:href="#DejaVuSans-39" x="531.201172"/>
      <use xlink:href="#DejaVuSans-20" x="594.824219"/>
      <use xlink:href="#DejaVuSans-28" x="626.611328"/>
      <use xlink:href="#DejaVuSans-72" x="665.625"/>
      <use xlink:href="#DejaVuSans-20" x="706.738281"/>
      <use xlink:href="#DejaVuSans-3d" x="738.525391"/>
      <use xlink:href="#DejaVuSans-20" x="822.314453"/>
      <use xlink:href="#DejaVuSans-2d" x="854.101562"/>
      <use xlink:href="#DejaVuSans-30" x="890.185547"/>
      <use xlink:href="#DejaVuSans-2e" x="953.808594"/>
      <use xlink:href="#DejaVuSans-30" x="985.595703"/>
      <use xlink:href="#DejaVuSans-32" x="1049.21875"/>
      <use xlink:href="#DejaVuSans-29" x="1112.841797"/>
     </g>
    </g>
    <g id="PathCollection_22">
     <g>
      <use xlink:href="#mbdf7de566b" x="340.439" y="136.494687" style="fill: #e76300; stroke: #e76300"/>
     </g>
    </g>
    <g id="text_25">
     <!-- MDM2-EGFR (r = -0.38) -->
     <g transform="translate(363.839 139.907187) scale(0.13 -0.13)">
      <defs>
       <path id="DejaVuSans-4d" d="M 628 4666 
L 1569 4666 
L 2759 1491 
L 3956 4666 
L 4897 4666 
L 4897 0 
L 4281 0 
L 4281 4097 
L 3078 897 
L 2444 897 
L 1241 4097 
L 1241 0 
L 628 0 
L 628 4666 
z
" transform="scale(0.015625)"/>
       <path id="DejaVuSans-45" d="M 628 4666 
L 3578 4666 
L 3578 4134 
L 1259 4134 
L 1259 2753 
L 3481 2753 
L 3481 2222 
L 1259 2222 
L 1259 531 
L 3634 531 
L 3634 0 
L 628 0 
L 628 4666 
z
" transform="scale(0.015625)"/>
       <path id="DejaVuSans-47" d="M 3809 666 
L 3809 1919 
L 2778 1919 
L 2778 2438 
L 4434 2438 
L 4434 434 
Q 4069 175 3628 42 
Q 3188 -91 2688 -91 
Q 1594 -91 976 548 
Q 359 1188 359 2328 
Q 359 3472 976 4111 
Q 1594 4750 2688 4750 
Q 3144 4750 3555 4637 
Q 3966 4525 4313 4306 
L 4313 3634 
Q 3963 3931 3569 4081 
Q 3175 4231 2741 4231 
Q 1884 4231 1454 3753 
Q 1025 3275 1025 2328 
Q 1025 1384 1454 906 
Q 1884 428 2741 428 
Q 3075 428 3337 486 
Q 3600 544 3809 666 
z
" transform="scale(0.015625)"/>
       <path id="DejaVuSans-46" d="M 628 4666 
L 3309 4666 
L 3309 4134 
L 1259 4134 
L 1259 2759 
L 3109 2759 
L 3109 2228 
L 1259 2228 
L 1259 0 
L 628 0 
L 628 4666 
z
" transform="scale(0.015625)"/>
      </defs>
      <use xlink:href="#DejaVuSans-4d"/>
      <use xlink:href="#DejaVuSans-44" x="86.279297"/>
      <use xlink:href="#DejaVuSans-4d" x="163.28125"/>
      <use xlink:href="#DejaVuSans-32" x="249.560547"/>
      <use xlink:href="#DejaVuSans-2d" x="313.183594"/>
      <use xlink:href="#DejaVuSans-45" x="349.267578"/>
      <use xlink:href="#DejaVuSans-47" x="412.451172"/>
      <use xlink:href="#DejaVuSans-46" x="489.941406"/>
      <use xlink:href="#DejaVuSans-52" x="547.460938"/>
      <use xlink:href="#DejaVuSans-20" x="616.943359"/>
      <use xlink:href="#DejaVuSans-28" x="648.730469"/>
      <use xlink:href="#DejaVuSans-72" x="687.744141"/>
      <use xlink:href="#DejaVuSans-20" x="728.857422"/>
      <use xlink:href="#DejaVuSans-3d" x="760.644531"/>
      <use xlink:href="#DejaVuSans-20" x="844.433594"/>
      <use xlink:href="#DejaVuSans-2d" x="876.220703"/>
      <use xlink:href="#DejaVuSans-30" x="912.304688"/>
      <use xlink:href="#DejaVuSans-2e" x="975.927734"/>
      <use xlink:href="#DejaVuSans-33" x="1007.714844"/>
      <use xlink:href="#DejaVuSans-38" x="1071.337891"/>
      <use xlink:href="#DejaVuSans-29" x="1134.960938"/>
     </g>
    </g>
    <g id="PathCollection_23">
     <g>
      <use xlink:href="#ma225b99a6b" x="340.439" y="155.57625" style="fill: #b9ac70; stroke: #b9ac70"/>
     </g>
    </g>
    <g id="text_26">
     <!-- VHL-EGFR (r = 0.03) -->
     <g transform="translate(363.839 158.98875) scale(0.13 -0.13)">
      <use xlink:href="#DejaVuSans-56"/>
      <use xlink:href="#DejaVuSans-48" x="68.408203"/>
      <use xlink:href="#DejaVuSans-4c" x="143.603516"/>
      <use xlink:href="#DejaVuSans-2d" x="197.566406"/>
      <use xlink:href="#DejaVuSans-45" x="233.650391"/>
      <use xlink:href="#DejaVuSans-47" x="296.833984"/>
      <use xlink:href="#DejaVuSans-46" x="374.324219"/>
      <use xlink:href="#DejaVuSans-52" x="431.84375"/>
      <use xlink:href="#DejaVuSans-20" x="501.326172"/>
      <use xlink:href="#DejaVuSans-28" x="533.113281"/>
      <use xlink:href="#DejaVuSans-72" x="572.126953"/>
      <use xlink:href="#DejaVuSans-20" x="613.240234"/>
      <use xlink:href="#DejaVuSans-3d" x="645.027344"/>
      <use xlink:href="#DejaVuSans-20" x="728.816406"/>
      <use xlink:href="#DejaVuSans-30" x="760.603516"/>
      <use xlink:href="#DejaVuSans-2e" x="824.226562"/>
      <use xlink:href="#DejaVuSans-30" x="856.013672"/>
      <use xlink:href="#DejaVuSans-33" x="919.636719"/>
      <use xlink:href="#DejaVuSans-29" x="983.259766"/>
     </g>
    </g>
    <g id="PathCollection_24">
     <g>
      <use xlink:href="#me2a84324c2" x="340.439" y="175.85625" style="fill: #717581; stroke: #717581"/>
     </g>
    </g>
    <g id="text_27">
     <!-- VHL-FAK1$^{(a)}$ (r = 0.44) -->
     <g transform="translate(363.839 179.26875) scale(0.13 -0.13)">
      <defs>
       <path id="DejaVuSans-41" d="M 2188 4044 
L 1331 1722 
L 3047 1722 
L 2188 4044 
z
M 1831 4666 
L 2547 4666 
L 4325 0 
L 3669 0 
L 3244 1197 
L 1141 1197 
L 716 0 
L 50 0 
L 1831 4666 
z
" transform="scale(0.015625)"/>
       <path id="DejaVuSans-Oblique-61" d="M 3438 1997 
L 3047 0 
L 2472 0 
L 2578 531 
Q 2325 219 2001 64 
Q 1678 -91 1281 -91 
Q 834 -91 548 182 
Q 263 456 263 884 
Q 263 1497 752 1853 
Q 1241 2209 2100 2209 
L 2900 2209 
L 2931 2363 
Q 2938 2388 2941 2417 
Q 2944 2447 2944 2509 
Q 2944 2788 2717 2942 
Q 2491 3097 2081 3097 
Q 1800 3097 1504 3025 
Q 1209 2953 897 2809 
L 997 3341 
Q 1322 3463 1633 3523 
Q 1944 3584 2234 3584 
Q 2853 3584 3176 3315 
Q 3500 3047 3500 2534 
Q 3500 2431 3484 2292 
Q 3469 2153 3438 1997 
z
M 2816 1759 
L 2241 1759 
Q 1534 1759 1195 1570 
Q 856 1381 856 984 
Q 856 709 1029 553 
Q 1203 397 1509 397 
Q 1978 397 2328 733 
Q 2678 1069 2791 1631 
L 2816 1759 
z
" transform="scale(0.015625)"/>
      </defs>
      <use xlink:href="#DejaVuSans-56" transform="translate(0 0.60625)"/>
      <use xlink:href="#DejaVuSans-48" transform="translate(68.408203 0.60625)"/>
      <use xlink:href="#DejaVuSans-4c" transform="translate(143.603516 0.60625)"/>
      <use xlink:href="#DejaVuSans-2d" transform="translate(199.316406 0.60625)"/>
      <use xlink:href="#DejaVuSans-46" transform="translate(235.400391 0.60625)"/>
      <use xlink:href="#DejaVuSans-41" transform="translate(292.919922 0.60625)"/>
      <use xlink:href="#DejaVuSans-4b" transform="translate(361.328125 0.60625)"/>
      <use xlink:href="#DejaVuSans-31" transform="translate(426.904297 0.60625)"/>
      <use xlink:href="#DejaVuSans-28" transform="translate(491.484375 38.8875) scale(0.7)"/>
      <use xlink:href="#DejaVuSans-Oblique-61" transform="translate(518.793945 38.8875) scale(0.7)"/>
      <use xlink:href="#DejaVuSans-29" transform="translate(561.689453 38.8875) scale(0.7)"/>
      <use xlink:href="#DejaVuSans-20" transform="translate(591.733398 0.60625)"/>
      <use xlink:href="#DejaVuSans-28" transform="translate(623.520508 0.60625)"/>
      <use xlink:href="#DejaVuSans-72" transform="translate(662.53418 0.60625)"/>
      <use xlink:href="#DejaVuSans-20" transform="translate(703.647461 0.60625)"/>
      <use xlink:href="#DejaVuSans-3d" transform="translate(735.43457 0.60625)"/>
      <use xlink:href="#DejaVuSans-20" transform="translate(819.223633 0.60625)"/>
      <use xlink:href="#DejaVuSans-30" transform="translate(851.010742 0.60625)"/>
      <use xlink:href="#DejaVuSans-2e" transform="translate(914.633789 0.60625)"/>
      <use xlink:href="#DejaVuSans-34" transform="translate(946.420898 0.60625)"/>
      <use xlink:href="#DejaVuSans-34" transform="translate(1010.043945 0.60625)"/>
      <use xlink:href="#DejaVuSans-29" transform="translate(1073.666992 0.60625)"/>
     </g>
    </g>
    <g id="PathCollection_25">
     <g>
      <use xlink:href="#m6d3b5b2371" x="340.439" y="196.13625" style="fill: #92dadd; stroke: #92dadd"/>
     </g>
    </g>
    <g id="text_28">
     <!-- VHL-FAK1$^{(b)}$ (r = -0.60) -->
     <g transform="translate(363.839 199.54875) scale(0.13 -0.13)">
      <defs>
       <path id="DejaVuSans-Oblique-62" d="M 3169 2138 
Q 3169 2591 2961 2847 
Q 2753 3103 2388 3103 
Q 2122 3103 1889 2973 
Q 1656 2844 1484 2597 
Q 1303 2338 1198 1995 
Q 1094 1653 1094 1313 
Q 1094 881 1298 636 
Q 1503 391 1863 391 
Q 2134 391 2365 517 
Q 2597 644 2772 891 
Q 2950 1147 3059 1487 
Q 3169 1828 3169 2138 
z
M 1381 2969 
Q 1594 3256 1914 3420 
Q 2234 3584 2584 3584 
Q 3122 3584 3439 3221 
Q 3756 2859 3756 2241 
Q 3756 1734 3570 1259 
Q 3384 784 3041 416 
Q 2816 172 2522 40 
Q 2228 -91 1906 -91 
Q 1566 -91 1316 65 
Q 1066 222 909 531 
L 806 0 
L 231 0 
L 1178 4863 
L 1753 4863 
L 1381 2969 
z
" transform="scale(0.015625)"/>
      </defs>
      <use xlink:href="#DejaVuSans-56" transform="translate(0 0.529687)"/>
      <use xlink:href="#DejaVuSans-48" transform="translate(68.408203 0.529687)"/>
      <use xlink:href="#DejaVuSans-4c" transform="translate(143.603516 0.529687)"/>
      <use xlink:href="#DejaVuSans-2d" transform="translate(199.316406 0.529687)"/>
      <use xlink:href="#DejaVuSans-46" transform="translate(235.400391 0.529687)"/>
      <use xlink:href="#DejaVuSans-41" transform="translate(292.919922 0.529687)"/>
      <use xlink:href="#DejaVuSans-4b" transform="translate(361.328125 0.529687)"/>
      <use xlink:href="#DejaVuSans-31" transform="translate(426.904297 0.529687)"/>
      <use xlink:href="#DejaVuSans-28" transform="translate(491.484375 38.810937) scale(0.7)"/>
      <use xlink:href="#DejaVuSans-Oblique-62" transform="translate(518.793945 38.810937) scale(0.7)"/>
      <use xlink:href="#DejaVuSans-29" transform="translate(563.227539 38.810937) scale(0.7)"/>
      <use xlink:href="#DejaVuSans-20" transform="translate(593.271484 0.529687)"/>
      <use xlink:href="#DejaVuSans-28" transform="translate(625.058594 0.529687)"/>
      <use xlink:href="#DejaVuSans-72" transform="translate(664.072266 0.529687)"/>
      <use xlink:href="#DejaVuSans-20" transform="translate(705.185547 0.529687)"/>
      <use xlink:href="#DejaVuSans-3d" transform="translate(736.972656 0.529687)"/>
      <use xlink:href="#DejaVuSans-20" transform="translate(820.761719 0.529687)"/>
      <use xlink:href="#DejaVuSans-2d" transform="translate(852.548828 0.529687)"/>
      <use xlink:href="#DejaVuSans-30" transform="translate(888.632812 0.529687)"/>
      <use xlink:href="#DejaVuSans-2e" transform="translate(952.255859 0.529687)"/>
      <use xlink:href="#DejaVuSans-36" transform="translate(984.042969 0.529687)"/>
      <use xlink:href="#DejaVuSans-30" transform="translate(1047.666016 0.529687)"/>
      <use xlink:href="#DejaVuSans-29" transform="translate(1111.289062 0.529687)"/>
     </g>
    </g>
    <g id="PathCollection_26">
     <g>
      <use xlink:href="#m78d1eb7983" x="340.439" y="215.217813" style="fill: #3f90da; stroke: #3f90da"/>
     </g>
    </g>
    <g id="text_29">
     <!-- CRBN-HDAC8 (r = -0.34) -->
     <g transform="translate(363.839 218.630313) scale(0.13 -0.13)">
      <use xlink:href="#DejaVuSans-43"/>
      <use xlink:href="#DejaVuSans-52" x="69.824219"/>
      <use xlink:href="#DejaVuSans-42" x="139.306641"/>
      <use xlink:href="#DejaVuSans-4e" x="207.910156"/>
      <use xlink:href="#DejaVuSans-2d" x="282.714844"/>
      <use xlink:href="#DejaVuSans-48" x="318.798828"/>
      <use xlink:href="#DejaVuSans-44" x="393.994141"/>
      <use xlink:href="#DejaVuSans-41" x="469.246094"/>
      <use xlink:href="#DejaVuSans-43" x="535.904297"/>
      <use xlink:href="#DejaVuSans-38" x="605.728516"/>
      <use xlink:href="#DejaVuSans-20" x="669.351562"/>
      <use xlink:href="#DejaVuSans-28" x="701.138672"/>
      <use xlink:href="#DejaVuSans-72" x="740.152344"/>
      <use xlink:href="#DejaVuSans-20" x="781.265625"/>
      <use xlink:href="#DejaVuSans-3d" x="813.052734"/>
      <use xlink:href="#DejaVuSans-20" x="896.841797"/>
      <use xlink:href="#DejaVuSans-2d" x="928.628906"/>
      <use xlink:href="#DejaVuSans-30" x="964.712891"/>
      <use xlink:href="#DejaVuSans-2e" x="1028.335938"/>
      <use xlink:href="#DejaVuSans-33" x="1060.123047"/>
      <use xlink:href="#DejaVuSans-34" x="1123.746094"/>
      <use xlink:href="#DejaVuSans-29" x="1187.369141"/>
     </g>
    </g>
    <g id="PathCollection_27">
     <g>
      <use xlink:href="#m7a5f08b751" x="340.439" y="234.299375" style="fill: #ffa90e; stroke: #ffa90e"/>
     </g>
    </g>
    <g id="text_30">
     <!-- CRBN-SMARCA2 (r = 0.60) -->
     <g transform="translate(363.839 237.711875) scale(0.13 -0.13)">
      <defs>
       <path id="DejaVuSans-53" d="M 3425 4513 
L 3425 3897 
Q 3066 4069 2747 4153 
Q 2428 4238 2131 4238 
Q 1616 4238 1336 4038 
Q 1056 3838 1056 3469 
Q 1056 3159 1242 3001 
Q 1428 2844 1947 2747 
L 2328 2669 
Q 3034 2534 3370 2195 
Q 3706 1856 3706 1288 
Q 3706 609 3251 259 
Q 2797 -91 1919 -91 
Q 1588 -91 1214 -16 
Q 841 59 441 206 
L 441 856 
Q 825 641 1194 531 
Q 1563 422 1919 422 
Q 2459 422 2753 634 
Q 3047 847 3047 1241 
Q 3047 1584 2836 1778 
Q 2625 1972 2144 2069 
L 1759 2144 
Q 1053 2284 737 2584 
Q 422 2884 422 3419 
Q 422 4038 858 4394 
Q 1294 4750 2059 4750 
Q 2388 4750 2728 4690 
Q 3069 4631 3425 4513 
z
" transform="scale(0.015625)"/>
      </defs>
      <use xlink:href="#DejaVuSans-43"/>
      <use xlink:href="#DejaVuSans-52" x="69.824219"/>
      <use xlink:href="#DejaVuSans-42" x="139.306641"/>
      <use xlink:href="#DejaVuSans-4e" x="207.910156"/>
      <use xlink:href="#DejaVuSans-2d" x="282.714844"/>
      <use xlink:href="#DejaVuSans-53" x="318.798828"/>
      <use xlink:href="#DejaVuSans-4d" x="382.275391"/>
      <use xlink:href="#DejaVuSans-41" x="468.554688"/>
      <use xlink:href="#DejaVuSans-52" x="536.962891"/>
      <use xlink:href="#DejaVuSans-43" x="601.445312"/>
      <use xlink:href="#DejaVuSans-41" x="671.269531"/>
      <use xlink:href="#DejaVuSans-32" x="739.677734"/>
      <use xlink:href="#DejaVuSans-20" x="803.300781"/>
      <use xlink:href="#DejaVuSans-28" x="835.087891"/>
      <use xlink:href="#DejaVuSans-72" x="874.101562"/>
      <use xlink:href="#DejaVuSans-20" x="915.214844"/>
      <use xlink:href="#DejaVuSans-3d" x="947.001953"/>
      <use xlink:href="#DejaVuSans-20" x="1030.791016"/>
      <use xlink:href="#DejaVuSans-30" x="1062.578125"/>
      <use xlink:href="#DejaVuSans-2e" x="1126.201172"/>
      <use xlink:href="#DejaVuSans-36" x="1157.988281"/>
      <use xlink:href="#DejaVuSans-30" x="1221.611328"/>
      <use xlink:href="#DejaVuSans-29" x="1285.234375"/>
     </g>
    </g>
    <g id="PathCollection_28">
     <g>
      <use xlink:href="#m2f7971c826" x="340.439" y="253.380937" style="fill: #bd1f01; stroke: #bd1f01"/>
     </g>
    </g>
    <g id="text_31">
     <!-- VHL-SMARCA2 (r = 0.56) -->
     <g transform="translate(363.839 256.793437) scale(0.13 -0.13)">
      <use xlink:href="#DejaVuSans-56"/>
      <use xlink:href="#DejaVuSans-48" x="68.408203"/>
      <use xlink:href="#DejaVuSans-4c" x="143.603516"/>
      <use xlink:href="#DejaVuSans-2d" x="197.566406"/>
      <use xlink:href="#DejaVuSans-53" x="233.650391"/>
      <use xlink:href="#DejaVuSans-4d" x="297.126953"/>
      <use xlink:href="#DejaVuSans-41" x="383.40625"/>
      <use xlink:href="#DejaVuSans-52" x="451.814453"/>
      <use xlink:href="#DejaVuSans-43" x="516.296875"/>
      <use xlink:href="#DejaVuSans-41" x="586.121094"/>
      <use xlink:href="#DejaVuSans-32" x="654.529297"/>
      <use xlink:href="#DejaVuSans-20" x="718.152344"/>
      <use xlink:href="#DejaVuSans-28" x="749.939453"/>
      <use xlink:href="#DejaVuSans-72" x="788.953125"/>
      <use xlink:href="#DejaVuSans-20" x="830.066406"/>
      <use xlink:href="#DejaVuSans-3d" x="861.853516"/>
      <use xlink:href="#DejaVuSans-20" x="945.642578"/>
      <use xlink:href="#DejaVuSans-30" x="977.429688"/>
      <use xlink:href="#DejaVuSans-2e" x="1041.052734"/>
      <use xlink:href="#DejaVuSans-35" x="1072.839844"/>
      <use xlink:href="#DejaVuSans-36" x="1136.462891"/>
      <use xlink:href="#DejaVuSans-29" x="1200.085938"/>
     </g>
    </g>
    <g id="PathCollection_29">
     <g>
      <use xlink:href="#m4fe48d8f13" x="340.439" y="272.4625" style="fill: #94a4a2; stroke: #94a4a2"/>
     </g>
    </g>
    <g id="text_32">
     <!-- VHL-SMARCA4 (r = 0.52) -->
     <g transform="translate(363.839 275.875) scale(0.13 -0.13)">
      <use xlink:href="#DejaVuSans-56"/>
      <use xlink:href="#DejaVuSans-48" x="68.408203"/>
      <use xlink:href="#DejaVuSans-4c" x="143.603516"/>
      <use xlink:href="#DejaVuSans-2d" x="197.566406"/>
      <use xlink:href="#DejaVuSans-53" x="233.650391"/>
      <use xlink:href="#DejaVuSans-4d" x="297.126953"/>
      <use xlink:href="#DejaVuSans-41" x="383.40625"/>
      <use xlink:href="#DejaVuSans-52" x="451.814453"/>
      <use xlink:href="#DejaVuSans-43" x="516.296875"/>
      <use xlink:href="#DejaVuSans-41" x="586.121094"/>
      <use xlink:href="#DejaVuSans-34" x="654.529297"/>
      <use xlink:href="#DejaVuSans-20" x="718.152344"/>
      <use xlink:href="#DejaVuSans-28" x="749.939453"/>
      <use xlink:href="#DejaVuSans-72" x="788.953125"/>
      <use xlink:href="#DejaVuSans-20" x="830.066406"/>
      <use xlink:href="#DejaVuSans-3d" x="861.853516"/>
      <use xlink:href="#DejaVuSans-20" x="945.642578"/>
      <use xlink:href="#DejaVuSans-30" x="977.429688"/>
      <use xlink:href="#DejaVuSans-2e" x="1041.052734"/>
      <use xlink:href="#DejaVuSans-35" x="1072.839844"/>
      <use xlink:href="#DejaVuSans-32" x="1136.462891"/>
      <use xlink:href="#DejaVuSans-29" x="1200.085938"/>
     </g>
    </g>
    <g id="PathCollection_30">
     <g>
      <use xlink:href="#m2efe8db4b8" x="340.439" y="291.544062" style="fill: #832db6; stroke: #832db6"/>
     </g>
    </g>
    <g id="text_33">
     <!-- VHL-WDR5 (r = -0.24) -->
     <g transform="translate(363.839 294.956562) scale(0.13 -0.13)">
      <defs>
       <path id="DejaVuSans-57" d="M 213 4666 
L 850 4666 
L 1831 722 
L 2809 4666 
L 3519 4666 
L 4500 722 
L 5478 4666 
L 6119 4666 
L 4947 0 
L 4153 0 
L 3169 4050 
L 2175 0 
L 1381 0 
L 213 4666 
z
" transform="scale(0.015625)"/>
      </defs>
      <use xlink:href="#DejaVuSans-56"/>
      <use xlink:href="#DejaVuSans-48" x="68.408203"/>
      <use xlink:href="#DejaVuSans-4c" x="143.603516"/>
      <use xlink:href="#DejaVuSans-2d" x="197.566406"/>
      <use xlink:href="#DejaVuSans-57" x="229.650391"/>
      <use xlink:href="#DejaVuSans-44" x="328.527344"/>
      <use xlink:href="#DejaVuSans-52" x="405.529297"/>
      <use xlink:href="#DejaVuSans-35" x="475.011719"/>
      <use xlink:href="#DejaVuSans-20" x="538.634766"/>
      <use xlink:href="#DejaVuSans-28" x="570.421875"/>
      <use xlink:href="#DejaVuSans-72" x="609.435547"/>
      <use xlink:href="#DejaVuSans-20" x="650.548828"/>
      <use xlink:href="#DejaVuSans-3d" x="682.335938"/>
      <use xlink:href="#DejaVuSans-20" x="766.125"/>
      <use xlink:href="#DejaVuSans-2d" x="797.912109"/>
      <use xlink:href="#DejaVuSans-30" x="833.996094"/>
      <use xlink:href="#DejaVuSans-2e" x="897.619141"/>
      <use xlink:href="#DejaVuSans-32" x="929.40625"/>
      <use xlink:href="#DejaVuSans-34" x="993.029297"/>
      <use xlink:href="#DejaVuSans-29" x="1056.652344"/>
     </g>
    </g>
   </g>
  </g>
 </g>
 <defs>
  <clipPath id="p7ca5ea7c3b">
   <rect x="55.478" y="47.323" width="249.461" height="218.554"/>
  </clipPath>
 </defs>
</svg>
