<?xml version="1.0" encoding="utf-8" standalone="no"?>
<!DOCTYPE svg PUBLIC "-//W3C//DTD SVG 1.1//EN"
  "http://www.w3.org/Graphics/SVG/1.1/DTD/svg11.dtd">
<svg xmlns:xlink="http://www.w3.org/1999/xlink" width="576pt" height="313.2pt" viewBox="0 0 576 313.2" xmlns="http://www.w3.org/2000/svg" version="1.1">
 <metadata>
  <rdf:RDF xmlns:dc="http://purl.org/dc/elements/1.1/" xmlns:cc="http://creativecommons.org/ns#" xmlns:rdf="http://www.w3.org/1999/02/22-rdf-syntax-ns#">
   <cc:Work>
    <dc:type rdf:resource="http://purl.org/dc/dcmitype/StillImage"/>
    <dc:date>2025-07-30T18:27:59.951035</dc:date>
    <dc:format>image/svg+xml</dc:format>
    <dc:creator>
     <cc:Agent>
      <dc:title>Matplotlib v3.9.1, https://matplotlib.org/</dc:title>
     </cc:Agent>
    </dc:creator>
   </cc:Work>
  </rdf:RDF>
 </metadata>
 <defs>
  <style type="text/css">*{stroke-linejoin: round; stroke-linecap: butt}</style>
 </defs>
 <g id="figure_1">
  <g id="patch_1">
   <path d="M 0 313.2 
L 576 313.2 
L 576 0 
L 0 0 
z
" style="fill: #ffffff"/>
  </g>
  <g id="axes_1">
   <g id="patch_2">
    <path d="M 55.478 271.24 
L 291.318545 271.24 
L 291.318545 41.574 
L 55.478 41.574 
z
" style="fill: #ffffff"/>
   </g>
   <g id="PathCollection_1">
    <defs>
     <path id="mf6464880e7" d="M 0 3 
C 0.795609 3 1.55874 2.683901 2.12132 2.12132 
C 2.683901 1.55874 3 0.795609 3 0 
C 3 -0.795609 2.683901 -1.55874 2.12132 -2.12132 
C 1.55874 -2.683901 0.795609 -3 0 -3 
C -0.795609 -3 -1.55874 -2.683901 -2.12132 -2.12132 
C -2.683901 -1.55874 -3 -0.795609 -3 0 
C -3 0.795609 -2.683901 1.55874 -2.12132 2.12132 
C -1.55874 2.683901 -0.795609 3 0 3 
z
" style="stroke: #3f90da; stroke-opacity: 0.8"/>
    </defs>
    <g clip-path="url(#p177f60ffde)">
     <use xlink:href="#mf6464880e7" x="193.327538" y="130.773821" style="fill: #3f90da; fill-opacity: 0.8; stroke: #3f90da; stroke-opacity: 0.8"/>
     <use xlink:href="#mf6464880e7" x="190.778936" y="146.790755" style="fill: #3f90da; fill-opacity: 0.8; stroke: #3f90da; stroke-opacity: 0.8"/>
     <use xlink:href="#mf6464880e7" x="198.004746" y="123.267584" style="fill: #3f90da; fill-opacity: 0.8; stroke: #3f90da; stroke-opacity: 0.8"/>
     <use xlink:href="#mf6464880e7" x="169.731083" y="121.734601" style="fill: #3f90da; fill-opacity: 0.8; stroke: #3f90da; stroke-opacity: 0.8"/>
     <use xlink:href="#mf6464880e7" x="201.513954" y="148.358394" style="fill: #3f90da; fill-opacity: 0.8; stroke: #3f90da; stroke-opacity: 0.8"/>
    </g>
   </g>
   <g id="PathCollection_2">
    <defs>
     <path id="mf00c36c14a" d="M 0 3 
C 0.795609 3 1.55874 2.683901 2.12132 2.12132 
C 2.683901 1.55874 3 0.795609 3 0 
C 3 -0.795609 2.683901 -1.55874 2.12132 -2.12132 
C 1.55874 -2.683901 0.795609 -3 0 -3 
C -0.795609 -3 -1.55874 -2.683901 -2.12132 -2.12132 
C -2.683901 -1.55874 -3 -0.795609 -3 0 
C -3 0.795609 -2.683901 1.55874 -2.12132 2.12132 
C -1.55874 2.683901 -0.795609 3 0 3 
z
" style="stroke: #ffa90e; stroke-opacity: 0.8"/>
    </defs>
    <g clip-path="url(#p177f60ffde)">
     <use xlink:href="#mf00c36c14a" x="151.683988" y="179.863734" style="fill: #ffa90e; fill-opacity: 0.8; stroke: #ffa90e; stroke-opacity: 0.8"/>
     <use xlink:href="#mf00c36c14a" x="134.078368" y="175.385441" style="fill: #ffa90e; fill-opacity: 0.8; stroke: #ffa90e; stroke-opacity: 0.8"/>
     <use xlink:href="#mf00c36c14a" x="195.333031" y="168.460426" style="fill: #ffa90e; fill-opacity: 0.8; stroke: #ffa90e; stroke-opacity: 0.8"/>
     <use xlink:href="#mf00c36c14a" x="134.635487" y="187.686907" style="fill: #ffa90e; fill-opacity: 0.8; stroke: #ffa90e; stroke-opacity: 0.8"/>
    </g>
   </g>
   <g id="PathCollection_3">
    <defs>
     <path id="mc9ab00ff83" d="M 0 3 
C 0.795609 3 1.55874 2.683901 2.12132 2.12132 
C 2.683901 1.55874 3 0.795609 3 0 
C 3 -0.795609 2.683901 -1.55874 2.12132 -2.12132 
C 1.55874 -2.683901 0.795609 -3 0 -3 
C -0.795609 -3 -1.55874 -2.683901 -2.12132 -2.12132 
C -2.683901 -1.55874 -3 -0.795609 -3 0 
C -3 0.795609 -2.683901 1.55874 -2.12132 2.12132 
C -1.55874 2.683901 -0.795609 3 0 3 
z
" style="stroke: #bd1f01; stroke-opacity: 0.8"/>
    </defs>
    <g clip-path="url(#p177f60ffde)">
     <use xlink:href="#mc9ab00ff83" x="173.573446" y="123.267585" style="fill: #bd1f01; fill-opacity: 0.8; stroke: #bd1f01; stroke-opacity: 0.8"/>
     <use xlink:href="#mc9ab00ff83" x="200.341299" y="150.818326" style="fill: #bd1f01; fill-opacity: 0.8; stroke: #bd1f01; stroke-opacity: 0.8"/>
     <use xlink:href="#mc9ab00ff83" x="185.34708" y="165.950363" style="fill: #bd1f01; fill-opacity: 0.8; stroke: #bd1f01; stroke-opacity: 0.8"/>
     <use xlink:href="#mc9ab00ff83" x="185.653499" y="165.846787" style="fill: #bd1f01; fill-opacity: 0.8; stroke: #bd1f01; stroke-opacity: 0.8"/>
     <use xlink:href="#mc9ab00ff83" x="168.815816" y="165.950363" style="fill: #bd1f01; fill-opacity: 0.8; stroke: #bd1f01; stroke-opacity: 0.8"/>
     <use xlink:href="#mc9ab00ff83" x="136.161339" y="166.698889" style="fill: #bd1f01; fill-opacity: 0.8; stroke: #bd1f01; stroke-opacity: 0.8"/>
     <use xlink:href="#mc9ab00ff83" x="187.567314" y="176.034816" style="fill: #bd1f01; fill-opacity: 0.8; stroke: #bd1f01; stroke-opacity: 0.8"/>
    </g>
   </g>
   <g id="PathCollection_4">
    <defs>
     <path id="m715ea754d0" d="M 0 3 
C 0.795609 3 1.55874 2.683901 2.12132 2.12132 
C 2.683901 1.55874 3 0.795609 3 0 
C 3 -0.795609 2.683901 -1.55874 2.12132 -2.12132 
C 1.55874 -2.683901 0.795609 -3 0 -3 
C -0.795609 -3 -1.55874 -2.683901 -2.12132 -2.12132 
C -2.683901 -1.55874 -3 -0.795609 -3 0 
C -3 0.795609 -2.683901 1.55874 -2.12132 2.12132 
C -1.55874 2.683901 -0.795609 3 0 3 
z
" style="stroke: #94a4a2; stroke-opacity: 0.8"/>
    </defs>
    <g clip-path="url(#p177f60ffde)">
     <use xlink:href="#m715ea754d0" x="196.180513" y="117.168709" style="fill: #94a4a2; fill-opacity: 0.8; stroke: #94a4a2; stroke-opacity: 0.8"/>
     <use xlink:href="#m715ea754d0" x="148.356395" y="169.235959" style="fill: #94a4a2; fill-opacity: 0.8; stroke: #94a4a2; stroke-opacity: 0.8"/>
     <use xlink:href="#m715ea754d0" x="197.460578" y="147.815071" style="fill: #94a4a2; fill-opacity: 0.8; stroke: #94a4a2; stroke-opacity: 0.8"/>
     <use xlink:href="#m715ea754d0" x="153.952365" y="117.168709" style="fill: #94a4a2; fill-opacity: 0.8; stroke: #94a4a2; stroke-opacity: 0.8"/>
     <use xlink:href="#m715ea754d0" x="183.812474" y="178.461433" style="fill: #94a4a2; fill-opacity: 0.8; stroke: #94a4a2; stroke-opacity: 0.8"/>
     <use xlink:href="#m715ea754d0" x="202.796493" y="178.461433" style="fill: #94a4a2; fill-opacity: 0.8; stroke: #94a4a2; stroke-opacity: 0.8"/>
    </g>
   </g>
   <g id="PathCollection_5">
    <defs>
     <path id="m523d9cfd4b" d="M 0 3 
C 0.795609 3 1.55874 2.683901 2.12132 2.12132 
C 2.683901 1.55874 3 0.795609 3 0 
C 3 -0.795609 2.683901 -1.55874 2.12132 -2.12132 
C 1.55874 -2.683901 0.795609 -3 0 -3 
C -0.795609 -3 -1.55874 -2.683901 -2.12132 -2.12132 
C -2.683901 -1.55874 -3 -0.795609 -3 0 
C -3 0.795609 -2.683901 1.55874 -2.12132 2.12132 
C -1.55874 2.683901 -0.795609 3 0 3 
z
" style="stroke: #832db6; stroke-opacity: 0.8"/>
    </defs>
    <g clip-path="url(#p177f60ffde)">
     <use xlink:href="#m523d9cfd4b" x="215.699813" y="107.943235" style="fill: #832db6; fill-opacity: 0.8; stroke: #832db6; stroke-opacity: 0.8"/>
     <use xlink:href="#m523d9cfd4b" x="158.448563" y="147.815071" style="fill: #832db6; fill-opacity: 0.8; stroke: #832db6; stroke-opacity: 0.8"/>
     <use xlink:href="#m523d9cfd4b" x="259.062387" y="86.522348" style="fill: #832db6; fill-opacity: 0.8; stroke: #832db6; stroke-opacity: 0.8"/>
     <use xlink:href="#m523d9cfd4b" x="196.239337" y="178.461433" style="fill: #832db6; fill-opacity: 0.8; stroke: #832db6; stroke-opacity: 0.8"/>
     <use xlink:href="#m523d9cfd4b" x="226.396563" y="86.522348" style="fill: #832db6; fill-opacity: 0.8; stroke: #832db6; stroke-opacity: 0.8"/>
    </g>
   </g>
   <g id="PathCollection_6">
    <defs>
     <path id="mab218c8e5a" d="M 0 3 
C 0.795609 3 1.55874 2.683901 2.12132 2.12132 
C 2.683901 1.55874 3 0.795609 3 0 
C 3 -0.795609 2.683901 -1.55874 2.12132 -2.12132 
C 1.55874 -2.683901 0.795609 -3 0 -3 
C -0.795609 -3 -1.55874 -2.683901 -2.12132 -2.12132 
C -2.683901 -1.55874 -3 -0.795609 -3 0 
C -3 0.795609 -2.683901 1.55874 -2.12132 2.12132 
C -1.55874 2.683901 -0.795609 3 0 3 
z
" style="stroke: #a96b59; stroke-opacity: 0.8"/>
    </defs>
    <g clip-path="url(#p177f60ffde)">
     <use xlink:href="#mab218c8e5a" x="200.745232" y="135.097648" style="fill: #a96b59; fill-opacity: 0.8; stroke: #a96b59; stroke-opacity: 0.8"/>
     <use xlink:href="#mab218c8e5a" x="208.645026" y="143.336779" style="fill: #a96b59; fill-opacity: 0.8; stroke: #a96b59; stroke-opacity: 0.8"/>
     <use xlink:href="#mab218c8e5a" x="196.073808" y="120.138649" style="fill: #a96b59; fill-opacity: 0.8; stroke: #a96b59; stroke-opacity: 0.8"/>
     <use xlink:href="#mab218c8e5a" x="205.004929" y="145.388454" style="fill: #a96b59; fill-opacity: 0.8; stroke: #a96b59; stroke-opacity: 0.8"/>
     <use xlink:href="#mab218c8e5a" x="196.907252" y="108.625926" style="fill: #a96b59; fill-opacity: 0.8; stroke: #a96b59; stroke-opacity: 0.8"/>
     <use xlink:href="#mab218c8e5a" x="248.356378" y="138.589597" style="fill: #a96b59; fill-opacity: 0.8; stroke: #a96b59; stroke-opacity: 0.8"/>
     <use xlink:href="#mab218c8e5a" x="186.52599" y="143.336779" style="fill: #a96b59; fill-opacity: 0.8; stroke: #a96b59; stroke-opacity: 0.8"/>
     <use xlink:href="#mab218c8e5a" x="170.793703" y="145.388454" style="fill: #a96b59; fill-opacity: 0.8; stroke: #a96b59; stroke-opacity: 0.8"/>
     <use xlink:href="#mab218c8e5a" x="166.859025" y="150.785011" style="fill: #a96b59; fill-opacity: 0.8; stroke: #a96b59; stroke-opacity: 0.8"/>
     <use xlink:href="#mab218c8e5a" x="197.817816" y="138.589597" style="fill: #a96b59; fill-opacity: 0.8; stroke: #a96b59; stroke-opacity: 0.8"/>
    </g>
   </g>
   <g id="PathCollection_7">
    <defs>
     <path id="m1b7fd9d585" d="M 0 3 
C 0.795609 3 1.55874 2.683901 2.12132 2.12132 
C 2.683901 1.55874 3 0.795609 3 0 
C 3 -0.795609 2.683901 -1.55874 2.12132 -2.12132 
C 1.55874 -2.683901 0.795609 -3 0 -3 
C -0.795609 -3 -1.55874 -2.683901 -2.12132 -2.12132 
C -2.683901 -1.55874 -3 -0.795609 -3 0 
C -3 0.795609 -2.683901 1.55874 -2.12132 2.12132 
C -1.55874 2.683901 -0.795609 3 0 3 
z
" style="stroke: #e76300; stroke-opacity: 0.8"/>
    </defs>
    <g clip-path="url(#p177f60ffde)">
     <use xlink:href="#m1b7fd9d585" x="195.396699" y="125.679057" style="fill: #e76300; fill-opacity: 0.8; stroke: #e76300; stroke-opacity: 0.8"/>
     <use xlink:href="#m1b7fd9d585" x="193.873688" y="96.291144" style="fill: #e76300; fill-opacity: 0.8; stroke: #e76300; stroke-opacity: 0.8"/>
     <use xlink:href="#m1b7fd9d585" x="238.716839" y="142.068243" style="fill: #e76300; fill-opacity: 0.8; stroke: #e76300; stroke-opacity: 0.8"/>
     <use xlink:href="#m1b7fd9d585" x="215.656672" y="96.291144" style="fill: #e76300; fill-opacity: 0.8; stroke: #e76300; stroke-opacity: 0.8"/>
     <use xlink:href="#m1b7fd9d585" x="268.539593" y="96.291144" style="fill: #e76300; fill-opacity: 0.8; stroke: #e76300; stroke-opacity: 0.8"/>
    </g>
   </g>
   <g id="PathCollection_8">
    <defs>
     <path id="m905bdb463f" d="M 0 3 
C 0.795609 3 1.55874 2.683901 2.12132 2.12132 
C 2.683901 1.55874 3 0.795609 3 0 
C 3 -0.795609 2.683901 -1.55874 2.12132 -2.12132 
C 1.55874 -2.683901 0.795609 -3 0 -3 
C -0.795609 -3 -1.55874 -2.683901 -2.12132 -2.12132 
C -2.683901 -1.55874 -3 -0.795609 -3 0 
C -3 0.795609 -2.683901 1.55874 -2.12132 2.12132 
C -1.55874 2.683901 -0.795609 3 0 3 
z
" style="stroke: #b9ac70; stroke-opacity: 0.8"/>
    </defs>
    <g clip-path="url(#p177f60ffde)">
     <use xlink:href="#m905bdb463f" x="225.963746" y="123.407219" style="fill: #b9ac70; fill-opacity: 0.8; stroke: #b9ac70; stroke-opacity: 0.8"/>
     <use xlink:href="#m905bdb463f" x="183.21412" y="156.881782" style="fill: #b9ac70; fill-opacity: 0.8; stroke: #b9ac70; stroke-opacity: 0.8"/>
     <use xlink:href="#m905bdb463f" x="172.218428" y="143.528286" style="fill: #b9ac70; fill-opacity: 0.8; stroke: #b9ac70; stroke-opacity: 0.8"/>
     <use xlink:href="#m905bdb463f" x="228.323286" y="127.217717" style="fill: #b9ac70; fill-opacity: 0.8; stroke: #b9ac70; stroke-opacity: 0.8"/>
     <use xlink:href="#m905bdb463f" x="205.601011" y="96.291144" style="fill: #b9ac70; fill-opacity: 0.8; stroke: #b9ac70; stroke-opacity: 0.8"/>
     <use xlink:href="#m905bdb463f" x="189.958567" y="134.894445" style="fill: #b9ac70; fill-opacity: 0.8; stroke: #b9ac70; stroke-opacity: 0.8"/>
     <use xlink:href="#m905bdb463f" x="191.302854" y="118.106" style="fill: #b9ac70; fill-opacity: 0.8; stroke: #b9ac70; stroke-opacity: 0.8"/>
     <use xlink:href="#m905bdb463f" x="212.506713" y="176.258511" style="fill: #b9ac70; fill-opacity: 0.8; stroke: #b9ac70; stroke-opacity: 0.8"/>
     <use xlink:href="#m905bdb463f" x="217.919788" y="96.291144" style="fill: #b9ac70; fill-opacity: 0.8; stroke: #b9ac70; stroke-opacity: 0.8"/>
    </g>
   </g>
   <g id="PathCollection_9">
    <defs>
     <path id="m25cf32d0e6" d="M 0 3 
C 0.795609 3 1.55874 2.683901 2.12132 2.12132 
C 2.683901 1.55874 3 0.795609 3 0 
C 3 -0.795609 2.683901 -1.55874 2.12132 -2.12132 
C 1.55874 -2.683901 0.795609 -3 0 -3 
C -0.795609 -3 -1.55874 -2.683901 -2.12132 -2.12132 
C -2.683901 -1.55874 -3 -0.795609 -3 0 
C -3 0.795609 -2.683901 1.55874 -2.12132 2.12132 
C -1.55874 2.683901 -0.795609 3 0 3 
z
" style="stroke: #717581; stroke-opacity: 0.8"/>
    </defs>
    <g clip-path="url(#p177f60ffde)">
     <use xlink:href="#m25cf32d0e6" x="169.62651" y="158.035082" style="fill: #717581; fill-opacity: 0.8; stroke: #717581; stroke-opacity: 0.8"/>
     <use xlink:href="#m25cf32d0e6" x="157.10928" y="172.888589" style="fill: #717581; fill-opacity: 0.8; stroke: #717581; stroke-opacity: 0.8"/>
     <use xlink:href="#m25cf32d0e6" x="151.439064" y="185.26029" style="fill: #717581; fill-opacity: 0.8; stroke: #717581; stroke-opacity: 0.8"/>
     <use xlink:href="#m25cf32d0e6" x="145.840075" y="181.431372" style="fill: #717581; fill-opacity: 0.8; stroke: #717581; stroke-opacity: 0.8"/>
     <use xlink:href="#m25cf32d0e6" x="191.408701" y="159.488475" style="fill: #717581; fill-opacity: 0.8; stroke: #717581; stroke-opacity: 0.8"/>
     <use xlink:href="#m25cf32d0e6" x="127.659428" y="148.330694" style="fill: #717581; fill-opacity: 0.8; stroke: #717581; stroke-opacity: 0.8"/>
    </g>
   </g>
   <g id="PathCollection_10">
    <defs>
     <path id="md0a94f96df" d="M 0 3 
C 0.795609 3 1.55874 2.683901 2.12132 2.12132 
C 2.683901 1.55874 3 0.795609 3 0 
C 3 -0.795609 2.683901 -1.55874 2.12132 -2.12132 
C 1.55874 -2.683901 0.795609 -3 0 -3 
C -0.795609 -3 -1.55874 -2.683901 -2.12132 -2.12132 
C -2.683901 -1.55874 -3 -0.795609 -3 0 
C -3 0.795609 -2.683901 1.55874 -2.12132 2.12132 
C -1.55874 2.683901 -0.795609 3 0 3 
z
" style="stroke: #92dadd; stroke-opacity: 0.8"/>
    </defs>
    <g clip-path="url(#p177f60ffde)">
     <use xlink:href="#md0a94f96df" x="165.813989" y="135.524172" style="fill: #92dadd; fill-opacity: 0.8; stroke: #92dadd; stroke-opacity: 0.8"/>
     <use xlink:href="#md0a94f96df" x="145.947447" y="160.010485" style="fill: #92dadd; fill-opacity: 0.8; stroke: #92dadd; stroke-opacity: 0.8"/>
     <use xlink:href="#md0a94f96df" x="193.36983" y="132.459428" style="fill: #92dadd; fill-opacity: 0.8; stroke: #92dadd; stroke-opacity: 0.8"/>
     <use xlink:href="#md0a94f96df" x="212.695264" y="153.922368" style="fill: #92dadd; fill-opacity: 0.8; stroke: #92dadd; stroke-opacity: 0.8"/>
     <use xlink:href="#md0a94f96df" x="157.33669" y="150.851725" style="fill: #92dadd; fill-opacity: 0.8; stroke: #92dadd; stroke-opacity: 0.8"/>
     <use xlink:href="#md0a94f96df" x="188.954876" y="181.431372" style="fill: #92dadd; fill-opacity: 0.8; stroke: #92dadd; stroke-opacity: 0.8"/>
    </g>
   </g>
   <g id="PathCollection_11">
    <defs>
     <path id="m49f2f3ddfb" d="M 0 -3 
L -3 3 
L 3 3 
z
" style="stroke: #3f90da; stroke-opacity: 0.8"/>
    </defs>
    <g clip-path="url(#p177f60ffde)">
     <use xlink:href="#m49f2f3ddfb" x="78.256953" y="112.652444" style="fill: #3f90da; fill-opacity: 0.8; stroke: #3f90da; stroke-opacity: 0.8"/>
     <use xlink:href="#m49f2f3ddfb" x="255.947306" y="147.039539" style="fill: #3f90da; fill-opacity: 0.8; stroke: #3f90da; stroke-opacity: 0.8"/>
     <use xlink:href="#m49f2f3ddfb" x="182.394678" y="136.274358" style="fill: #3f90da; fill-opacity: 0.8; stroke: #3f90da; stroke-opacity: 0.8"/>
     <use xlink:href="#m49f2f3ddfb" x="175.311234" y="164.757666" style="fill: #3f90da; fill-opacity: 0.8; stroke: #3f90da; stroke-opacity: 0.8"/>
     <use xlink:href="#m49f2f3ddfb" x="171.493003" y="192.059147" style="fill: #3f90da; fill-opacity: 0.8; stroke: #3f90da; stroke-opacity: 0.8"/>
    </g>
   </g>
   <g id="PathCollection_12">
    <defs>
     <path id="m6533d2f974" d="M 0 -3 
L -3 3 
L 3 3 
z
" style="stroke: #ffa90e; stroke-opacity: 0.8"/>
    </defs>
    <g clip-path="url(#p177f60ffde)">
     <use xlink:href="#m6533d2f974" x="162.241742" y="181.431372" style="fill: #ffa90e; fill-opacity: 0.8; stroke: #ffa90e; stroke-opacity: 0.8"/>
     <use xlink:href="#m6533d2f974" x="134.11499" y="190.656847" style="fill: #ffa90e; fill-opacity: 0.8; stroke: #ffa90e; stroke-opacity: 0.8"/>
     <use xlink:href="#m6533d2f974" x="134.438958" y="190.656847" style="fill: #ffa90e; fill-opacity: 0.8; stroke: #ffa90e; stroke-opacity: 0.8"/>
     <use xlink:href="#m6533d2f974" x="111.811701" y="185.26029" style="fill: #ffa90e; fill-opacity: 0.8; stroke: #ffa90e; stroke-opacity: 0.8"/>
     <use xlink:href="#m6533d2f974" x="137.858065" y="185.26029" style="fill: #ffa90e; fill-opacity: 0.8; stroke: #ffa90e; stroke-opacity: 0.8"/>
     <use xlink:href="#m6533d2f974" x="160.387053" y="185.26029" style="fill: #ffa90e; fill-opacity: 0.8; stroke: #ffa90e; stroke-opacity: 0.8"/>
    </g>
   </g>
   <g id="PathCollection_13">
    <defs>
     <path id="m8f29316750" d="M 0 -3 
L -3 3 
L 3 3 
z
" style="stroke: #bd1f01; stroke-opacity: 0.8"/>
    </defs>
    <g clip-path="url(#p177f60ffde)">
     <use xlink:href="#m8f29316750" x="198.169599" y="118.57101" style="fill: #bd1f01; fill-opacity: 0.8; stroke: #bd1f01; stroke-opacity: 0.8"/>
     <use xlink:href="#m8f29316750" x="199.756955" y="143.919772" style="fill: #bd1f01; fill-opacity: 0.8; stroke: #bd1f01; stroke-opacity: 0.8"/>
     <use xlink:href="#m8f29316750" x="208.323201" y="86.522348" style="fill: #bd1f01; fill-opacity: 0.8; stroke: #bd1f01; stroke-opacity: 0.8"/>
     <use xlink:href="#m8f29316750" x="213.90401" y="107.943235" style="fill: #bd1f01; fill-opacity: 0.8; stroke: #bd1f01; stroke-opacity: 0.8"/>
     <use xlink:href="#m8f29316750" x="226.162075" y="95.520844" style="fill: #bd1f01; fill-opacity: 0.8; stroke: #bd1f01; stroke-opacity: 0.8"/>
     <use xlink:href="#m8f29316750" x="190.798851" y="131.371507" style="fill: #bd1f01; fill-opacity: 0.8; stroke: #bd1f01; stroke-opacity: 0.8"/>
     <use xlink:href="#m8f29316750" x="196.357048" y="166.809342" style="fill: #bd1f01; fill-opacity: 0.8; stroke: #bd1f01; stroke-opacity: 0.8"/>
     <use xlink:href="#m8f29316750" x="241.754949" y="146.306718" style="fill: #bd1f01; fill-opacity: 0.8; stroke: #bd1f01; stroke-opacity: 0.8"/>
     <use xlink:href="#m8f29316750" x="188.087878" y="127.161201" style="fill: #bd1f01; fill-opacity: 0.8; stroke: #bd1f01; stroke-opacity: 0.8"/>
     <use xlink:href="#m8f29316750" x="222.136795" y="150.456363" style="fill: #bd1f01; fill-opacity: 0.8; stroke: #bd1f01; stroke-opacity: 0.8"/>
     <use xlink:href="#m8f29316750" x="193.503606" y="156.518536" style="fill: #bd1f01; fill-opacity: 0.8; stroke: #bd1f01; stroke-opacity: 0.8"/>
     <use xlink:href="#m8f29316750" x="206.360015" y="107.943235" style="fill: #bd1f01; fill-opacity: 0.8; stroke: #bd1f01; stroke-opacity: 0.8"/>
     <use xlink:href="#m8f29316750" x="197.429318" y="130.117049" style="fill: #bd1f01; fill-opacity: 0.8; stroke: #bd1f01; stroke-opacity: 0.8"/>
     <use xlink:href="#m8f29316750" x="180.355997" y="145.839668" style="fill: #bd1f01; fill-opacity: 0.8; stroke: #bd1f01; stroke-opacity: 0.8"/>
     <use xlink:href="#m8f29316750" x="196.15225" y="140.910162" style="fill: #bd1f01; fill-opacity: 0.8; stroke: #bd1f01; stroke-opacity: 0.8"/>
     <use xlink:href="#m8f29316750" x="179.580358" y="146.546536" style="fill: #bd1f01; fill-opacity: 0.8; stroke: #bd1f01; stroke-opacity: 0.8"/>
     <use xlink:href="#m8f29316750" x="200.625562" y="136.386675" style="fill: #bd1f01; fill-opacity: 0.8; stroke: #bd1f01; stroke-opacity: 0.8"/>
     <use xlink:href="#m8f29316750" x="168.55001" y="116.519335" style="fill: #bd1f01; fill-opacity: 0.8; stroke: #bd1f01; stroke-opacity: 0.8"/>
    </g>
   </g>
   <g id="PathCollection_14">
    <defs>
     <path id="m48c37c6a27" d="M 0 -3 
L -3 3 
L 3 3 
z
" style="stroke: #94a4a2; stroke-opacity: 0.8"/>
    </defs>
    <g clip-path="url(#p177f60ffde)">
     <use xlink:href="#m48c37c6a27" x="208.384829" y="105.026641" style="fill: #94a4a2; fill-opacity: 0.8; stroke: #94a4a2; stroke-opacity: 0.8"/>
     <use xlink:href="#m48c37c6a27" x="175.742147" y="136.499949" style="fill: #94a4a2; fill-opacity: 0.8; stroke: #94a4a2; stroke-opacity: 0.8"/>
     <use xlink:href="#m48c37c6a27" x="227.339474" y="98.428126" style="fill: #94a4a2; fill-opacity: 0.8; stroke: #94a4a2; stroke-opacity: 0.8"/>
     <use xlink:href="#m48c37c6a27" x="222.963981" y="112.041042" style="fill: #94a4a2; fill-opacity: 0.8; stroke: #94a4a2; stroke-opacity: 0.8"/>
     <use xlink:href="#m48c37c6a27" x="208.317503" y="99.212647" style="fill: #94a4a2; fill-opacity: 0.8; stroke: #94a4a2; stroke-opacity: 0.8"/>
     <use xlink:href="#m48c37c6a27" x="192.703808" y="128.156224" style="fill: #94a4a2; fill-opacity: 0.8; stroke: #94a4a2; stroke-opacity: 0.8"/>
     <use xlink:href="#m48c37c6a27" x="221.309508" y="162.980424" style="fill: #94a4a2; fill-opacity: 0.8; stroke: #94a4a2; stroke-opacity: 0.8"/>
     <use xlink:href="#m48c37c6a27" x="208.530885" y="131.684687" style="fill: #94a4a2; fill-opacity: 0.8; stroke: #94a4a2; stroke-opacity: 0.8"/>
     <use xlink:href="#m48c37c6a27" x="177.728705" y="131.527176" style="fill: #94a4a2; fill-opacity: 0.8; stroke: #94a4a2; stroke-opacity: 0.8"/>
     <use xlink:href="#m48c37c6a27" x="186.107086" y="156.518536" style="fill: #94a4a2; fill-opacity: 0.8; stroke: #94a4a2; stroke-opacity: 0.8"/>
     <use xlink:href="#m48c37c6a27" x="188.067022" y="162.980424" style="fill: #94a4a2; fill-opacity: 0.8; stroke: #94a4a2; stroke-opacity: 0.8"/>
     <use xlink:href="#m48c37c6a27" x="205.82235" y="86.522348" style="fill: #94a4a2; fill-opacity: 0.8; stroke: #94a4a2; stroke-opacity: 0.8"/>
     <use xlink:href="#m48c37c6a27" x="204.11664" y="114.00848" style="fill: #94a4a2; fill-opacity: 0.8; stroke: #94a4a2; stroke-opacity: 0.8"/>
     <use xlink:href="#m48c37c6a27" x="198.340703" y="157.040545" style="fill: #94a4a2; fill-opacity: 0.8; stroke: #94a4a2; stroke-opacity: 0.8"/>
     <use xlink:href="#m48c37c6a27" x="190.61037" y="131.684687" style="fill: #94a4a2; fill-opacity: 0.8; stroke: #94a4a2; stroke-opacity: 0.8"/>
     <use xlink:href="#m48c37c6a27" x="147.680692" y="153.345393" style="fill: #94a4a2; fill-opacity: 0.8; stroke: #94a4a2; stroke-opacity: 0.8"/>
     <use xlink:href="#m48c37c6a27" x="205.679949" y="141.896505" style="fill: #94a4a2; fill-opacity: 0.8; stroke: #94a4a2; stroke-opacity: 0.8"/>
     <use xlink:href="#m48c37c6a27" x="213.608259" y="136.386675" style="fill: #94a4a2; fill-opacity: 0.8; stroke: #94a4a2; stroke-opacity: 0.8"/>
    </g>
   </g>
   <g id="PathCollection_15">
    <defs>
     <path id="mf846854f41" d="M 0 -3 
L -3 3 
L 3 3 
z
" style="stroke: #832db6; stroke-opacity: 0.8"/>
    </defs>
    <g clip-path="url(#p177f60ffde)">
     <use xlink:href="#mf846854f41" x="220.559561" y="114.19877" style="fill: #832db6; fill-opacity: 0.8; stroke: #832db6; stroke-opacity: 0.8"/>
     <use xlink:href="#mf846854f41" x="184.540713" y="136.614194" style="fill: #832db6; fill-opacity: 0.8; stroke: #832db6; stroke-opacity: 0.8"/>
     <use xlink:href="#mf846854f41" x="211.003358" y="147.039539" style="fill: #832db6; fill-opacity: 0.8; stroke: #832db6; stroke-opacity: 0.8"/>
     <use xlink:href="#mf846854f41" x="210.438551" y="109.053007" style="fill: #832db6; fill-opacity: 0.8; stroke: #832db6; stroke-opacity: 0.8"/>
     <use xlink:href="#mf846854f41" x="208.609374" y="109.125538" style="fill: #832db6; fill-opacity: 0.8; stroke: #832db6; stroke-opacity: 0.8"/>
     <use xlink:href="#mf846854f41" x="235.750714" y="105.080201" style="fill: #832db6; fill-opacity: 0.8; stroke: #832db6; stroke-opacity: 0.8"/>
    </g>
   </g>
   <g id="PolyCollection_1">
    <defs>
     <path id="m4652f1dca1" d="M 55.478 -64.142576 
L 55.478 -19.777424 
L 66.867476 -30.868712 
L 78.256953 -41.96 
L 89.646429 -53.051288 
L 101.035905 -64.142576 
L 112.425381 -75.233865 
L 123.814858 -86.325153 
L 135.204334 -97.416441 
L 146.59381 -108.507729 
L 157.983286 -119.599017 
L 169.372763 -130.690306 
L 180.762239 -141.781594 
L 192.151715 -152.872882 
L 203.541192 -163.96417 
L 214.930668 -175.055458 
L 226.320144 -186.146746 
L 237.70962 -197.238035 
L 249.099097 -208.329323 
L 260.488573 -219.420611 
L 271.878049 -230.511899 
L 283.267525 -241.603187 
L 294.657002 -252.694476 
L 294.657002 -297.059628 
L 294.657002 -297.059628 
L 283.267525 -285.96834 
L 271.878049 -274.877052 
L 260.488573 -263.785764 
L 249.099097 -252.694476 
L 237.70962 -241.603187 
L 226.320144 -230.511899 
L 214.930668 -219.420611 
L 203.541192 -208.329323 
L 192.151715 -197.238035 
L 180.762239 -186.146746 
L 169.372763 -175.055458 
L 157.983286 -163.96417 
L 146.59381 -152.872882 
L 135.204334 -141.781594 
L 123.814858 -130.690306 
L 112.425381 -119.599017 
L 101.035905 -108.507729 
L 89.646429 -97.416441 
L 78.256953 -86.325153 
L 66.867476 -75.233865 
L 55.478 -64.142576 
z
" style="stroke: #808080; stroke-opacity: 0.2"/>
    </defs>
    <g clip-path="url(#p177f60ffde)">
     <use xlink:href="#m4652f1dca1" x="0" y="313.2" style="fill: #808080; fill-opacity: 0.2; stroke: #808080; stroke-opacity: 0.2"/>
    </g>
   </g>
   <g id="matplotlib.axis_1">
    <g id="xtick_1">
     <g id="line2d_1">
      <path d="M 93.08136 271.24 
L 93.08136 41.574 
" clip-path="url(#p177f60ffde)" style="fill: none; stroke: #b0b0b0; stroke-width: 0.8; stroke-linecap: square"/>
     </g>
     <g id="line2d_2">
      <defs>
       <path id="m18761fa78e" d="M 0 0 
L 0 3.5 
" style="stroke: #000000; stroke-width: 0.8"/>
      </defs>
      <g>
       <use xlink:href="#m18761fa78e" x="93.08136" y="271.24" style="stroke: #000000; stroke-width: 0.8"/>
      </g>
     </g>
     <g id="text_1">
      <!-- −14 -->
      <g transform="translate(82.529017 285.838437) scale(0.1 -0.1)">
       <defs>
        <path id="DejaVuSans-2212" d="M 678 2272 
L 4684 2272 
L 4684 1741 
L 678 1741 
L 678 2272 
z
" transform="scale(0.015625)"/>
        <path id="DejaVuSans-31" d="M 794 531 
L 1825 531 
L 1825 4091 
L 703 3866 
L 703 4441 
L 1819 4666 
L 2450 4666 
L 2450 531 
L 3481 531 
L 3481 0 
L 794 0 
L 794 531 
z
" transform="scale(0.015625)"/>
        <path id="DejaVuSans-34" d="M 2419 4116 
L 825 1625 
L 2419 1625 
L 2419 4116 
z
M 2253 4666 
L 3047 4666 
L 3047 1625 
L 3713 1625 
L 3713 1100 
L 3047 1100 
L 3047 0 
L 2419 0 
L 2419 1100 
L 313 1100 
L 313 1709 
L 2253 4666 
z
" transform="scale(0.015625)"/>
       </defs>
       <use xlink:href="#DejaVuSans-2212"/>
       <use xlink:href="#DejaVuSans-31" x="83.789062"/>
       <use xlink:href="#DejaVuSans-34" x="147.412109"/>
      </g>
     </g>
    </g>
    <g id="xtick_2">
     <g id="line2d_3">
      <path d="M 138.639266 271.24 
L 138.639266 41.574 
" clip-path="url(#p177f60ffde)" style="fill: none; stroke: #b0b0b0; stroke-width: 0.8; stroke-linecap: square"/>
     </g>
     <g id="line2d_4">
      <g>
       <use xlink:href="#m18761fa78e" x="138.639266" y="271.24" style="stroke: #000000; stroke-width: 0.8"/>
      </g>
     </g>
     <g id="text_2">
      <!-- −12 -->
      <g transform="translate(128.086922 285.838437) scale(0.1 -0.1)">
       <defs>
        <path id="DejaVuSans-32" d="M 1228 531 
L 3431 531 
L 3431 0 
L 469 0 
L 469 531 
Q 828 903 1448 1529 
Q 2069 2156 2228 2338 
Q 2531 2678 2651 2914 
Q 2772 3150 2772 3378 
Q 2772 3750 2511 3984 
Q 2250 4219 1831 4219 
Q 1534 4219 1204 4116 
Q 875 4013 500 3803 
L 500 4441 
Q 881 4594 1212 4672 
Q 1544 4750 1819 4750 
Q 2544 4750 2975 4387 
Q 3406 4025 3406 3419 
Q 3406 3131 3298 2873 
Q 3191 2616 2906 2266 
Q 2828 2175 2409 1742 
Q 1991 1309 1228 531 
z
" transform="scale(0.015625)"/>
       </defs>
       <use xlink:href="#DejaVuSans-2212"/>
       <use xlink:href="#DejaVuSans-31" x="83.789062"/>
       <use xlink:href="#DejaVuSans-32" x="147.412109"/>
      </g>
     </g>
    </g>
    <g id="xtick_3">
     <g id="line2d_5">
      <path d="M 184.197171 271.24 
L 184.197171 41.574 
" clip-path="url(#p177f60ffde)" style="fill: none; stroke: #b0b0b0; stroke-width: 0.8; stroke-linecap: square"/>
     </g>
     <g id="line2d_6">
      <g>
       <use xlink:href="#m18761fa78e" x="184.197171" y="271.24" style="stroke: #000000; stroke-width: 0.8"/>
      </g>
     </g>
     <g id="text_3">
      <!-- −10 -->
      <g transform="translate(173.644827 285.838437) scale(0.1 -0.1)">
       <defs>
        <path id="DejaVuSans-30" d="M 2034 4250 
Q 1547 4250 1301 3770 
Q 1056 3291 1056 2328 
Q 1056 1369 1301 889 
Q 1547 409 2034 409 
Q 2525 409 2770 889 
Q 3016 1369 3016 2328 
Q 3016 3291 2770 3770 
Q 2525 4250 2034 4250 
z
M 2034 4750 
Q 2819 4750 3233 4129 
Q 3647 3509 3647 2328 
Q 3647 1150 3233 529 
Q 2819 -91 2034 -91 
Q 1250 -91 836 529 
Q 422 1150 422 2328 
Q 422 3509 836 4129 
Q 1250 4750 2034 4750 
z
" transform="scale(0.015625)"/>
       </defs>
       <use xlink:href="#DejaVuSans-2212"/>
       <use xlink:href="#DejaVuSans-31" x="83.789062"/>
       <use xlink:href="#DejaVuSans-30" x="147.412109"/>
      </g>
     </g>
    </g>
    <g id="xtick_4">
     <g id="line2d_7">
      <path d="M 229.755076 271.24 
L 229.755076 41.574 
" clip-path="url(#p177f60ffde)" style="fill: none; stroke: #b0b0b0; stroke-width: 0.8; stroke-linecap: square"/>
     </g>
     <g id="line2d_8">
      <g>
       <use xlink:href="#m18761fa78e" x="229.755076" y="271.24" style="stroke: #000000; stroke-width: 0.8"/>
      </g>
     </g>
     <g id="text_4">
      <!-- −8 -->
      <g transform="translate(222.383982 285.838437) scale(0.1 -0.1)">
       <defs>
        <path id="DejaVuSans-38" d="M 2034 2216 
Q 1584 2216 1326 1975 
Q 1069 1734 1069 1313 
Q 1069 891 1326 650 
Q 1584 409 2034 409 
Q 2484 409 2743 651 
Q 3003 894 3003 1313 
Q 3003 1734 2745 1975 
Q 2488 2216 2034 2216 
z
M 1403 2484 
Q 997 2584 770 2862 
Q 544 3141 544 3541 
Q 544 4100 942 4425 
Q 1341 4750 2034 4750 
Q 2731 4750 3128 4425 
Q 3525 4100 3525 3541 
Q 3525 3141 3298 2862 
Q 3072 2584 2669 2484 
Q 3125 2378 3379 2068 
Q 3634 1759 3634 1313 
Q 3634 634 3220 271 
Q 2806 -91 2034 -91 
Q 1263 -91 848 271 
Q 434 634 434 1313 
Q 434 1759 690 2068 
Q 947 2378 1403 2484 
z
M 1172 3481 
Q 1172 3119 1398 2916 
Q 1625 2713 2034 2713 
Q 2441 2713 2670 2916 
Q 2900 3119 2900 3481 
Q 2900 3844 2670 4047 
Q 2441 4250 2034 4250 
Q 1625 4250 1398 4047 
Q 1172 3844 1172 3481 
z
" transform="scale(0.015625)"/>
       </defs>
       <use xlink:href="#DejaVuSans-2212"/>
       <use xlink:href="#DejaVuSans-38" x="83.789062"/>
      </g>
     </g>
    </g>
    <g id="xtick_5">
     <g id="line2d_9">
      <path d="M 275.312981 271.24 
L 275.312981 41.574 
" clip-path="url(#p177f60ffde)" style="fill: none; stroke: #b0b0b0; stroke-width: 0.8; stroke-linecap: square"/>
     </g>
     <g id="line2d_10">
      <g>
       <use xlink:href="#m18761fa78e" x="275.312981" y="271.24" style="stroke: #000000; stroke-width: 0.8"/>
      </g>
     </g>
     <g id="text_5">
      <!-- −6 -->
      <g transform="translate(267.941887 285.838437) scale(0.1 -0.1)">
       <defs>
        <path id="DejaVuSans-36" d="M 2113 2584 
Q 1688 2584 1439 2293 
Q 1191 2003 1191 1497 
Q 1191 994 1439 701 
Q 1688 409 2113 409 
Q 2538 409 2786 701 
Q 3034 994 3034 1497 
Q 3034 2003 2786 2293 
Q 2538 2584 2113 2584 
z
M 3366 4563 
L 3366 3988 
Q 3128 4100 2886 4159 
Q 2644 4219 2406 4219 
Q 1781 4219 1451 3797 
Q 1122 3375 1075 2522 
Q 1259 2794 1537 2939 
Q 1816 3084 2150 3084 
Q 2853 3084 3261 2657 
Q 3669 2231 3669 1497 
Q 3669 778 3244 343 
Q 2819 -91 2113 -91 
Q 1303 -91 875 529 
Q 447 1150 447 2328 
Q 447 3434 972 4092 
Q 1497 4750 2381 4750 
Q 2619 4750 2861 4703 
Q 3103 4656 3366 4563 
z
" transform="scale(0.015625)"/>
       </defs>
       <use xlink:href="#DejaVuSans-2212"/>
       <use xlink:href="#DejaVuSans-36" x="83.789062"/>
      </g>
     </g>
    </g>
    <g id="text_6">
     <!-- Predicted (kcal/mol) -->
     <g transform="translate(116.384991 299.516562) scale(0.1 -0.1)">
      <defs>
       <path id="DejaVuSans-Bold-50" d="M 588 4666 
L 2584 4666 
Q 3475 4666 3951 4270 
Q 4428 3875 4428 3144 
Q 4428 2409 3951 2014 
Q 3475 1619 2584 1619 
L 1791 1619 
L 1791 0 
L 588 0 
L 588 4666 
z
M 1791 3794 
L 1791 2491 
L 2456 2491 
Q 2806 2491 2997 2661 
Q 3188 2831 3188 3144 
Q 3188 3456 2997 3625 
Q 2806 3794 2456 3794 
L 1791 3794 
z
" transform="scale(0.015625)"/>
       <path id="DejaVuSans-Bold-72" d="M 3138 2547 
Q 2991 2616 2845 2648 
Q 2700 2681 2553 2681 
Q 2122 2681 1889 2404 
Q 1656 2128 1656 1613 
L 1656 0 
L 538 0 
L 538 3500 
L 1656 3500 
L 1656 2925 
Q 1872 3269 2151 3426 
Q 2431 3584 2822 3584 
Q 2878 3584 2943 3579 
Q 3009 3575 3134 3559 
L 3138 2547 
z
" transform="scale(0.015625)"/>
       <path id="DejaVuSans-Bold-65" d="M 4031 1759 
L 4031 1441 
L 1416 1441 
Q 1456 1047 1700 850 
Q 1944 653 2381 653 
Q 2734 653 3104 758 
Q 3475 863 3866 1075 
L 3866 213 
Q 3469 63 3072 -14 
Q 2675 -91 2278 -91 
Q 1328 -91 801 392 
Q 275 875 275 1747 
Q 275 2603 792 3093 
Q 1309 3584 2216 3584 
Q 3041 3584 3536 3087 
Q 4031 2591 4031 1759 
z
M 2881 2131 
Q 2881 2450 2695 2645 
Q 2509 2841 2209 2841 
Q 1884 2841 1681 2658 
Q 1478 2475 1428 2131 
L 2881 2131 
z
" transform="scale(0.015625)"/>
       <path id="DejaVuSans-Bold-64" d="M 2919 2988 
L 2919 4863 
L 4044 4863 
L 4044 0 
L 2919 0 
L 2919 506 
Q 2688 197 2409 53 
Q 2131 -91 1766 -91 
Q 1119 -91 703 423 
Q 288 938 288 1747 
Q 288 2556 703 3070 
Q 1119 3584 1766 3584 
Q 2128 3584 2408 3439 
Q 2688 3294 2919 2988 
z
M 2181 722 
Q 2541 722 2730 984 
Q 2919 1247 2919 1747 
Q 2919 2247 2730 2509 
Q 2541 2772 2181 2772 
Q 1825 2772 1636 2509 
Q 1447 2247 1447 1747 
Q 1447 1247 1636 984 
Q 1825 722 2181 722 
z
" transform="scale(0.015625)"/>
       <path id="DejaVuSans-Bold-69" d="M 538 3500 
L 1656 3500 
L 1656 0 
L 538 0 
L 538 3500 
z
M 538 4863 
L 1656 4863 
L 1656 3950 
L 538 3950 
L 538 4863 
z
" transform="scale(0.015625)"/>
       <path id="DejaVuSans-Bold-63" d="M 3366 3391 
L 3366 2478 
Q 3138 2634 2908 2709 
Q 2678 2784 2431 2784 
Q 1963 2784 1702 2511 
Q 1441 2238 1441 1747 
Q 1441 1256 1702 982 
Q 1963 709 2431 709 
Q 2694 709 2930 787 
Q 3166 866 3366 1019 
L 3366 103 
Q 3103 6 2833 -42 
Q 2563 -91 2291 -91 
Q 1344 -91 809 395 
Q 275 881 275 1747 
Q 275 2613 809 3098 
Q 1344 3584 2291 3584 
Q 2566 3584 2833 3536 
Q 3100 3488 3366 3391 
z
" transform="scale(0.015625)"/>
       <path id="DejaVuSans-Bold-74" d="M 1759 4494 
L 1759 3500 
L 2913 3500 
L 2913 2700 
L 1759 2700 
L 1759 1216 
Q 1759 972 1856 886 
Q 1953 800 2241 800 
L 2816 800 
L 2816 0 
L 1856 0 
Q 1194 0 917 276 
Q 641 553 641 1216 
L 641 2700 
L 84 2700 
L 84 3500 
L 641 3500 
L 641 4494 
L 1759 4494 
z
" transform="scale(0.015625)"/>
       <path id="DejaVuSans-Bold-20" transform="scale(0.015625)"/>
       <path id="DejaVuSans-Bold-28" d="M 2413 -844 
L 1484 -844 
Q 1006 -72 778 623 
Q 550 1319 550 2003 
Q 550 2688 779 3389 
Q 1009 4091 1484 4856 
L 2413 4856 
Q 2013 4116 1813 3408 
Q 1613 2700 1613 2009 
Q 1613 1319 1811 609 
Q 2009 -100 2413 -844 
z
" transform="scale(0.015625)"/>
       <path id="DejaVuSans-Bold-6b" d="M 538 4863 
L 1656 4863 
L 1656 2216 
L 2944 3500 
L 4244 3500 
L 2534 1894 
L 4378 0 
L 3022 0 
L 1656 1459 
L 1656 0 
L 538 0 
L 538 4863 
z
" transform="scale(0.015625)"/>
       <path id="DejaVuSans-Bold-61" d="M 2106 1575 
Q 1756 1575 1579 1456 
Q 1403 1338 1403 1106 
Q 1403 894 1545 773 
Q 1688 653 1941 653 
Q 2256 653 2472 879 
Q 2688 1106 2688 1447 
L 2688 1575 
L 2106 1575 
z
M 3816 1997 
L 3816 0 
L 2688 0 
L 2688 519 
Q 2463 200 2181 54 
Q 1900 -91 1497 -91 
Q 953 -91 614 226 
Q 275 544 275 1050 
Q 275 1666 698 1953 
Q 1122 2241 2028 2241 
L 2688 2241 
L 2688 2328 
Q 2688 2594 2478 2717 
Q 2269 2841 1825 2841 
Q 1466 2841 1156 2769 
Q 847 2697 581 2553 
L 581 3406 
Q 941 3494 1303 3539 
Q 1666 3584 2028 3584 
Q 2975 3584 3395 3211 
Q 3816 2838 3816 1997 
z
" transform="scale(0.015625)"/>
       <path id="DejaVuSans-Bold-6c" d="M 538 4863 
L 1656 4863 
L 1656 0 
L 538 0 
L 538 4863 
z
" transform="scale(0.015625)"/>
       <path id="DejaVuSans-Bold-2f" d="M 1644 4666 
L 2338 4666 
L 691 -594 
L 0 -594 
L 1644 4666 
z
" transform="scale(0.015625)"/>
       <path id="DejaVuSans-Bold-6d" d="M 3781 2919 
Q 3994 3244 4286 3414 
Q 4578 3584 4928 3584 
Q 5531 3584 5847 3212 
Q 6163 2841 6163 2131 
L 6163 0 
L 5038 0 
L 5038 1825 
Q 5041 1866 5042 1909 
Q 5044 1953 5044 2034 
Q 5044 2406 4934 2573 
Q 4825 2741 4581 2741 
Q 4263 2741 4089 2478 
Q 3916 2216 3909 1719 
L 3909 0 
L 2784 0 
L 2784 1825 
Q 2784 2406 2684 2573 
Q 2584 2741 2328 2741 
Q 2006 2741 1831 2477 
Q 1656 2213 1656 1722 
L 1656 0 
L 531 0 
L 531 3500 
L 1656 3500 
L 1656 2988 
Q 1863 3284 2130 3434 
Q 2397 3584 2719 3584 
Q 3081 3584 3359 3409 
Q 3638 3234 3781 2919 
z
" transform="scale(0.015625)"/>
       <path id="DejaVuSans-Bold-6f" d="M 2203 2784 
Q 1831 2784 1636 2517 
Q 1441 2250 1441 1747 
Q 1441 1244 1636 976 
Q 1831 709 2203 709 
Q 2569 709 2762 976 
Q 2956 1244 2956 1747 
Q 2956 2250 2762 2517 
Q 2569 2784 2203 2784 
z
M 2203 3584 
Q 3106 3584 3614 3096 
Q 4122 2609 4122 1747 
Q 4122 884 3614 396 
Q 3106 -91 2203 -91 
Q 1297 -91 786 396 
Q 275 884 275 1747 
Q 275 2609 786 3096 
Q 1297 3584 2203 3584 
z
" transform="scale(0.015625)"/>
       <path id="DejaVuSans-Bold-29" d="M 513 -844 
Q 913 -100 1113 609 
Q 1313 1319 1313 2009 
Q 1313 2700 1113 3408 
Q 913 4116 513 4856 
L 1441 4856 
Q 1916 4091 2145 3389 
Q 2375 2688 2375 2003 
Q 2375 1319 2147 623 
Q 1919 -72 1441 -844 
L 513 -844 
z
" transform="scale(0.015625)"/>
      </defs>
      <use xlink:href="#DejaVuSans-Bold-50"/>
      <use xlink:href="#DejaVuSans-Bold-72" x="73.291016"/>
      <use xlink:href="#DejaVuSans-Bold-65" x="122.607422"/>
      <use xlink:href="#DejaVuSans-Bold-64" x="190.429688"/>
      <use xlink:href="#DejaVuSans-Bold-69" x="262.011719"/>
      <use xlink:href="#DejaVuSans-Bold-63" x="296.289062"/>
      <use xlink:href="#DejaVuSans-Bold-74" x="355.566406"/>
      <use xlink:href="#DejaVuSans-Bold-65" x="403.369141"/>
      <use xlink:href="#DejaVuSans-Bold-64" x="471.191406"/>
      <use xlink:href="#DejaVuSans-Bold-20" x="542.773438"/>
      <use xlink:href="#DejaVuSans-Bold-28" x="577.587891"/>
      <use xlink:href="#DejaVuSans-Bold-6b" x="623.291016"/>
      <use xlink:href="#DejaVuSans-Bold-63" x="689.794922"/>
      <use xlink:href="#DejaVuSans-Bold-61" x="749.072266"/>
      <use xlink:href="#DejaVuSans-Bold-6c" x="816.552734"/>
      <use xlink:href="#DejaVuSans-Bold-2f" x="850.830078"/>
      <use xlink:href="#DejaVuSans-Bold-6d" x="887.353516"/>
      <use xlink:href="#DejaVuSans-Bold-6f" x="991.552734"/>
      <use xlink:href="#DejaVuSans-Bold-6c" x="1060.253906"/>
      <use xlink:href="#DejaVuSans-Bold-29" x="1094.53125"/>
     </g>
    </g>
   </g>
   <g id="matplotlib.axis_2">
    <g id="ytick_1">
     <g id="line2d_11">
      <path d="M 55.478 234.621134 
L 291.318545 234.621134 
" clip-path="url(#p177f60ffde)" style="fill: none; stroke: #b0b0b0; stroke-width: 0.8; stroke-linecap: square"/>
     </g>
     <g id="line2d_12">
      <defs>
       <path id="mde181e79d6" d="M 0 0 
L -3.5 0 
" style="stroke: #000000; stroke-width: 0.8"/>
      </defs>
      <g>
       <use xlink:href="#mde181e79d6" x="55.478" y="234.621134" style="stroke: #000000; stroke-width: 0.8"/>
      </g>
     </g>
     <g id="text_7">
      <!-- −14 -->
      <g transform="translate(27.373313 238.420352) scale(0.1 -0.1)">
       <use xlink:href="#DejaVuSans-2212"/>
       <use xlink:href="#DejaVuSans-31" x="83.789062"/>
       <use xlink:href="#DejaVuSans-34" x="147.412109"/>
      </g>
     </g>
    </g>
    <g id="ytick_2">
     <g id="line2d_13">
      <path d="M 55.478 190.255981 
L 291.318545 190.255981 
" clip-path="url(#p177f60ffde)" style="fill: none; stroke: #b0b0b0; stroke-width: 0.8; stroke-linecap: square"/>
     </g>
     <g id="line2d_14">
      <g>
       <use xlink:href="#mde181e79d6" x="55.478" y="190.255981" style="stroke: #000000; stroke-width: 0.8"/>
      </g>
     </g>
     <g id="text_8">
      <!-- −12 -->
      <g transform="translate(27.373313 194.0552) scale(0.1 -0.1)">
       <use xlink:href="#DejaVuSans-2212"/>
       <use xlink:href="#DejaVuSans-31" x="83.789062"/>
       <use xlink:href="#DejaVuSans-32" x="147.412109"/>
      </g>
     </g>
    </g>
    <g id="ytick_3">
     <g id="line2d_15">
      <path d="M 55.478 145.890828 
L 291.318545 145.890828 
" clip-path="url(#p177f60ffde)" style="fill: none; stroke: #b0b0b0; stroke-width: 0.8; stroke-linecap: square"/>
     </g>
     <g id="line2d_16">
      <g>
       <use xlink:href="#mde181e79d6" x="55.478" y="145.890828" style="stroke: #000000; stroke-width: 0.8"/>
      </g>
     </g>
     <g id="text_9">
      <!-- −10 -->
      <g transform="translate(27.373313 149.690047) scale(0.1 -0.1)">
       <use xlink:href="#DejaVuSans-2212"/>
       <use xlink:href="#DejaVuSans-31" x="83.789062"/>
       <use xlink:href="#DejaVuSans-30" x="147.412109"/>
      </g>
     </g>
    </g>
    <g id="ytick_4">
     <g id="line2d_17">
      <path d="M 55.478 101.525675 
L 291.318545 101.525675 
" clip-path="url(#p177f60ffde)" style="fill: none; stroke: #b0b0b0; stroke-width: 0.8; stroke-linecap: square"/>
     </g>
     <g id="line2d_18">
      <g>
       <use xlink:href="#mde181e79d6" x="55.478" y="101.525675" style="stroke: #000000; stroke-width: 0.8"/>
      </g>
     </g>
     <g id="text_10">
      <!-- −8 -->
      <g transform="translate(33.735813 105.324894) scale(0.1 -0.1)">
       <use xlink:href="#DejaVuSans-2212"/>
       <use xlink:href="#DejaVuSans-38" x="83.789062"/>
      </g>
     </g>
    </g>
    <g id="ytick_5">
     <g id="line2d_19">
      <path d="M 55.478 57.160523 
L 291.318545 57.160523 
" clip-path="url(#p177f60ffde)" style="fill: none; stroke: #b0b0b0; stroke-width: 0.8; stroke-linecap: square"/>
     </g>
     <g id="line2d_20">
      <g>
       <use xlink:href="#mde181e79d6" x="55.478" y="57.160523" style="stroke: #000000; stroke-width: 0.8"/>
      </g>
     </g>
     <g id="text_11">
      <!-- −6 -->
      <g transform="translate(33.735813 60.959741) scale(0.1 -0.1)">
       <use xlink:href="#DejaVuSans-2212"/>
       <use xlink:href="#DejaVuSans-36" x="83.789062"/>
      </g>
     </g>
    </g>
    <g id="text_12">
     <!-- RT$\bf{\cdot}$lnDC$\bf{_{50}}$ (kcal/mol) -->
     <g transform="translate(21.293625 213.607) rotate(-90) scale(0.1 -0.1)">
      <defs>
       <path id="DejaVuSans-Bold-52" d="M 2297 2597 
Q 2675 2597 2839 2737 
Q 3003 2878 3003 3200 
Q 3003 3519 2839 3656 
Q 2675 3794 2297 3794 
L 1791 3794 
L 1791 2597 
L 2297 2597 
z
M 1791 1766 
L 1791 0 
L 588 0 
L 588 4666 
L 2425 4666 
Q 3347 4666 3776 4356 
Q 4206 4047 4206 3378 
Q 4206 2916 3982 2619 
Q 3759 2322 3309 2181 
Q 3556 2125 3751 1926 
Q 3947 1728 4147 1325 
L 4800 0 
L 3519 0 
L 2950 1159 
Q 2778 1509 2601 1637 
Q 2425 1766 2131 1766 
L 1791 1766 
z
" transform="scale(0.015625)"/>
       <path id="DejaVuSans-Bold-54" d="M 31 4666 
L 4331 4666 
L 4331 3756 
L 2784 3756 
L 2784 0 
L 1581 0 
L 1581 3756 
L 31 3756 
L 31 4666 
z
" transform="scale(0.015625)"/>
       <path id="DejaVuSans-Bold-22c5" d="M 653 2828 
L 1778 2828 
L 1778 1619 
L 653 1619 
L 653 2828 
z
" transform="scale(0.015625)"/>
       <path id="DejaVuSans-Bold-6e" d="M 4056 2131 
L 4056 0 
L 2931 0 
L 2931 347 
L 2931 1631 
Q 2931 2084 2911 2256 
Q 2891 2428 2841 2509 
Q 2775 2619 2662 2680 
Q 2550 2741 2406 2741 
Q 2056 2741 1856 2470 
Q 1656 2200 1656 1722 
L 1656 0 
L 538 0 
L 538 3500 
L 1656 3500 
L 1656 2988 
Q 1909 3294 2193 3439 
Q 2478 3584 2822 3584 
Q 3428 3584 3742 3212 
Q 4056 2841 4056 2131 
z
" transform="scale(0.015625)"/>
       <path id="DejaVuSans-Bold-44" d="M 1791 3756 
L 1791 909 
L 2222 909 
Q 2959 909 3348 1275 
Q 3738 1641 3738 2338 
Q 3738 3031 3350 3393 
Q 2963 3756 2222 3756 
L 1791 3756 
z
M 588 4666 
L 1856 4666 
Q 2919 4666 3439 4514 
Q 3959 4363 4331 4000 
Q 4659 3684 4818 3271 
Q 4978 2859 4978 2338 
Q 4978 1809 4818 1395 
Q 4659 981 4331 666 
Q 3956 303 3431 151 
Q 2906 0 1856 0 
L 588 0 
L 588 4666 
z
" transform="scale(0.015625)"/>
       <path id="DejaVuSans-Bold-43" d="M 4288 256 
Q 3956 84 3597 -3 
Q 3238 -91 2847 -91 
Q 1681 -91 1000 561 
Q 319 1213 319 2328 
Q 319 3447 1000 4098 
Q 1681 4750 2847 4750 
Q 3238 4750 3597 4662 
Q 3956 4575 4288 4403 
L 4288 3438 
Q 3953 3666 3628 3772 
Q 3303 3878 2944 3878 
Q 2300 3878 1931 3465 
Q 1563 3053 1563 2328 
Q 1563 1606 1931 1193 
Q 2300 781 2944 781 
Q 3303 781 3628 887 
Q 3953 994 4288 1222 
L 4288 256 
z
" transform="scale(0.015625)"/>
       <path id="DejaVuSans-Bold-35" d="M 678 4666 
L 3669 4666 
L 3669 3781 
L 1638 3781 
L 1638 3059 
Q 1775 3097 1914 3117 
Q 2053 3138 2203 3138 
Q 3056 3138 3531 2711 
Q 4006 2284 4006 1522 
Q 4006 766 3489 337 
Q 2972 -91 2053 -91 
Q 1656 -91 1267 -14 
Q 878 63 494 219 
L 494 1166 
Q 875 947 1217 837 
Q 1559 728 1863 728 
Q 2300 728 2551 942 
Q 2803 1156 2803 1522 
Q 2803 1891 2551 2103 
Q 2300 2316 1863 2316 
Q 1603 2316 1309 2248 
Q 1016 2181 678 2041 
L 678 4666 
z
" transform="scale(0.015625)"/>
       <path id="DejaVuSans-Bold-30" d="M 2944 2338 
Q 2944 3213 2780 3570 
Q 2616 3928 2228 3928 
Q 1841 3928 1675 3570 
Q 1509 3213 1509 2338 
Q 1509 1453 1675 1090 
Q 1841 728 2228 728 
Q 2613 728 2778 1090 
Q 2944 1453 2944 2338 
z
M 4147 2328 
Q 4147 1169 3647 539 
Q 3147 -91 2228 -91 
Q 1306 -91 806 539 
Q 306 1169 306 2328 
Q 306 3491 806 4120 
Q 1306 4750 2228 4750 
Q 3147 4750 3647 4120 
Q 4147 3491 4147 2328 
z
" transform="scale(0.015625)"/>
      </defs>
      <use xlink:href="#DejaVuSans-Bold-52" transform="translate(0 0.015625)"/>
      <use xlink:href="#DejaVuSans-Bold-54" transform="translate(77.001953 0.015625)"/>
      <use xlink:href="#DejaVuSans-Bold-22c5" transform="translate(145.214844 0.015625)"/>
      <use xlink:href="#DejaVuSans-Bold-6c" transform="translate(183.203125 0.015625)"/>
      <use xlink:href="#DejaVuSans-Bold-6e" transform="translate(217.480469 0.015625)"/>
      <use xlink:href="#DejaVuSans-Bold-44" transform="translate(288.671875 0.015625)"/>
      <use xlink:href="#DejaVuSans-Bold-43" transform="translate(371.679688 0.015625)"/>
      <use xlink:href="#DejaVuSans-Bold-35" transform="translate(446.025391 -16.390625) scale(0.7)"/>
      <use xlink:href="#DejaVuSans-Bold-30" transform="translate(494.731445 -16.390625) scale(0.7)"/>
      <use xlink:href="#DejaVuSans-Bold-20" transform="translate(546.171875 0.015625)"/>
      <use xlink:href="#DejaVuSans-Bold-28" transform="translate(580.986328 0.015625)"/>
      <use xlink:href="#DejaVuSans-Bold-6b" transform="translate(626.689453 0.015625)"/>
      <use xlink:href="#DejaVuSans-Bold-63" transform="translate(693.193359 0.015625)"/>
      <use xlink:href="#DejaVuSans-Bold-61" transform="translate(752.470703 0.015625)"/>
      <use xlink:href="#DejaVuSans-Bold-6c" transform="translate(819.951172 0.015625)"/>
      <use xlink:href="#DejaVuSans-Bold-2f" transform="translate(854.228516 0.015625)"/>
      <use xlink:href="#DejaVuSans-Bold-6d" transform="translate(890.751953 0.015625)"/>
      <use xlink:href="#DejaVuSans-Bold-6f" transform="translate(994.951172 0.015625)"/>
      <use xlink:href="#DejaVuSans-Bold-6c" transform="translate(1063.652344 0.015625)"/>
      <use xlink:href="#DejaVuSans-Bold-29" transform="translate(1097.929688 0.015625)"/>
     </g>
    </g>
   </g>
   <g id="line2d_21">
    <path d="M 55.478 271.24 
L 66.867476 260.148712 
L 78.256953 249.057424 
L 89.646429 237.966135 
L 101.035905 226.874847 
L 112.425381 215.783559 
L 123.814858 204.692271 
L 135.204334 193.600983 
L 146.59381 182.509694 
L 157.983286 171.418406 
L 169.372763 160.327118 
L 180.762239 149.23583 
L 192.151715 138.144542 
L 203.541192 127.053254 
L 214.930668 115.961965 
L 226.320144 104.870677 
L 237.70962 93.779389 
L 249.099097 82.688101 
L 260.488573 71.596813 
L 271.878049 60.505524 
L 283.267525 49.414236 
L 294.657002 38.322948 
" clip-path="url(#p177f60ffde)" style="fill: none; stroke-dasharray: 3.7,1.6; stroke-dashoffset: 0; stroke: #000000"/>
   </g>
   <g id="patch_3">
    <path d="M 55.478 271.24 
L 55.478 41.574 
" style="fill: none; stroke: #000000; stroke-width: 0.8; stroke-linejoin: miter; stroke-linecap: square"/>
   </g>
   <g id="patch_4">
    <path d="M 291.318545 271.24 
L 291.318545 41.574 
" style="fill: none; stroke: #000000; stroke-width: 0.8; stroke-linejoin: miter; stroke-linecap: square"/>
   </g>
   <g id="patch_5">
    <path d="M 55.478 271.24 
L 291.318545 271.24 
" style="fill: none; stroke: #000000; stroke-width: 0.8; stroke-linejoin: miter; stroke-linecap: square"/>
   </g>
   <g id="patch_6">
    <path d="M 55.478 41.574 
L 291.318545 41.574 
" style="fill: none; stroke: #000000; stroke-width: 0.8; stroke-linejoin: miter; stroke-linecap: square"/>
   </g>
  </g>
  <g id="axes_2">
   <g id="legend_1">
    <g id="patch_7">
     <path d="M 311.218545 302.667156 
L 529.638858 302.667156 
Q 532.238858 302.667156 532.238858 300.067156 
L 532.238858 12.746844 
Q 532.238858 10.146844 529.638858 10.146844 
L 311.218545 10.146844 
Q 308.618545 10.146844 308.618545 12.746844 
L 308.618545 300.067156 
Q 308.618545 302.667156 311.218545 302.667156 
z
" style="fill: #ffffff; opacity: 0.8; stroke: #cccccc; stroke-linejoin: miter"/>
    </g>
    <g id="PathCollection_16">
     <g>
      <use xlink:href="#mf6464880e7" x="326.818545" y="21.812312" style="fill: #3f90da; fill-opacity: 0.8; stroke: #3f90da; stroke-opacity: 0.8"/>
     </g>
    </g>
    <g id="text_13">
     <!-- VHL-BCL2 (r = -0.52) -->
     <g transform="translate(350.218545 25.224812) scale(0.13 -0.13)">
      <defs>
       <path id="DejaVuSans-56" d="M 1831 0 
L 50 4666 
L 709 4666 
L 2188 738 
L 3669 4666 
L 4325 4666 
L 2547 0 
L 1831 0 
z
" transform="scale(0.015625)"/>
       <path id="DejaVuSans-48" d="M 628 4666 
L 1259 4666 
L 1259 2753 
L 3553 2753 
L 3553 4666 
L 4184 4666 
L 4184 0 
L 3553 0 
L 3553 2222 
L 1259 2222 
L 1259 0 
L 628 0 
L 628 4666 
z
" transform="scale(0.015625)"/>
       <path id="DejaVuSans-4c" d="M 628 4666 
L 1259 4666 
L 1259 531 
L 3531 531 
L 3531 0 
L 628 0 
L 628 4666 
z
" transform="scale(0.015625)"/>
       <path id="DejaVuSans-2d" d="M 313 2009 
L 1997 2009 
L 1997 1497 
L 313 1497 
L 313 2009 
z
" transform="scale(0.015625)"/>
       <path id="DejaVuSans-42" d="M 1259 2228 
L 1259 519 
L 2272 519 
Q 2781 519 3026 730 
Q 3272 941 3272 1375 
Q 3272 1813 3026 2020 
Q 2781 2228 2272 2228 
L 1259 2228 
z
M 1259 4147 
L 1259 2741 
L 2194 2741 
Q 2656 2741 2882 2914 
Q 3109 3088 3109 3444 
Q 3109 3797 2882 3972 
Q 2656 4147 2194 4147 
L 1259 4147 
z
M 628 4666 
L 2241 4666 
Q 2963 4666 3353 4366 
Q 3744 4066 3744 3513 
Q 3744 3084 3544 2831 
Q 3344 2578 2956 2516 
Q 3422 2416 3680 2098 
Q 3938 1781 3938 1306 
Q 3938 681 3513 340 
Q 3088 0 2303 0 
L 628 0 
L 628 4666 
z
" transform="scale(0.015625)"/>
       <path id="DejaVuSans-43" d="M 4122 4306 
L 4122 3641 
Q 3803 3938 3442 4084 
Q 3081 4231 2675 4231 
Q 1875 4231 1450 3742 
Q 1025 3253 1025 2328 
Q 1025 1406 1450 917 
Q 1875 428 2675 428 
Q 3081 428 3442 575 
Q 3803 722 4122 1019 
L 4122 359 
Q 3791 134 3420 21 
Q 3050 -91 2638 -91 
Q 1578 -91 968 557 
Q 359 1206 359 2328 
Q 359 3453 968 4101 
Q 1578 4750 2638 4750 
Q 3056 4750 3426 4639 
Q 3797 4528 4122 4306 
z
" transform="scale(0.015625)"/>
       <path id="DejaVuSans-20" transform="scale(0.015625)"/>
       <path id="DejaVuSans-28" d="M 1984 4856 
Q 1566 4138 1362 3434 
Q 1159 2731 1159 2009 
Q 1159 1288 1364 580 
Q 1569 -128 1984 -844 
L 1484 -844 
Q 1016 -109 783 600 
Q 550 1309 550 2009 
Q 550 2706 781 3412 
Q 1013 4119 1484 4856 
L 1984 4856 
z
" transform="scale(0.015625)"/>
       <path id="DejaVuSans-72" d="M 2631 2963 
Q 2534 3019 2420 3045 
Q 2306 3072 2169 3072 
Q 1681 3072 1420 2755 
Q 1159 2438 1159 1844 
L 1159 0 
L 581 0 
L 581 3500 
L 1159 3500 
L 1159 2956 
Q 1341 3275 1631 3429 
Q 1922 3584 2338 3584 
Q 2397 3584 2469 3576 
Q 2541 3569 2628 3553 
L 2631 2963 
z
" transform="scale(0.015625)"/>
       <path id="DejaVuSans-3d" d="M 678 2906 
L 4684 2906 
L 4684 2381 
L 678 2381 
L 678 2906 
z
M 678 1631 
L 4684 1631 
L 4684 1100 
L 678 1100 
L 678 1631 
z
" transform="scale(0.015625)"/>
       <path id="DejaVuSans-2e" d="M 684 794 
L 1344 794 
L 1344 0 
L 684 0 
L 684 794 
z
" transform="scale(0.015625)"/>
       <path id="DejaVuSans-35" d="M 691 4666 
L 3169 4666 
L 3169 4134 
L 1269 4134 
L 1269 2991 
Q 1406 3038 1543 3061 
Q 1681 3084 1819 3084 
Q 2600 3084 3056 2656 
Q 3513 2228 3513 1497 
Q 3513 744 3044 326 
Q 2575 -91 1722 -91 
Q 1428 -91 1123 -41 
Q 819 9 494 109 
L 494 744 
Q 775 591 1075 516 
Q 1375 441 1709 441 
Q 2250 441 2565 725 
Q 2881 1009 2881 1497 
Q 2881 1984 2565 2268 
Q 2250 2553 1709 2553 
Q 1456 2553 1204 2497 
Q 953 2441 691 2322 
L 691 4666 
z
" transform="scale(0.015625)"/>
       <path id="DejaVuSans-29" d="M 513 4856 
L 1013 4856 
Q 1481 4119 1714 3412 
Q 1947 2706 1947 2009 
Q 1947 1309 1714 600 
Q 1481 -109 1013 -844 
L 513 -844 
Q 928 -128 1133 580 
Q 1338 1288 1338 2009 
Q 1338 2731 1133 3434 
Q 928 4138 513 4856 
z
" transform="scale(0.015625)"/>
      </defs>
      <use xlink:href="#DejaVuSans-56"/>
      <use xlink:href="#DejaVuSans-48" x="68.408203"/>
      <use xlink:href="#DejaVuSans-4c" x="143.603516"/>
      <use xlink:href="#DejaVuSans-2d" x="197.566406"/>
      <use xlink:href="#DejaVuSans-42" x="230.025391"/>
      <use xlink:href="#DejaVuSans-43" x="296.878906"/>
      <use xlink:href="#DejaVuSans-4c" x="366.703125"/>
      <use xlink:href="#DejaVuSans-32" x="422.416016"/>
      <use xlink:href="#DejaVuSans-20" x="486.039062"/>
      <use xlink:href="#DejaVuSans-28" x="517.826172"/>
      <use xlink:href="#DejaVuSans-72" x="556.839844"/>
      <use xlink:href="#DejaVuSans-20" x="597.953125"/>
      <use xlink:href="#DejaVuSans-3d" x="629.740234"/>
      <use xlink:href="#DejaVuSans-20" x="713.529297"/>
      <use xlink:href="#DejaVuSans-2d" x="745.316406"/>
      <use xlink:href="#DejaVuSans-30" x="781.400391"/>
      <use xlink:href="#DejaVuSans-2e" x="845.023438"/>
      <use xlink:href="#DejaVuSans-35" x="876.810547"/>
      <use xlink:href="#DejaVuSans-32" x="940.433594"/>
      <use xlink:href="#DejaVuSans-29" x="1004.056641"/>
     </g>
    </g>
    <g id="PathCollection_17">
     <g>
      <use xlink:href="#mf00c36c14a" x="326.818545" y="40.893875" style="fill: #ffa90e; fill-opacity: 0.8; stroke: #ffa90e; stroke-opacity: 0.8"/>
     </g>
    </g>
    <g id="text_14">
     <!-- CRBN-BCL-xL (r = 0.77) -->
     <g transform="translate(350.218545 44.306375) scale(0.13 -0.13)">
      <defs>
       <path id="DejaVuSans-52" d="M 2841 2188 
Q 3044 2119 3236 1894 
Q 3428 1669 3622 1275 
L 4263 0 
L 3584 0 
L 2988 1197 
Q 2756 1666 2539 1819 
Q 2322 1972 1947 1972 
L 1259 1972 
L 1259 0 
L 628 0 
L 628 4666 
L 2053 4666 
Q 2853 4666 3247 4331 
Q 3641 3997 3641 3322 
Q 3641 2881 3436 2590 
Q 3231 2300 2841 2188 
z
M 1259 4147 
L 1259 2491 
L 2053 2491 
Q 2509 2491 2742 2702 
Q 2975 2913 2975 3322 
Q 2975 3731 2742 3939 
Q 2509 4147 2053 4147 
L 1259 4147 
z
" transform="scale(0.015625)"/>
       <path id="DejaVuSans-4e" d="M 628 4666 
L 1478 4666 
L 3547 763 
L 3547 4666 
L 4159 4666 
L 4159 0 
L 3309 0 
L 1241 3903 
L 1241 0 
L 628 0 
L 628 4666 
z
" transform="scale(0.015625)"/>
       <path id="DejaVuSans-78" d="M 3513 3500 
L 2247 1797 
L 3578 0 
L 2900 0 
L 1881 1375 
L 863 0 
L 184 0 
L 1544 1831 
L 300 3500 
L 978 3500 
L 1906 2253 
L 2834 3500 
L 3513 3500 
z
" transform="scale(0.015625)"/>
       <path id="DejaVuSans-37" d="M 525 4666 
L 3525 4666 
L 3525 4397 
L 1831 0 
L 1172 0 
L 2766 4134 
L 525 4134 
L 525 4666 
z
" transform="scale(0.015625)"/>
      </defs>
      <use xlink:href="#DejaVuSans-43"/>
      <use xlink:href="#DejaVuSans-52" x="69.824219"/>
      <use xlink:href="#DejaVuSans-42" x="139.306641"/>
      <use xlink:href="#DejaVuSans-4e" x="207.910156"/>
      <use xlink:href="#DejaVuSans-2d" x="282.714844"/>
      <use xlink:href="#DejaVuSans-42" x="315.173828"/>
      <use xlink:href="#DejaVuSans-43" x="382.027344"/>
      <use xlink:href="#DejaVuSans-4c" x="451.851562"/>
      <use xlink:href="#DejaVuSans-2d" x="505.814453"/>
      <use xlink:href="#DejaVuSans-78" x="541.898438"/>
      <use xlink:href="#DejaVuSans-4c" x="601.078125"/>
      <use xlink:href="#DejaVuSans-20" x="656.791016"/>
      <use xlink:href="#DejaVuSans-28" x="688.578125"/>
      <use xlink:href="#DejaVuSans-72" x="727.591797"/>
      <use xlink:href="#DejaVuSans-20" x="768.705078"/>
      <use xlink:href="#DejaVuSans-3d" x="800.492188"/>
      <use xlink:href="#DejaVuSans-20" x="884.28125"/>
      <use xlink:href="#DejaVuSans-30" x="916.068359"/>
      <use xlink:href="#DejaVuSans-2e" x="979.691406"/>
      <use xlink:href="#DejaVuSans-37" x="1011.478516"/>
      <use xlink:href="#DejaVuSans-37" x="1075.101562"/>
      <use xlink:href="#DejaVuSans-29" x="1138.724609"/>
     </g>
    </g>
    <g id="PathCollection_18">
     <g>
      <use xlink:href="#mc9ab00ff83" x="326.818545" y="59.975437" style="fill: #bd1f01; fill-opacity: 0.8; stroke: #bd1f01; stroke-opacity: 0.8"/>
     </g>
    </g>
    <g id="text_15">
     <!-- VHL-BCL-xL (r = 0.07) -->
     <g transform="translate(350.218545 63.387937) scale(0.13 -0.13)">
      <use xlink:href="#DejaVuSans-56"/>
      <use xlink:href="#DejaVuSans-48" x="68.408203"/>
      <use xlink:href="#DejaVuSans-4c" x="143.603516"/>
      <use xlink:href="#DejaVuSans-2d" x="197.566406"/>
      <use xlink:href="#DejaVuSans-42" x="230.025391"/>
      <use xlink:href="#DejaVuSans-43" x="296.878906"/>
      <use xlink:href="#DejaVuSans-4c" x="366.703125"/>
      <use xlink:href="#DejaVuSans-2d" x="420.666016"/>
      <use xlink:href="#DejaVuSans-78" x="456.75"/>
      <use xlink:href="#DejaVuSans-4c" x="515.929688"/>
      <use xlink:href="#DejaVuSans-20" x="571.642578"/>
      <use xlink:href="#DejaVuSans-28" x="603.429688"/>
      <use xlink:href="#DejaVuSans-72" x="642.443359"/>
      <use xlink:href="#DejaVuSans-20" x="683.556641"/>
      <use xlink:href="#DejaVuSans-3d" x="715.34375"/>
      <use xlink:href="#DejaVuSans-20" x="799.132812"/>
      <use xlink:href="#DejaVuSans-30" x="830.919922"/>
      <use xlink:href="#DejaVuSans-2e" x="894.542969"/>
      <use xlink:href="#DejaVuSans-30" x="926.330078"/>
      <use xlink:href="#DejaVuSans-37" x="989.953125"/>
      <use xlink:href="#DejaVuSans-29" x="1053.576172"/>
     </g>
    </g>
    <g id="PathCollection_19">
     <g>
      <use xlink:href="#m715ea754d0" x="326.818545" y="79.057" style="fill: #94a4a2; fill-opacity: 0.8; stroke: #94a4a2; stroke-opacity: 0.8"/>
     </g>
    </g>
    <g id="text_16">
     <!-- CRBN-BRD4BD1 (r = -0.13) -->
     <g transform="translate(350.218545 82.4695) scale(0.13 -0.13)">
      <defs>
       <path id="DejaVuSans-44" d="M 1259 4147 
L 1259 519 
L 2022 519 
Q 2988 519 3436 956 
Q 3884 1394 3884 2338 
Q 3884 3275 3436 3711 
Q 2988 4147 2022 4147 
L 1259 4147 
z
M 628 4666 
L 1925 4666 
Q 3281 4666 3915 4102 
Q 4550 3538 4550 2338 
Q 4550 1131 3912 565 
Q 3275 0 1925 0 
L 628 0 
L 628 4666 
z
" transform="scale(0.015625)"/>
       <path id="DejaVuSans-33" d="M 2597 2516 
Q 3050 2419 3304 2112 
Q 3559 1806 3559 1356 
Q 3559 666 3084 287 
Q 2609 -91 1734 -91 
Q 1441 -91 1130 -33 
Q 819 25 488 141 
L 488 750 
Q 750 597 1062 519 
Q 1375 441 1716 441 
Q 2309 441 2620 675 
Q 2931 909 2931 1356 
Q 2931 1769 2642 2001 
Q 2353 2234 1838 2234 
L 1294 2234 
L 1294 2753 
L 1863 2753 
Q 2328 2753 2575 2939 
Q 2822 3125 2822 3475 
Q 2822 3834 2567 4026 
Q 2313 4219 1838 4219 
Q 1578 4219 1281 4162 
Q 984 4106 628 3988 
L 628 4550 
Q 988 4650 1302 4700 
Q 1616 4750 1894 4750 
Q 2613 4750 3031 4423 
Q 3450 4097 3450 3541 
Q 3450 3153 3228 2886 
Q 3006 2619 2597 2516 
z
" transform="scale(0.015625)"/>
      </defs>
      <use xlink:href="#DejaVuSans-43"/>
      <use xlink:href="#DejaVuSans-52" x="69.824219"/>
      <use xlink:href="#DejaVuSans-42" x="139.306641"/>
      <use xlink:href="#DejaVuSans-4e" x="207.910156"/>
      <use xlink:href="#DejaVuSans-2d" x="282.714844"/>
      <use xlink:href="#DejaVuSans-42" x="315.173828"/>
      <use xlink:href="#DejaVuSans-52" x="383.777344"/>
      <use xlink:href="#DejaVuSans-44" x="453.259766"/>
      <use xlink:href="#DejaVuSans-34" x="530.261719"/>
      <use xlink:href="#DejaVuSans-42" x="593.884766"/>
      <use xlink:href="#DejaVuSans-44" x="662.488281"/>
      <use xlink:href="#DejaVuSans-31" x="739.490234"/>
      <use xlink:href="#DejaVuSans-20" x="803.113281"/>
      <use xlink:href="#DejaVuSans-28" x="834.900391"/>
      <use xlink:href="#DejaVuSans-72" x="873.914062"/>
      <use xlink:href="#DejaVuSans-20" x="915.027344"/>
      <use xlink:href="#DejaVuSans-3d" x="946.814453"/>
      <use xlink:href="#DejaVuSans-20" x="1030.603516"/>
      <use xlink:href="#DejaVuSans-2d" x="1062.390625"/>
      <use xlink:href="#DejaVuSans-30" x="1098.474609"/>
      <use xlink:href="#DejaVuSans-2e" x="1162.097656"/>
      <use xlink:href="#DejaVuSans-31" x="1193.884766"/>
      <use xlink:href="#DejaVuSans-33" x="1257.507812"/>
      <use xlink:href="#DejaVuSans-29" x="1321.130859"/>
     </g>
    </g>
    <g id="PathCollection_20">
     <g>
      <use xlink:href="#m523d9cfd4b" x="326.818545" y="98.138562" style="fill: #832db6; fill-opacity: 0.8; stroke: #832db6; stroke-opacity: 0.8"/>
     </g>
    </g>
    <g id="text_17">
     <!-- CRBN-BRD4BD2 (r = 0.75) -->
     <g transform="translate(350.218545 101.551062) scale(0.13 -0.13)">
      <use xlink:href="#DejaVuSans-43"/>
      <use xlink:href="#DejaVuSans-52" x="69.824219"/>
      <use xlink:href="#DejaVuSans-42" x="139.306641"/>
      <use xlink:href="#DejaVuSans-4e" x="207.910156"/>
      <use xlink:href="#DejaVuSans-2d" x="282.714844"/>
      <use xlink:href="#DejaVuSans-42" x="315.173828"/>
      <use xlink:href="#DejaVuSans-52" x="383.777344"/>
      <use xlink:href="#DejaVuSans-44" x="453.259766"/>
      <use xlink:href="#DejaVuSans-34" x="530.261719"/>
      <use xlink:href="#DejaVuSans-42" x="593.884766"/>
      <use xlink:href="#DejaVuSans-44" x="662.488281"/>
      <use xlink:href="#DejaVuSans-32" x="739.490234"/>
      <use xlink:href="#DejaVuSans-20" x="803.113281"/>
      <use xlink:href="#DejaVuSans-28" x="834.900391"/>
      <use xlink:href="#DejaVuSans-72" x="873.914062"/>
      <use xlink:href="#DejaVuSans-20" x="915.027344"/>
      <use xlink:href="#DejaVuSans-3d" x="946.814453"/>
      <use xlink:href="#DejaVuSans-20" x="1030.603516"/>
      <use xlink:href="#DejaVuSans-30" x="1062.390625"/>
      <use xlink:href="#DejaVuSans-2e" x="1126.013672"/>
      <use xlink:href="#DejaVuSans-37" x="1157.800781"/>
      <use xlink:href="#DejaVuSans-35" x="1221.423828"/>
      <use xlink:href="#DejaVuSans-29" x="1285.046875"/>
     </g>
    </g>
    <g id="PathCollection_21">
     <g>
      <use xlink:href="#mab218c8e5a" x="326.818545" y="117.220125" style="fill: #a96b59; fill-opacity: 0.8; stroke: #a96b59; stroke-opacity: 0.8"/>
     </g>
    </g>
    <g id="text_18">
     <!-- CRBN-CDK9 (r = 0.18) -->
     <g transform="translate(350.218545 120.632625) scale(0.13 -0.13)">
      <defs>
       <path id="DejaVuSans-4b" d="M 628 4666 
L 1259 4666 
L 1259 2694 
L 3353 4666 
L 4166 4666 
L 1850 2491 
L 4331 0 
L 3500 0 
L 1259 2247 
L 1259 0 
L 628 0 
L 628 4666 
z
" transform="scale(0.015625)"/>
       <path id="DejaVuSans-39" d="M 703 97 
L 703 672 
Q 941 559 1184 500 
Q 1428 441 1663 441 
Q 2288 441 2617 861 
Q 2947 1281 2994 2138 
Q 2813 1869 2534 1725 
Q 2256 1581 1919 1581 
Q 1219 1581 811 2004 
Q 403 2428 403 3163 
Q 403 3881 828 4315 
Q 1253 4750 1959 4750 
Q 2769 4750 3195 4129 
Q 3622 3509 3622 2328 
Q 3622 1225 3098 567 
Q 2575 -91 1691 -91 
Q 1453 -91 1209 -44 
Q 966 3 703 97 
z
M 1959 2075 
Q 2384 2075 2632 2365 
Q 2881 2656 2881 3163 
Q 2881 3666 2632 3958 
Q 2384 4250 1959 4250 
Q 1534 4250 1286 3958 
Q 1038 3666 1038 3163 
Q 1038 2656 1286 2365 
Q 1534 2075 1959 2075 
z
" transform="scale(0.015625)"/>
      </defs>
      <use xlink:href="#DejaVuSans-43"/>
      <use xlink:href="#DejaVuSans-52" x="69.824219"/>
      <use xlink:href="#DejaVuSans-42" x="139.306641"/>
      <use xlink:href="#DejaVuSans-4e" x="207.910156"/>
      <use xlink:href="#DejaVuSans-2d" x="282.714844"/>
      <use xlink:href="#DejaVuSans-43" x="318.798828"/>
      <use xlink:href="#DejaVuSans-44" x="388.623047"/>
      <use xlink:href="#DejaVuSans-4b" x="465.625"/>
      <use xlink:href="#DejaVuSans-39" x="531.201172"/>
      <use xlink:href="#DejaVuSans-20" x="594.824219"/>
      <use xlink:href="#DejaVuSans-28" x="626.611328"/>
      <use xlink:href="#DejaVuSans-72" x="665.625"/>
      <use xlink:href="#DejaVuSans-20" x="706.738281"/>
      <use xlink:href="#DejaVuSans-3d" x="738.525391"/>
      <use xlink:href="#DejaVuSans-20" x="822.314453"/>
      <use xlink:href="#DejaVuSans-30" x="854.101562"/>
      <use xlink:href="#DejaVuSans-2e" x="917.724609"/>
      <use xlink:href="#DejaVuSans-31" x="949.511719"/>
      <use xlink:href="#DejaVuSans-38" x="1013.134766"/>
      <use xlink:href="#DejaVuSans-29" x="1076.757812"/>
     </g>
    </g>
    <g id="PathCollection_22">
     <g>
      <use xlink:href="#m1b7fd9d585" x="326.818545" y="136.301687" style="fill: #e76300; fill-opacity: 0.8; stroke: #e76300; stroke-opacity: 0.8"/>
     </g>
    </g>
    <g id="text_19">
     <!-- MDM2-EGFR (r = 0.02) -->
     <g transform="translate(350.218545 139.714187) scale(0.13 -0.13)">
      <defs>
       <path id="DejaVuSans-4d" d="M 628 4666 
L 1569 4666 
L 2759 1491 
L 3956 4666 
L 4897 4666 
L 4897 0 
L 4281 0 
L 4281 4097 
L 3078 897 
L 2444 897 
L 1241 4097 
L 1241 0 
L 628 0 
L 628 4666 
z
" transform="scale(0.015625)"/>
       <path id="DejaVuSans-45" d="M 628 4666 
L 3578 4666 
L 3578 4134 
L 1259 4134 
L 1259 2753 
L 3481 2753 
L 3481 2222 
L 1259 2222 
L 1259 531 
L 3634 531 
L 3634 0 
L 628 0 
L 628 4666 
z
" transform="scale(0.015625)"/>
       <path id="DejaVuSans-47" d="M 3809 666 
L 3809 1919 
L 2778 1919 
L 2778 2438 
L 4434 2438 
L 4434 434 
Q 4069 175 3628 42 
Q 3188 -91 2688 -91 
Q 1594 -91 976 548 
Q 359 1188 359 2328 
Q 359 3472 976 4111 
Q 1594 4750 2688 4750 
Q 3144 4750 3555 4637 
Q 3966 4525 4313 4306 
L 4313 3634 
Q 3963 3931 3569 4081 
Q 3175 4231 2741 4231 
Q 1884 4231 1454 3753 
Q 1025 3275 1025 2328 
Q 1025 1384 1454 906 
Q 1884 428 2741 428 
Q 3075 428 3337 486 
Q 3600 544 3809 666 
z
" transform="scale(0.015625)"/>
       <path id="DejaVuSans-46" d="M 628 4666 
L 3309 4666 
L 3309 4134 
L 1259 4134 
L 1259 2759 
L 3109 2759 
L 3109 2228 
L 1259 2228 
L 1259 0 
L 628 0 
L 628 4666 
z
" transform="scale(0.015625)"/>
      </defs>
      <use xlink:href="#DejaVuSans-4d"/>
      <use xlink:href="#DejaVuSans-44" x="86.279297"/>
      <use xlink:href="#DejaVuSans-4d" x="163.28125"/>
      <use xlink:href="#DejaVuSans-32" x="249.560547"/>
      <use xlink:href="#DejaVuSans-2d" x="313.183594"/>
      <use xlink:href="#DejaVuSans-45" x="349.267578"/>
      <use xlink:href="#DejaVuSans-47" x="412.451172"/>
      <use xlink:href="#DejaVuSans-46" x="489.941406"/>
      <use xlink:href="#DejaVuSans-52" x="547.460938"/>
      <use xlink:href="#DejaVuSans-20" x="616.943359"/>
      <use xlink:href="#DejaVuSans-28" x="648.730469"/>
      <use xlink:href="#DejaVuSans-72" x="687.744141"/>
      <use xlink:href="#DejaVuSans-20" x="728.857422"/>
      <use xlink:href="#DejaVuSans-3d" x="760.644531"/>
      <use xlink:href="#DejaVuSans-20" x="844.433594"/>
      <use xlink:href="#DejaVuSans-30" x="876.220703"/>
      <use xlink:href="#DejaVuSans-2e" x="939.84375"/>
      <use xlink:href="#DejaVuSans-30" x="971.630859"/>
      <use xlink:href="#DejaVuSans-32" x="1035.253906"/>
      <use xlink:href="#DejaVuSans-29" x="1098.876953"/>
     </g>
    </g>
    <g id="PathCollection_23">
     <g>
      <use xlink:href="#m905bdb463f" x="326.818545" y="155.38325" style="fill: #b9ac70; fill-opacity: 0.8; stroke: #b9ac70; stroke-opacity: 0.8"/>
     </g>
    </g>
    <g id="text_20">
     <!-- VHL-EGFR (r = 0.30) -->
     <g transform="translate(350.218545 158.79575) scale(0.13 -0.13)">
      <use xlink:href="#DejaVuSans-56"/>
      <use xlink:href="#DejaVuSans-48" x="68.408203"/>
      <use xlink:href="#DejaVuSans-4c" x="143.603516"/>
      <use xlink:href="#DejaVuSans-2d" x="197.566406"/>
      <use xlink:href="#DejaVuSans-45" x="233.650391"/>
      <use xlink:href="#DejaVuSans-47" x="296.833984"/>
      <use xlink:href="#DejaVuSans-46" x="374.324219"/>
      <use xlink:href="#DejaVuSans-52" x="431.84375"/>
      <use xlink:href="#DejaVuSans-20" x="501.326172"/>
      <use xlink:href="#DejaVuSans-28" x="533.113281"/>
      <use xlink:href="#DejaVuSans-72" x="572.126953"/>
      <use xlink:href="#DejaVuSans-20" x="613.240234"/>
      <use xlink:href="#DejaVuSans-3d" x="645.027344"/>
      <use xlink:href="#DejaVuSans-20" x="728.816406"/>
      <use xlink:href="#DejaVuSans-30" x="760.603516"/>
      <use xlink:href="#DejaVuSans-2e" x="824.226562"/>
      <use xlink:href="#DejaVuSans-33" x="856.013672"/>
      <use xlink:href="#DejaVuSans-30" x="919.636719"/>
      <use xlink:href="#DejaVuSans-29" x="983.259766"/>
     </g>
    </g>
    <g id="PathCollection_24">
     <g>
      <use xlink:href="#m25cf32d0e6" x="326.818545" y="175.66325" style="fill: #717581; fill-opacity: 0.8; stroke: #717581; stroke-opacity: 0.8"/>
     </g>
    </g>
    <g id="text_21">
     <!-- VHL-FAK1$^{(a)}$(r = 0.05) -->
     <g transform="translate(350.218545 179.07575) scale(0.13 -0.13)">
      <defs>
       <path id="DejaVuSans-41" d="M 2188 4044 
L 1331 1722 
L 3047 1722 
L 2188 4044 
z
M 1831 4666 
L 2547 4666 
L 4325 0 
L 3669 0 
L 3244 1197 
L 1141 1197 
L 716 0 
L 50 0 
L 1831 4666 
z
" transform="scale(0.015625)"/>
       <path id="DejaVuSans-Oblique-61" d="M 3438 1997 
L 3047 0 
L 2472 0 
L 2578 531 
Q 2325 219 2001 64 
Q 1678 -91 1281 -91 
Q 834 -91 548 182 
Q 263 456 263 884 
Q 263 1497 752 1853 
Q 1241 2209 2100 2209 
L 2900 2209 
L 2931 2363 
Q 2938 2388 2941 2417 
Q 2944 2447 2944 2509 
Q 2944 2788 2717 2942 
Q 2491 3097 2081 3097 
Q 1800 3097 1504 3025 
Q 1209 2953 897 2809 
L 997 3341 
Q 1322 3463 1633 3523 
Q 1944 3584 2234 3584 
Q 2853 3584 3176 3315 
Q 3500 3047 3500 2534 
Q 3500 2431 3484 2292 
Q 3469 2153 3438 1997 
z
M 2816 1759 
L 2241 1759 
Q 1534 1759 1195 1570 
Q 856 1381 856 984 
Q 856 709 1029 553 
Q 1203 397 1509 397 
Q 1978 397 2328 733 
Q 2678 1069 2791 1631 
L 2816 1759 
z
" transform="scale(0.015625)"/>
      </defs>
      <use xlink:href="#DejaVuSans-56" transform="translate(0 0.60625)"/>
      <use xlink:href="#DejaVuSans-48" transform="translate(68.408203 0.60625)"/>
      <use xlink:href="#DejaVuSans-4c" transform="translate(143.603516 0.60625)"/>
      <use xlink:href="#DejaVuSans-2d" transform="translate(199.316406 0.60625)"/>
      <use xlink:href="#DejaVuSans-46" transform="translate(235.400391 0.60625)"/>
      <use xlink:href="#DejaVuSans-41" transform="translate(292.919922 0.60625)"/>
      <use xlink:href="#DejaVuSans-4b" transform="translate(361.328125 0.60625)"/>
      <use xlink:href="#DejaVuSans-31" transform="translate(426.904297 0.60625)"/>
      <use xlink:href="#DejaVuSans-28" transform="translate(491.484375 38.8875) scale(0.7)"/>
      <use xlink:href="#DejaVuSans-Oblique-61" transform="translate(518.793945 38.8875) scale(0.7)"/>
      <use xlink:href="#DejaVuSans-29" transform="translate(561.689453 38.8875) scale(0.7)"/>
      <use xlink:href="#DejaVuSans-28" transform="translate(591.733398 0.60625)"/>
      <use xlink:href="#DejaVuSans-72" transform="translate(630.74707 0.60625)"/>
      <use xlink:href="#DejaVuSans-20" transform="translate(671.860352 0.60625)"/>
      <use xlink:href="#DejaVuSans-3d" transform="translate(703.647461 0.60625)"/>
      <use xlink:href="#DejaVuSans-20" transform="translate(787.436523 0.60625)"/>
      <use xlink:href="#DejaVuSans-30" transform="translate(819.223633 0.60625)"/>
      <use xlink:href="#DejaVuSans-2e" transform="translate(882.84668 0.60625)"/>
      <use xlink:href="#DejaVuSans-30" transform="translate(914.633789 0.60625)"/>
      <use xlink:href="#DejaVuSans-35" transform="translate(978.256836 0.60625)"/>
      <use xlink:href="#DejaVuSans-29" transform="translate(1041.879883 0.60625)"/>
     </g>
    </g>
    <g id="PathCollection_25">
     <g>
      <use xlink:href="#md0a94f96df" x="326.818545" y="195.94325" style="fill: #92dadd; fill-opacity: 0.8; stroke: #92dadd; stroke-opacity: 0.8"/>
     </g>
    </g>
    <g id="text_22">
     <!-- VHL-FAK1$^{(b)}$(r = -0.03) -->
     <g transform="translate(350.218545 199.35575) scale(0.13 -0.13)">
      <defs>
       <path id="DejaVuSans-Oblique-62" d="M 3169 2138 
Q 3169 2591 2961 2847 
Q 2753 3103 2388 3103 
Q 2122 3103 1889 2973 
Q 1656 2844 1484 2597 
Q 1303 2338 1198 1995 
Q 1094 1653 1094 1313 
Q 1094 881 1298 636 
Q 1503 391 1863 391 
Q 2134 391 2365 517 
Q 2597 644 2772 891 
Q 2950 1147 3059 1487 
Q 3169 1828 3169 2138 
z
M 1381 2969 
Q 1594 3256 1914 3420 
Q 2234 3584 2584 3584 
Q 3122 3584 3439 3221 
Q 3756 2859 3756 2241 
Q 3756 1734 3570 1259 
Q 3384 784 3041 416 
Q 2816 172 2522 40 
Q 2228 -91 1906 -91 
Q 1566 -91 1316 65 
Q 1066 222 909 531 
L 806 0 
L 231 0 
L 1178 4863 
L 1753 4863 
L 1381 2969 
z
" transform="scale(0.015625)"/>
      </defs>
      <use xlink:href="#DejaVuSans-56" transform="translate(0 0.529687)"/>
      <use xlink:href="#DejaVuSans-48" transform="translate(68.408203 0.529687)"/>
      <use xlink:href="#DejaVuSans-4c" transform="translate(143.603516 0.529687)"/>
      <use xlink:href="#DejaVuSans-2d" transform="translate(199.316406 0.529687)"/>
      <use xlink:href="#DejaVuSans-46" transform="translate(235.400391 0.529687)"/>
      <use xlink:href="#DejaVuSans-41" transform="translate(292.919922 0.529687)"/>
      <use xlink:href="#DejaVuSans-4b" transform="translate(361.328125 0.529687)"/>
      <use xlink:href="#DejaVuSans-31" transform="translate(426.904297 0.529687)"/>
      <use xlink:href="#DejaVuSans-28" transform="translate(491.484375 38.810937) scale(0.7)"/>
      <use xlink:href="#DejaVuSans-Oblique-62" transform="translate(518.793945 38.810937) scale(0.7)"/>
      <use xlink:href="#DejaVuSans-29" transform="translate(563.227539 38.810937) scale(0.7)"/>
      <use xlink:href="#DejaVuSans-28" transform="translate(593.271484 0.529687)"/>
      <use xlink:href="#DejaVuSans-72" transform="translate(632.285156 0.529687)"/>
      <use xlink:href="#DejaVuSans-20" transform="translate(673.398438 0.529687)"/>
      <use xlink:href="#DejaVuSans-3d" transform="translate(705.185547 0.529687)"/>
      <use xlink:href="#DejaVuSans-20" transform="translate(788.974609 0.529687)"/>
      <use xlink:href="#DejaVuSans-2d" transform="translate(820.761719 0.529687)"/>
      <use xlink:href="#DejaVuSans-30" transform="translate(856.845703 0.529687)"/>
      <use xlink:href="#DejaVuSans-2e" transform="translate(920.46875 0.529687)"/>
      <use xlink:href="#DejaVuSans-30" transform="translate(952.255859 0.529687)"/>
      <use xlink:href="#DejaVuSans-33" transform="translate(1015.878906 0.529687)"/>
      <use xlink:href="#DejaVuSans-29" transform="translate(1079.501953 0.529687)"/>
     </g>
    </g>
    <g id="PathCollection_26">
     <g>
      <use xlink:href="#m49f2f3ddfb" x="326.818545" y="215.024812" style="fill: #3f90da; fill-opacity: 0.8; stroke: #3f90da; stroke-opacity: 0.8"/>
     </g>
    </g>
    <g id="text_23">
     <!-- CRBN-HDAC8 (r = -0.42) -->
     <g transform="translate(350.218545 218.437312) scale(0.13 -0.13)">
      <use xlink:href="#DejaVuSans-43"/>
      <use xlink:href="#DejaVuSans-52" x="69.824219"/>
      <use xlink:href="#DejaVuSans-42" x="139.306641"/>
      <use xlink:href="#DejaVuSans-4e" x="207.910156"/>
      <use xlink:href="#DejaVuSans-2d" x="282.714844"/>
      <use xlink:href="#DejaVuSans-48" x="318.798828"/>
      <use xlink:href="#DejaVuSans-44" x="393.994141"/>
      <use xlink:href="#DejaVuSans-41" x="469.246094"/>
      <use xlink:href="#DejaVuSans-43" x="535.904297"/>
      <use xlink:href="#DejaVuSans-38" x="605.728516"/>
      <use xlink:href="#DejaVuSans-20" x="669.351562"/>
      <use xlink:href="#DejaVuSans-28" x="701.138672"/>
      <use xlink:href="#DejaVuSans-72" x="740.152344"/>
      <use xlink:href="#DejaVuSans-20" x="781.265625"/>
      <use xlink:href="#DejaVuSans-3d" x="813.052734"/>
      <use xlink:href="#DejaVuSans-20" x="896.841797"/>
      <use xlink:href="#DejaVuSans-2d" x="928.628906"/>
      <use xlink:href="#DejaVuSans-30" x="964.712891"/>
      <use xlink:href="#DejaVuSans-2e" x="1028.335938"/>
      <use xlink:href="#DejaVuSans-34" x="1060.123047"/>
      <use xlink:href="#DejaVuSans-32" x="1123.746094"/>
      <use xlink:href="#DejaVuSans-29" x="1187.369141"/>
     </g>
    </g>
    <g id="PathCollection_27">
     <g>
      <use xlink:href="#m6533d2f974" x="326.818545" y="234.106375" style="fill: #ffa90e; fill-opacity: 0.8; stroke: #ffa90e; stroke-opacity: 0.8"/>
     </g>
    </g>
    <g id="text_24">
     <!-- CRBN-SMARCA2 (r = 0.44) -->
     <g transform="translate(350.218545 237.518875) scale(0.13 -0.13)">
      <defs>
       <path id="DejaVuSans-53" d="M 3425 4513 
L 3425 3897 
Q 3066 4069 2747 4153 
Q 2428 4238 2131 4238 
Q 1616 4238 1336 4038 
Q 1056 3838 1056 3469 
Q 1056 3159 1242 3001 
Q 1428 2844 1947 2747 
L 2328 2669 
Q 3034 2534 3370 2195 
Q 3706 1856 3706 1288 
Q 3706 609 3251 259 
Q 2797 -91 1919 -91 
Q 1588 -91 1214 -16 
Q 841 59 441 206 
L 441 856 
Q 825 641 1194 531 
Q 1563 422 1919 422 
Q 2459 422 2753 634 
Q 3047 847 3047 1241 
Q 3047 1584 2836 1778 
Q 2625 1972 2144 2069 
L 1759 2144 
Q 1053 2284 737 2584 
Q 422 2884 422 3419 
Q 422 4038 858 4394 
Q 1294 4750 2059 4750 
Q 2388 4750 2728 4690 
Q 3069 4631 3425 4513 
z
" transform="scale(0.015625)"/>
      </defs>
      <use xlink:href="#DejaVuSans-43"/>
      <use xlink:href="#DejaVuSans-52" x="69.824219"/>
      <use xlink:href="#DejaVuSans-42" x="139.306641"/>
      <use xlink:href="#DejaVuSans-4e" x="207.910156"/>
      <use xlink:href="#DejaVuSans-2d" x="282.714844"/>
      <use xlink:href="#DejaVuSans-53" x="318.798828"/>
      <use xlink:href="#DejaVuSans-4d" x="382.275391"/>
      <use xlink:href="#DejaVuSans-41" x="468.554688"/>
      <use xlink:href="#DejaVuSans-52" x="536.962891"/>
      <use xlink:href="#DejaVuSans-43" x="601.445312"/>
      <use xlink:href="#DejaVuSans-41" x="671.269531"/>
      <use xlink:href="#DejaVuSans-32" x="739.677734"/>
      <use xlink:href="#DejaVuSans-20" x="803.300781"/>
      <use xlink:href="#DejaVuSans-28" x="835.087891"/>
      <use xlink:href="#DejaVuSans-72" x="874.101562"/>
      <use xlink:href="#DejaVuSans-20" x="915.214844"/>
      <use xlink:href="#DejaVuSans-3d" x="947.001953"/>
      <use xlink:href="#DejaVuSans-20" x="1030.791016"/>
      <use xlink:href="#DejaVuSans-30" x="1062.578125"/>
      <use xlink:href="#DejaVuSans-2e" x="1126.201172"/>
      <use xlink:href="#DejaVuSans-34" x="1157.988281"/>
      <use xlink:href="#DejaVuSans-34" x="1221.611328"/>
      <use xlink:href="#DejaVuSans-29" x="1285.234375"/>
     </g>
    </g>
    <g id="PathCollection_28">
     <g>
      <use xlink:href="#m8f29316750" x="326.818545" y="253.187937" style="fill: #bd1f01; fill-opacity: 0.8; stroke: #bd1f01; stroke-opacity: 0.8"/>
     </g>
    </g>
    <g id="text_25">
     <!-- VHL-SMARCA2 (r = 0.17) -->
     <g transform="translate(350.218545 256.600437) scale(0.13 -0.13)">
      <use xlink:href="#DejaVuSans-56"/>
      <use xlink:href="#DejaVuSans-48" x="68.408203"/>
      <use xlink:href="#DejaVuSans-4c" x="143.603516"/>
      <use xlink:href="#DejaVuSans-2d" x="197.566406"/>
      <use xlink:href="#DejaVuSans-53" x="233.650391"/>
      <use xlink:href="#DejaVuSans-4d" x="297.126953"/>
      <use xlink:href="#DejaVuSans-41" x="383.40625"/>
      <use xlink:href="#DejaVuSans-52" x="451.814453"/>
      <use xlink:href="#DejaVuSans-43" x="516.296875"/>
      <use xlink:href="#DejaVuSans-41" x="586.121094"/>
      <use xlink:href="#DejaVuSans-32" x="654.529297"/>
      <use xlink:href="#DejaVuSans-20" x="718.152344"/>
      <use xlink:href="#DejaVuSans-28" x="749.939453"/>
      <use xlink:href="#DejaVuSans-72" x="788.953125"/>
      <use xlink:href="#DejaVuSans-20" x="830.066406"/>
      <use xlink:href="#DejaVuSans-3d" x="861.853516"/>
      <use xlink:href="#DejaVuSans-20" x="945.642578"/>
      <use xlink:href="#DejaVuSans-30" x="977.429688"/>
      <use xlink:href="#DejaVuSans-2e" x="1041.052734"/>
      <use xlink:href="#DejaVuSans-31" x="1072.839844"/>
      <use xlink:href="#DejaVuSans-37" x="1136.462891"/>
      <use xlink:href="#DejaVuSans-29" x="1200.085938"/>
     </g>
    </g>
    <g id="PathCollection_29">
     <g>
      <use xlink:href="#m48c37c6a27" x="326.818545" y="272.2695" style="fill: #94a4a2; fill-opacity: 0.8; stroke: #94a4a2; stroke-opacity: 0.8"/>
     </g>
    </g>
    <g id="text_26">
     <!-- VHL-SMARCA4 (r = 0.44) -->
     <g transform="translate(350.218545 275.682) scale(0.13 -0.13)">
      <use xlink:href="#DejaVuSans-56"/>
      <use xlink:href="#DejaVuSans-48" x="68.408203"/>
      <use xlink:href="#DejaVuSans-4c" x="143.603516"/>
      <use xlink:href="#DejaVuSans-2d" x="197.566406"/>
      <use xlink:href="#DejaVuSans-53" x="233.650391"/>
      <use xlink:href="#DejaVuSans-4d" x="297.126953"/>
      <use xlink:href="#DejaVuSans-41" x="383.40625"/>
      <use xlink:href="#DejaVuSans-52" x="451.814453"/>
      <use xlink:href="#DejaVuSans-43" x="516.296875"/>
      <use xlink:href="#DejaVuSans-41" x="586.121094"/>
      <use xlink:href="#DejaVuSans-34" x="654.529297"/>
      <use xlink:href="#DejaVuSans-20" x="718.152344"/>
      <use xlink:href="#DejaVuSans-28" x="749.939453"/>
      <use xlink:href="#DejaVuSans-72" x="788.953125"/>
      <use xlink:href="#DejaVuSans-20" x="830.066406"/>
      <use xlink:href="#DejaVuSans-3d" x="861.853516"/>
      <use xlink:href="#DejaVuSans-20" x="945.642578"/>
      <use xlink:href="#DejaVuSans-30" x="977.429688"/>
      <use xlink:href="#DejaVuSans-2e" x="1041.052734"/>
      <use xlink:href="#DejaVuSans-34" x="1072.839844"/>
      <use xlink:href="#DejaVuSans-34" x="1136.462891"/>
      <use xlink:href="#DejaVuSans-29" x="1200.085938"/>
     </g>
    </g>
    <g id="PathCollection_30">
     <g>
      <use xlink:href="#mf846854f41" x="326.818545" y="291.351062" style="fill: #832db6; fill-opacity: 0.8; stroke: #832db6; stroke-opacity: 0.8"/>
     </g>
    </g>
    <g id="text_27">
     <!-- VHL-WDR5 (r = 0.57) -->
     <g transform="translate(350.218545 294.763562) scale(0.13 -0.13)">
      <defs>
       <path id="DejaVuSans-57" d="M 213 4666 
L 850 4666 
L 1831 722 
L 2809 4666 
L 3519 4666 
L 4500 722 
L 5478 4666 
L 6119 4666 
L 4947 0 
L 4153 0 
L 3169 4050 
L 2175 0 
L 1381 0 
L 213 4666 
z
" transform="scale(0.015625)"/>
      </defs>
      <use xlink:href="#DejaVuSans-56"/>
      <use xlink:href="#DejaVuSans-48" x="68.408203"/>
      <use xlink:href="#DejaVuSans-4c" x="143.603516"/>
      <use xlink:href="#DejaVuSans-2d" x="197.566406"/>
      <use xlink:href="#DejaVuSans-57" x="229.650391"/>
      <use xlink:href="#DejaVuSans-44" x="328.527344"/>
      <use xlink:href="#DejaVuSans-52" x="405.529297"/>
      <use xlink:href="#DejaVuSans-35" x="475.011719"/>
      <use xlink:href="#DejaVuSans-20" x="538.634766"/>
      <use xlink:href="#DejaVuSans-28" x="570.421875"/>
      <use xlink:href="#DejaVuSans-72" x="609.435547"/>
      <use xlink:href="#DejaVuSans-20" x="650.548828"/>
      <use xlink:href="#DejaVuSans-3d" x="682.335938"/>
      <use xlink:href="#DejaVuSans-20" x="766.125"/>
      <use xlink:href="#DejaVuSans-30" x="797.912109"/>
      <use xlink:href="#DejaVuSans-2e" x="861.535156"/>
      <use xlink:href="#DejaVuSans-35" x="893.322266"/>
      <use xlink:href="#DejaVuSans-37" x="956.945312"/>
      <use xlink:href="#DejaVuSans-29" x="1020.568359"/>
     </g>
    </g>
   </g>
  </g>
 </g>
 <defs>
  <clipPath id="p177f60ffde">
   <rect x="55.478" y="41.574" width="235.840545" height="229.666"/>
  </clipPath>
 </defs>
</svg>
